%TF.GenerationSoftware,KiCad,Pcbnew,10.0.5*%
%TF.CreationDate,2026-08-24T16:18:58+02:00*%
%TF.ProjectId,Anzeige_Simon,416e7a65-6967-4655-9f53-696d6f6e2e6b,rev?*%
%TF.SameCoordinates,Original*%
%TF.FileFunction,Legend,Top*%
%TF.FilePolarity,Positive*%
%FSLAX46Y46*%
G04 Gerber Fmt 4.6, Leading zero omitted, Abs format (unit mm)*
G04 Created by KiCad (PCBNEW 10.0.5) date 2026-08-24 16:18:58*
%MOMM*%
%LPD*%
G01*
G04 APERTURE LIST*
G04 Aperture macros list*
%AMRoundRect*
0 Rectangle with rounded corners*
0 $1 Rounding radius*
0 $2 $3 $4 $5 $6 $7 $8 $9 X,Y pos of 4 corners*
0 Add a 4 corners polygon primitive as box body*
4,1,4,$2,$3,$4,$5,$6,$7,$8,$9,$2,$3,0*
0 Add four circle primitives for the rounded corners*
1,1,$1+$1,$2,$3*
1,1,$1+$1,$4,$5*
1,1,$1+$1,$6,$7*
1,1,$1+$1,$8,$9*
0 Add four rect primitives between the rounded corners*
20,1,$1+$1,$2,$3,$4,$5,0*
20,1,$1+$1,$4,$5,$6,$7,0*
20,1,$1+$1,$6,$7,$8,$9,0*
20,1,$1+$1,$8,$9,$2,$3,0*%
%AMFreePoly0*
4,1,23,0.500000,-0.750000,0.000000,-0.750000,0.000000,-0.745722,-0.065263,-0.745722,-0.191342,-0.711940,-0.304381,-0.646677,-0.396677,-0.554381,-0.461940,-0.441342,-0.495722,-0.315263,-0.495722,-0.250000,-0.500000,-0.250000,-0.500000,0.250000,-0.495722,0.250000,-0.495722,0.315263,-0.461940,0.441342,-0.396677,0.554381,-0.304381,0.646677,-0.191342,0.711940,-0.065263,0.745722,0.000000,0.745722,
0.000000,0.750000,0.500000,0.750000,0.500000,-0.750000,0.500000,-0.750000,$1*%
%AMFreePoly1*
4,1,23,0.000000,0.745722,0.065263,0.745722,0.191342,0.711940,0.304381,0.646677,0.396677,0.554381,0.461940,0.441342,0.495722,0.315263,0.495722,0.250000,0.500000,0.250000,0.500000,-0.250000,0.495722,-0.250000,0.495722,-0.315263,0.461940,-0.441342,0.396677,-0.554381,0.304381,-0.646677,0.191342,-0.711940,0.065263,-0.745722,0.000000,-0.745722,0.000000,-0.750000,-0.500000,-0.750000,
-0.500000,0.750000,0.000000,0.750000,0.000000,0.745722,0.000000,0.745722,$1*%
G04 Aperture macros list end*
%ADD10C,0.150000*%
%ADD11C,0.120000*%
%ADD12FreePoly0,270.000000*%
%ADD13FreePoly1,270.000000*%
%ADD14RoundRect,0.250000X0.350000X0.450000X-0.350000X0.450000X-0.350000X-0.450000X0.350000X-0.450000X0*%
%ADD15RoundRect,0.250000X-0.950000X-0.550000X0.950000X-0.550000X0.950000X0.550000X-0.950000X0.550000X0*%
%ADD16O,2.400000X1.600000*%
%ADD17R,1.600000X1.600000*%
%ADD18C,1.600000*%
%ADD19RoundRect,0.250000X-0.725000X0.600000X-0.725000X-0.600000X0.725000X-0.600000X0.725000X0.600000X0*%
%ADD20O,1.950000X1.700000*%
%ADD21RoundRect,0.250000X0.450000X-0.350000X0.450000X0.350000X-0.450000X0.350000X-0.450000X-0.350000X0*%
%ADD22RoundRect,0.250000X-0.550000X-0.550000X0.550000X-0.550000X0.550000X0.550000X-0.550000X0.550000X0*%
%ADD23RoundRect,0.250000X-0.450000X0.350000X-0.450000X-0.350000X0.450000X-0.350000X0.450000X0.350000X0*%
%ADD24RoundRect,0.250000X-1.650000X-0.750000X1.650000X-0.750000X1.650000X0.750000X-1.650000X0.750000X0*%
%ADD25R,1.700000X1.700000*%
%ADD26C,1.700000*%
%ADD27RoundRect,0.250000X0.550000X0.550000X-0.550000X0.550000X-0.550000X-0.550000X0.550000X-0.550000X0*%
%ADD28RoundRect,0.250000X-0.750000X0.600000X-0.750000X-0.600000X0.750000X-0.600000X0.750000X0.600000X0*%
%ADD29O,2.000000X1.700000*%
G04 APERTURE END LIST*
D10*
X66481666Y-58304819D02*
X66481666Y-59019104D01*
X66481666Y-59019104D02*
X66434047Y-59161961D01*
X66434047Y-59161961D02*
X66338809Y-59257200D01*
X66338809Y-59257200D02*
X66195952Y-59304819D01*
X66195952Y-59304819D02*
X66100714Y-59304819D01*
X66957857Y-59304819D02*
X66957857Y-58304819D01*
X66957857Y-58304819D02*
X67338809Y-58304819D01*
X67338809Y-58304819D02*
X67434047Y-58352438D01*
X67434047Y-58352438D02*
X67481666Y-58400057D01*
X67481666Y-58400057D02*
X67529285Y-58495295D01*
X67529285Y-58495295D02*
X67529285Y-58638152D01*
X67529285Y-58638152D02*
X67481666Y-58733390D01*
X67481666Y-58733390D02*
X67434047Y-58781009D01*
X67434047Y-58781009D02*
X67338809Y-58828628D01*
X67338809Y-58828628D02*
X66957857Y-58828628D01*
X68481666Y-59304819D02*
X67910238Y-59304819D01*
X68195952Y-59304819D02*
X68195952Y-58304819D01*
X68195952Y-58304819D02*
X68100714Y-58447676D01*
X68100714Y-58447676D02*
X68005476Y-58542914D01*
X68005476Y-58542914D02*
X67910238Y-58590533D01*
X56333333Y-53454819D02*
X56000000Y-52978628D01*
X55761905Y-53454819D02*
X55761905Y-52454819D01*
X55761905Y-52454819D02*
X56142857Y-52454819D01*
X56142857Y-52454819D02*
X56238095Y-52502438D01*
X56238095Y-52502438D02*
X56285714Y-52550057D01*
X56285714Y-52550057D02*
X56333333Y-52645295D01*
X56333333Y-52645295D02*
X56333333Y-52788152D01*
X56333333Y-52788152D02*
X56285714Y-52883390D01*
X56285714Y-52883390D02*
X56238095Y-52931009D01*
X56238095Y-52931009D02*
X56142857Y-52978628D01*
X56142857Y-52978628D02*
X55761905Y-52978628D01*
X57285714Y-53454819D02*
X56714286Y-53454819D01*
X57000000Y-53454819D02*
X57000000Y-52454819D01*
X57000000Y-52454819D02*
X56904762Y-52597676D01*
X56904762Y-52597676D02*
X56809524Y-52692914D01*
X56809524Y-52692914D02*
X56714286Y-52740533D01*
X59738095Y-55194819D02*
X59738095Y-56004342D01*
X59738095Y-56004342D02*
X59785714Y-56099580D01*
X59785714Y-56099580D02*
X59833333Y-56147200D01*
X59833333Y-56147200D02*
X59928571Y-56194819D01*
X59928571Y-56194819D02*
X60119047Y-56194819D01*
X60119047Y-56194819D02*
X60214285Y-56147200D01*
X60214285Y-56147200D02*
X60261904Y-56099580D01*
X60261904Y-56099580D02*
X60309523Y-56004342D01*
X60309523Y-56004342D02*
X60309523Y-55194819D01*
X61309523Y-56194819D02*
X60738095Y-56194819D01*
X61023809Y-56194819D02*
X61023809Y-55194819D01*
X61023809Y-55194819D02*
X60928571Y-55337676D01*
X60928571Y-55337676D02*
X60833333Y-55432914D01*
X60833333Y-55432914D02*
X60738095Y-55480533D01*
X52264819Y-69540476D02*
X51788628Y-69873809D01*
X52264819Y-70111904D02*
X51264819Y-70111904D01*
X51264819Y-70111904D02*
X51264819Y-69730952D01*
X51264819Y-69730952D02*
X51312438Y-69635714D01*
X51312438Y-69635714D02*
X51360057Y-69588095D01*
X51360057Y-69588095D02*
X51455295Y-69540476D01*
X51455295Y-69540476D02*
X51598152Y-69540476D01*
X51598152Y-69540476D02*
X51693390Y-69588095D01*
X51693390Y-69588095D02*
X51741009Y-69635714D01*
X51741009Y-69635714D02*
X51788628Y-69730952D01*
X51788628Y-69730952D02*
X51788628Y-70111904D01*
X52264819Y-69111904D02*
X51264819Y-69111904D01*
X51264819Y-69111904D02*
X52264819Y-68540476D01*
X52264819Y-68540476D02*
X51264819Y-68540476D01*
X52264819Y-67540476D02*
X52264819Y-68111904D01*
X52264819Y-67826190D02*
X51264819Y-67826190D01*
X51264819Y-67826190D02*
X51407676Y-67921428D01*
X51407676Y-67921428D02*
X51502914Y-68016666D01*
X51502914Y-68016666D02*
X51550533Y-68111904D01*
X83004819Y-63583333D02*
X83719104Y-63583333D01*
X83719104Y-63583333D02*
X83861961Y-63630952D01*
X83861961Y-63630952D02*
X83957200Y-63726190D01*
X83957200Y-63726190D02*
X84004819Y-63869047D01*
X84004819Y-63869047D02*
X84004819Y-63964285D01*
X84004819Y-62583333D02*
X84004819Y-63154761D01*
X84004819Y-62869047D02*
X83004819Y-62869047D01*
X83004819Y-62869047D02*
X83147676Y-62964285D01*
X83147676Y-62964285D02*
X83242914Y-63059523D01*
X83242914Y-63059523D02*
X83290533Y-63154761D01*
X41333333Y-82954819D02*
X41000000Y-82478628D01*
X40761905Y-82954819D02*
X40761905Y-81954819D01*
X40761905Y-81954819D02*
X41142857Y-81954819D01*
X41142857Y-81954819D02*
X41238095Y-82002438D01*
X41238095Y-82002438D02*
X41285714Y-82050057D01*
X41285714Y-82050057D02*
X41333333Y-82145295D01*
X41333333Y-82145295D02*
X41333333Y-82288152D01*
X41333333Y-82288152D02*
X41285714Y-82383390D01*
X41285714Y-82383390D02*
X41238095Y-82431009D01*
X41238095Y-82431009D02*
X41142857Y-82478628D01*
X41142857Y-82478628D02*
X40761905Y-82478628D01*
X41666667Y-81954819D02*
X42333333Y-81954819D01*
X42333333Y-81954819D02*
X41904762Y-82954819D01*
X82833333Y-71454819D02*
X82500000Y-70978628D01*
X82261905Y-71454819D02*
X82261905Y-70454819D01*
X82261905Y-70454819D02*
X82642857Y-70454819D01*
X82642857Y-70454819D02*
X82738095Y-70502438D01*
X82738095Y-70502438D02*
X82785714Y-70550057D01*
X82785714Y-70550057D02*
X82833333Y-70645295D01*
X82833333Y-70645295D02*
X82833333Y-70788152D01*
X82833333Y-70788152D02*
X82785714Y-70883390D01*
X82785714Y-70883390D02*
X82738095Y-70931009D01*
X82738095Y-70931009D02*
X82642857Y-70978628D01*
X82642857Y-70978628D02*
X82261905Y-70978628D01*
X83214286Y-70550057D02*
X83261905Y-70502438D01*
X83261905Y-70502438D02*
X83357143Y-70454819D01*
X83357143Y-70454819D02*
X83595238Y-70454819D01*
X83595238Y-70454819D02*
X83690476Y-70502438D01*
X83690476Y-70502438D02*
X83738095Y-70550057D01*
X83738095Y-70550057D02*
X83785714Y-70645295D01*
X83785714Y-70645295D02*
X83785714Y-70740533D01*
X83785714Y-70740533D02*
X83738095Y-70883390D01*
X83738095Y-70883390D02*
X83166667Y-71454819D01*
X83166667Y-71454819D02*
X83785714Y-71454819D01*
X69631666Y-58304819D02*
X69631666Y-59019104D01*
X69631666Y-59019104D02*
X69584047Y-59161961D01*
X69584047Y-59161961D02*
X69488809Y-59257200D01*
X69488809Y-59257200D02*
X69345952Y-59304819D01*
X69345952Y-59304819D02*
X69250714Y-59304819D01*
X70107857Y-59304819D02*
X70107857Y-58304819D01*
X70107857Y-58304819D02*
X70488809Y-58304819D01*
X70488809Y-58304819D02*
X70584047Y-58352438D01*
X70584047Y-58352438D02*
X70631666Y-58400057D01*
X70631666Y-58400057D02*
X70679285Y-58495295D01*
X70679285Y-58495295D02*
X70679285Y-58638152D01*
X70679285Y-58638152D02*
X70631666Y-58733390D01*
X70631666Y-58733390D02*
X70584047Y-58781009D01*
X70584047Y-58781009D02*
X70488809Y-58828628D01*
X70488809Y-58828628D02*
X70107857Y-58828628D01*
X71060238Y-58400057D02*
X71107857Y-58352438D01*
X71107857Y-58352438D02*
X71203095Y-58304819D01*
X71203095Y-58304819D02*
X71441190Y-58304819D01*
X71441190Y-58304819D02*
X71536428Y-58352438D01*
X71536428Y-58352438D02*
X71584047Y-58400057D01*
X71584047Y-58400057D02*
X71631666Y-58495295D01*
X71631666Y-58495295D02*
X71631666Y-58590533D01*
X71631666Y-58590533D02*
X71584047Y-58733390D01*
X71584047Y-58733390D02*
X71012619Y-59304819D01*
X71012619Y-59304819D02*
X71631666Y-59304819D01*
X50333333Y-82954819D02*
X50000000Y-82478628D01*
X49761905Y-82954819D02*
X49761905Y-81954819D01*
X49761905Y-81954819D02*
X50142857Y-81954819D01*
X50142857Y-81954819D02*
X50238095Y-82002438D01*
X50238095Y-82002438D02*
X50285714Y-82050057D01*
X50285714Y-82050057D02*
X50333333Y-82145295D01*
X50333333Y-82145295D02*
X50333333Y-82288152D01*
X50333333Y-82288152D02*
X50285714Y-82383390D01*
X50285714Y-82383390D02*
X50238095Y-82431009D01*
X50238095Y-82431009D02*
X50142857Y-82478628D01*
X50142857Y-82478628D02*
X49761905Y-82478628D01*
X50904762Y-82383390D02*
X50809524Y-82335771D01*
X50809524Y-82335771D02*
X50761905Y-82288152D01*
X50761905Y-82288152D02*
X50714286Y-82192914D01*
X50714286Y-82192914D02*
X50714286Y-82145295D01*
X50714286Y-82145295D02*
X50761905Y-82050057D01*
X50761905Y-82050057D02*
X50809524Y-82002438D01*
X50809524Y-82002438D02*
X50904762Y-81954819D01*
X50904762Y-81954819D02*
X51095238Y-81954819D01*
X51095238Y-81954819D02*
X51190476Y-82002438D01*
X51190476Y-82002438D02*
X51238095Y-82050057D01*
X51238095Y-82050057D02*
X51285714Y-82145295D01*
X51285714Y-82145295D02*
X51285714Y-82192914D01*
X51285714Y-82192914D02*
X51238095Y-82288152D01*
X51238095Y-82288152D02*
X51190476Y-82335771D01*
X51190476Y-82335771D02*
X51095238Y-82383390D01*
X51095238Y-82383390D02*
X50904762Y-82383390D01*
X50904762Y-82383390D02*
X50809524Y-82431009D01*
X50809524Y-82431009D02*
X50761905Y-82478628D01*
X50761905Y-82478628D02*
X50714286Y-82573866D01*
X50714286Y-82573866D02*
X50714286Y-82764342D01*
X50714286Y-82764342D02*
X50761905Y-82859580D01*
X50761905Y-82859580D02*
X50809524Y-82907200D01*
X50809524Y-82907200D02*
X50904762Y-82954819D01*
X50904762Y-82954819D02*
X51095238Y-82954819D01*
X51095238Y-82954819D02*
X51190476Y-82907200D01*
X51190476Y-82907200D02*
X51238095Y-82859580D01*
X51238095Y-82859580D02*
X51285714Y-82764342D01*
X51285714Y-82764342D02*
X51285714Y-82573866D01*
X51285714Y-82573866D02*
X51238095Y-82478628D01*
X51238095Y-82478628D02*
X51190476Y-82431009D01*
X51190476Y-82431009D02*
X51095238Y-82383390D01*
X69738095Y-81454819D02*
X69738095Y-82264342D01*
X69738095Y-82264342D02*
X69785714Y-82359580D01*
X69785714Y-82359580D02*
X69833333Y-82407200D01*
X69833333Y-82407200D02*
X69928571Y-82454819D01*
X69928571Y-82454819D02*
X70119047Y-82454819D01*
X70119047Y-82454819D02*
X70214285Y-82407200D01*
X70214285Y-82407200D02*
X70261904Y-82359580D01*
X70261904Y-82359580D02*
X70309523Y-82264342D01*
X70309523Y-82264342D02*
X70309523Y-81454819D01*
X70738095Y-81550057D02*
X70785714Y-81502438D01*
X70785714Y-81502438D02*
X70880952Y-81454819D01*
X70880952Y-81454819D02*
X71119047Y-81454819D01*
X71119047Y-81454819D02*
X71214285Y-81502438D01*
X71214285Y-81502438D02*
X71261904Y-81550057D01*
X71261904Y-81550057D02*
X71309523Y-81645295D01*
X71309523Y-81645295D02*
X71309523Y-81740533D01*
X71309523Y-81740533D02*
X71261904Y-81883390D01*
X71261904Y-81883390D02*
X70690476Y-82454819D01*
X70690476Y-82454819D02*
X71309523Y-82454819D01*
X67148333Y-49304819D02*
X66815000Y-48828628D01*
X66576905Y-49304819D02*
X66576905Y-48304819D01*
X66576905Y-48304819D02*
X66957857Y-48304819D01*
X66957857Y-48304819D02*
X67053095Y-48352438D01*
X67053095Y-48352438D02*
X67100714Y-48400057D01*
X67100714Y-48400057D02*
X67148333Y-48495295D01*
X67148333Y-48495295D02*
X67148333Y-48638152D01*
X67148333Y-48638152D02*
X67100714Y-48733390D01*
X67100714Y-48733390D02*
X67053095Y-48781009D01*
X67053095Y-48781009D02*
X66957857Y-48828628D01*
X66957857Y-48828628D02*
X66576905Y-48828628D01*
X68005476Y-48304819D02*
X67815000Y-48304819D01*
X67815000Y-48304819D02*
X67719762Y-48352438D01*
X67719762Y-48352438D02*
X67672143Y-48400057D01*
X67672143Y-48400057D02*
X67576905Y-48542914D01*
X67576905Y-48542914D02*
X67529286Y-48733390D01*
X67529286Y-48733390D02*
X67529286Y-49114342D01*
X67529286Y-49114342D02*
X67576905Y-49209580D01*
X67576905Y-49209580D02*
X67624524Y-49257200D01*
X67624524Y-49257200D02*
X67719762Y-49304819D01*
X67719762Y-49304819D02*
X67910238Y-49304819D01*
X67910238Y-49304819D02*
X68005476Y-49257200D01*
X68005476Y-49257200D02*
X68053095Y-49209580D01*
X68053095Y-49209580D02*
X68100714Y-49114342D01*
X68100714Y-49114342D02*
X68100714Y-48876247D01*
X68100714Y-48876247D02*
X68053095Y-48781009D01*
X68053095Y-48781009D02*
X68005476Y-48733390D01*
X68005476Y-48733390D02*
X67910238Y-48685771D01*
X67910238Y-48685771D02*
X67719762Y-48685771D01*
X67719762Y-48685771D02*
X67624524Y-48733390D01*
X67624524Y-48733390D02*
X67576905Y-48781009D01*
X67576905Y-48781009D02*
X67529286Y-48876247D01*
X81238095Y-49204819D02*
X81809523Y-49204819D01*
X81523809Y-50204819D02*
X81523809Y-49204819D01*
X82142857Y-50204819D02*
X82142857Y-49204819D01*
X82142857Y-49204819D02*
X82523809Y-49204819D01*
X82523809Y-49204819D02*
X82619047Y-49252438D01*
X82619047Y-49252438D02*
X82666666Y-49300057D01*
X82666666Y-49300057D02*
X82714285Y-49395295D01*
X82714285Y-49395295D02*
X82714285Y-49538152D01*
X82714285Y-49538152D02*
X82666666Y-49633390D01*
X82666666Y-49633390D02*
X82619047Y-49681009D01*
X82619047Y-49681009D02*
X82523809Y-49728628D01*
X82523809Y-49728628D02*
X82142857Y-49728628D01*
X83666666Y-50204819D02*
X83095238Y-50204819D01*
X83380952Y-50204819D02*
X83380952Y-49204819D01*
X83380952Y-49204819D02*
X83285714Y-49347676D01*
X83285714Y-49347676D02*
X83190476Y-49442914D01*
X83190476Y-49442914D02*
X83095238Y-49490533D01*
X70298333Y-49304819D02*
X69965000Y-48828628D01*
X69726905Y-49304819D02*
X69726905Y-48304819D01*
X69726905Y-48304819D02*
X70107857Y-48304819D01*
X70107857Y-48304819D02*
X70203095Y-48352438D01*
X70203095Y-48352438D02*
X70250714Y-48400057D01*
X70250714Y-48400057D02*
X70298333Y-48495295D01*
X70298333Y-48495295D02*
X70298333Y-48638152D01*
X70298333Y-48638152D02*
X70250714Y-48733390D01*
X70250714Y-48733390D02*
X70203095Y-48781009D01*
X70203095Y-48781009D02*
X70107857Y-48828628D01*
X70107857Y-48828628D02*
X69726905Y-48828628D01*
X71203095Y-48304819D02*
X70726905Y-48304819D01*
X70726905Y-48304819D02*
X70679286Y-48781009D01*
X70679286Y-48781009D02*
X70726905Y-48733390D01*
X70726905Y-48733390D02*
X70822143Y-48685771D01*
X70822143Y-48685771D02*
X71060238Y-48685771D01*
X71060238Y-48685771D02*
X71155476Y-48733390D01*
X71155476Y-48733390D02*
X71203095Y-48781009D01*
X71203095Y-48781009D02*
X71250714Y-48876247D01*
X71250714Y-48876247D02*
X71250714Y-49114342D01*
X71250714Y-49114342D02*
X71203095Y-49209580D01*
X71203095Y-49209580D02*
X71155476Y-49257200D01*
X71155476Y-49257200D02*
X71060238Y-49304819D01*
X71060238Y-49304819D02*
X70822143Y-49304819D01*
X70822143Y-49304819D02*
X70726905Y-49257200D01*
X70726905Y-49257200D02*
X70679286Y-49209580D01*
X45666666Y-57954819D02*
X45666666Y-58669104D01*
X45666666Y-58669104D02*
X45619047Y-58811961D01*
X45619047Y-58811961D02*
X45523809Y-58907200D01*
X45523809Y-58907200D02*
X45380952Y-58954819D01*
X45380952Y-58954819D02*
X45285714Y-58954819D01*
X46619047Y-57954819D02*
X46142857Y-57954819D01*
X46142857Y-57954819D02*
X46095238Y-58431009D01*
X46095238Y-58431009D02*
X46142857Y-58383390D01*
X46142857Y-58383390D02*
X46238095Y-58335771D01*
X46238095Y-58335771D02*
X46476190Y-58335771D01*
X46476190Y-58335771D02*
X46571428Y-58383390D01*
X46571428Y-58383390D02*
X46619047Y-58431009D01*
X46619047Y-58431009D02*
X46666666Y-58526247D01*
X46666666Y-58526247D02*
X46666666Y-58764342D01*
X46666666Y-58764342D02*
X46619047Y-58859580D01*
X46619047Y-58859580D02*
X46571428Y-58907200D01*
X46571428Y-58907200D02*
X46476190Y-58954819D01*
X46476190Y-58954819D02*
X46238095Y-58954819D01*
X46238095Y-58954819D02*
X46142857Y-58907200D01*
X46142857Y-58907200D02*
X46095238Y-58859580D01*
X48233095Y-56059819D02*
X48233095Y-56869342D01*
X48233095Y-56869342D02*
X48280714Y-56964580D01*
X48280714Y-56964580D02*
X48328333Y-57012200D01*
X48328333Y-57012200D02*
X48423571Y-57059819D01*
X48423571Y-57059819D02*
X48614047Y-57059819D01*
X48614047Y-57059819D02*
X48709285Y-57012200D01*
X48709285Y-57012200D02*
X48756904Y-56964580D01*
X48756904Y-56964580D02*
X48804523Y-56869342D01*
X48804523Y-56869342D02*
X48804523Y-56059819D01*
X49185476Y-56059819D02*
X49804523Y-56059819D01*
X49804523Y-56059819D02*
X49471190Y-56440771D01*
X49471190Y-56440771D02*
X49614047Y-56440771D01*
X49614047Y-56440771D02*
X49709285Y-56488390D01*
X49709285Y-56488390D02*
X49756904Y-56536009D01*
X49756904Y-56536009D02*
X49804523Y-56631247D01*
X49804523Y-56631247D02*
X49804523Y-56869342D01*
X49804523Y-56869342D02*
X49756904Y-56964580D01*
X49756904Y-56964580D02*
X49709285Y-57012200D01*
X49709285Y-57012200D02*
X49614047Y-57059819D01*
X49614047Y-57059819D02*
X49328333Y-57059819D01*
X49328333Y-57059819D02*
X49233095Y-57012200D01*
X49233095Y-57012200D02*
X49185476Y-56964580D01*
X78238095Y-49204819D02*
X78809523Y-49204819D01*
X78523809Y-50204819D02*
X78523809Y-49204819D01*
X79142857Y-50204819D02*
X79142857Y-49204819D01*
X79142857Y-49204819D02*
X79523809Y-49204819D01*
X79523809Y-49204819D02*
X79619047Y-49252438D01*
X79619047Y-49252438D02*
X79666666Y-49300057D01*
X79666666Y-49300057D02*
X79714285Y-49395295D01*
X79714285Y-49395295D02*
X79714285Y-49538152D01*
X79714285Y-49538152D02*
X79666666Y-49633390D01*
X79666666Y-49633390D02*
X79619047Y-49681009D01*
X79619047Y-49681009D02*
X79523809Y-49728628D01*
X79523809Y-49728628D02*
X79142857Y-49728628D01*
X80095238Y-49300057D02*
X80142857Y-49252438D01*
X80142857Y-49252438D02*
X80238095Y-49204819D01*
X80238095Y-49204819D02*
X80476190Y-49204819D01*
X80476190Y-49204819D02*
X80571428Y-49252438D01*
X80571428Y-49252438D02*
X80619047Y-49300057D01*
X80619047Y-49300057D02*
X80666666Y-49395295D01*
X80666666Y-49395295D02*
X80666666Y-49490533D01*
X80666666Y-49490533D02*
X80619047Y-49633390D01*
X80619047Y-49633390D02*
X80047619Y-50204819D01*
X80047619Y-50204819D02*
X80666666Y-50204819D01*
X73298333Y-49304819D02*
X72965000Y-48828628D01*
X72726905Y-49304819D02*
X72726905Y-48304819D01*
X72726905Y-48304819D02*
X73107857Y-48304819D01*
X73107857Y-48304819D02*
X73203095Y-48352438D01*
X73203095Y-48352438D02*
X73250714Y-48400057D01*
X73250714Y-48400057D02*
X73298333Y-48495295D01*
X73298333Y-48495295D02*
X73298333Y-48638152D01*
X73298333Y-48638152D02*
X73250714Y-48733390D01*
X73250714Y-48733390D02*
X73203095Y-48781009D01*
X73203095Y-48781009D02*
X73107857Y-48828628D01*
X73107857Y-48828628D02*
X72726905Y-48828628D01*
X74155476Y-48638152D02*
X74155476Y-49304819D01*
X73917381Y-48257200D02*
X73679286Y-48971485D01*
X73679286Y-48971485D02*
X74298333Y-48971485D01*
X35454819Y-55333333D02*
X36169104Y-55333333D01*
X36169104Y-55333333D02*
X36311961Y-55380952D01*
X36311961Y-55380952D02*
X36407200Y-55476190D01*
X36407200Y-55476190D02*
X36454819Y-55619047D01*
X36454819Y-55619047D02*
X36454819Y-55714285D01*
X35454819Y-54952380D02*
X35454819Y-54333333D01*
X35454819Y-54333333D02*
X35835771Y-54666666D01*
X35835771Y-54666666D02*
X35835771Y-54523809D01*
X35835771Y-54523809D02*
X35883390Y-54428571D01*
X35883390Y-54428571D02*
X35931009Y-54380952D01*
X35931009Y-54380952D02*
X36026247Y-54333333D01*
X36026247Y-54333333D02*
X36264342Y-54333333D01*
X36264342Y-54333333D02*
X36359580Y-54380952D01*
X36359580Y-54380952D02*
X36407200Y-54428571D01*
X36407200Y-54428571D02*
X36454819Y-54523809D01*
X36454819Y-54523809D02*
X36454819Y-54809523D01*
X36454819Y-54809523D02*
X36407200Y-54904761D01*
X36407200Y-54904761D02*
X36359580Y-54952380D01*
X72631666Y-58154819D02*
X72631666Y-58869104D01*
X72631666Y-58869104D02*
X72584047Y-59011961D01*
X72584047Y-59011961D02*
X72488809Y-59107200D01*
X72488809Y-59107200D02*
X72345952Y-59154819D01*
X72345952Y-59154819D02*
X72250714Y-59154819D01*
X73107857Y-59154819D02*
X73107857Y-58154819D01*
X73107857Y-58154819D02*
X73488809Y-58154819D01*
X73488809Y-58154819D02*
X73584047Y-58202438D01*
X73584047Y-58202438D02*
X73631666Y-58250057D01*
X73631666Y-58250057D02*
X73679285Y-58345295D01*
X73679285Y-58345295D02*
X73679285Y-58488152D01*
X73679285Y-58488152D02*
X73631666Y-58583390D01*
X73631666Y-58583390D02*
X73584047Y-58631009D01*
X73584047Y-58631009D02*
X73488809Y-58678628D01*
X73488809Y-58678628D02*
X73107857Y-58678628D01*
X74012619Y-58154819D02*
X74631666Y-58154819D01*
X74631666Y-58154819D02*
X74298333Y-58535771D01*
X74298333Y-58535771D02*
X74441190Y-58535771D01*
X74441190Y-58535771D02*
X74536428Y-58583390D01*
X74536428Y-58583390D02*
X74584047Y-58631009D01*
X74584047Y-58631009D02*
X74631666Y-58726247D01*
X74631666Y-58726247D02*
X74631666Y-58964342D01*
X74631666Y-58964342D02*
X74584047Y-59059580D01*
X74584047Y-59059580D02*
X74536428Y-59107200D01*
X74536428Y-59107200D02*
X74441190Y-59154819D01*
X74441190Y-59154819D02*
X74155476Y-59154819D01*
X74155476Y-59154819D02*
X74060238Y-59107200D01*
X74060238Y-59107200D02*
X74012619Y-59059580D01*
X78666666Y-82609819D02*
X78666666Y-83324104D01*
X78666666Y-83324104D02*
X78619047Y-83466961D01*
X78619047Y-83466961D02*
X78523809Y-83562200D01*
X78523809Y-83562200D02*
X78380952Y-83609819D01*
X78380952Y-83609819D02*
X78285714Y-83609819D01*
X79571428Y-82943152D02*
X79571428Y-83609819D01*
X79333333Y-82562200D02*
X79095238Y-83276485D01*
X79095238Y-83276485D02*
X79714285Y-83276485D01*
X35454819Y-67833333D02*
X36169104Y-67833333D01*
X36169104Y-67833333D02*
X36311961Y-67880952D01*
X36311961Y-67880952D02*
X36407200Y-67976190D01*
X36407200Y-67976190D02*
X36454819Y-68119047D01*
X36454819Y-68119047D02*
X36454819Y-68214285D01*
X35550057Y-67404761D02*
X35502438Y-67357142D01*
X35502438Y-67357142D02*
X35454819Y-67261904D01*
X35454819Y-67261904D02*
X35454819Y-67023809D01*
X35454819Y-67023809D02*
X35502438Y-66928571D01*
X35502438Y-66928571D02*
X35550057Y-66880952D01*
X35550057Y-66880952D02*
X35645295Y-66833333D01*
X35645295Y-66833333D02*
X35740533Y-66833333D01*
X35740533Y-66833333D02*
X35883390Y-66880952D01*
X35883390Y-66880952D02*
X36454819Y-67452380D01*
X36454819Y-67452380D02*
X36454819Y-66833333D01*
X78833333Y-71454819D02*
X78500000Y-70978628D01*
X78261905Y-71454819D02*
X78261905Y-70454819D01*
X78261905Y-70454819D02*
X78642857Y-70454819D01*
X78642857Y-70454819D02*
X78738095Y-70502438D01*
X78738095Y-70502438D02*
X78785714Y-70550057D01*
X78785714Y-70550057D02*
X78833333Y-70645295D01*
X78833333Y-70645295D02*
X78833333Y-70788152D01*
X78833333Y-70788152D02*
X78785714Y-70883390D01*
X78785714Y-70883390D02*
X78738095Y-70931009D01*
X78738095Y-70931009D02*
X78642857Y-70978628D01*
X78642857Y-70978628D02*
X78261905Y-70978628D01*
X79166667Y-70454819D02*
X79785714Y-70454819D01*
X79785714Y-70454819D02*
X79452381Y-70835771D01*
X79452381Y-70835771D02*
X79595238Y-70835771D01*
X79595238Y-70835771D02*
X79690476Y-70883390D01*
X79690476Y-70883390D02*
X79738095Y-70931009D01*
X79738095Y-70931009D02*
X79785714Y-71026247D01*
X79785714Y-71026247D02*
X79785714Y-71264342D01*
X79785714Y-71264342D02*
X79738095Y-71359580D01*
X79738095Y-71359580D02*
X79690476Y-71407200D01*
X79690476Y-71407200D02*
X79595238Y-71454819D01*
X79595238Y-71454819D02*
X79309524Y-71454819D01*
X79309524Y-71454819D02*
X79214286Y-71407200D01*
X79214286Y-71407200D02*
X79166667Y-71359580D01*
%TO.C,JP1*%
D11*
X66315000Y-56900000D02*
X66315000Y-55500000D01*
X67015000Y-54800000D02*
X67615000Y-54800000D01*
X67615000Y-57600000D02*
X67015000Y-57600000D01*
X68315000Y-55500000D02*
X68315000Y-56900000D01*
X66315000Y-55500000D02*
G75*
G02*
X67015000Y-54800000I699999J1D01*
G01*
X67015000Y-57600000D02*
G75*
G02*
X66315000Y-56900000I0J700000D01*
G01*
X67615000Y-54800000D02*
G75*
G02*
X68315000Y-55500000I1J-699999D01*
G01*
X68315000Y-56900000D02*
G75*
G02*
X67615000Y-57600000I-700000J0D01*
G01*
%TO.C,R1*%
X56727064Y-53765000D02*
X56272936Y-53765000D01*
X56727064Y-55235000D02*
X56272936Y-55235000D01*
%TO.C,U1*%
X56750000Y-56740000D02*
X56750000Y-82260000D01*
X56750000Y-82260000D02*
X61250000Y-82260000D01*
X58000000Y-56740000D02*
X56750000Y-56740000D01*
X61250000Y-56740000D02*
X60000000Y-56740000D01*
X61250000Y-82260000D02*
X61250000Y-56740000D01*
X53750000Y-56680000D02*
X64250000Y-56680000D01*
X64250000Y-82320000D01*
X53750000Y-82320000D01*
X53750000Y-56680000D01*
X60000000Y-56740000D02*
G75*
G02*
X58000000Y-56740000I-1000000J0D01*
G01*
%TO.C,RN1*%
X50810000Y-61230000D02*
X48190000Y-61230000D01*
X48190000Y-58610000D02*
X50810000Y-58610000D01*
X50810000Y-76550000D01*
X48190000Y-76550000D01*
X48190000Y-58610000D01*
%TO.C,J1*%
X77250000Y-57700000D02*
X77250000Y-63250000D01*
X77250000Y-68800000D02*
X77250000Y-63250000D01*
X80200000Y-56950000D02*
X80200000Y-57700000D01*
X80200000Y-57700000D02*
X77250000Y-57700000D01*
X80200000Y-68800000D02*
X77250000Y-68800000D01*
X80200000Y-69550000D02*
X80200000Y-68800000D01*
X82750000Y-56650000D02*
X81500000Y-56650000D01*
X82750000Y-57900000D02*
X82750000Y-56650000D01*
X81700000Y-56950000D02*
X82450000Y-56950000D01*
X82450000Y-58750000D01*
X81700000Y-58750000D01*
X81700000Y-56950000D01*
X81700000Y-60250000D02*
X82450000Y-60250000D01*
X82450000Y-66250000D01*
X81700000Y-66250000D01*
X81700000Y-60250000D01*
X81700000Y-67750000D02*
X82450000Y-67750000D01*
X82450000Y-69550000D01*
X81700000Y-69550000D01*
X81700000Y-67750000D01*
X76490000Y-56940000D02*
X82460000Y-56940000D01*
X82460000Y-69560000D01*
X76490000Y-69560000D01*
X76490000Y-56940000D01*
%TO.C,R7*%
X40765000Y-80227064D02*
X40765000Y-79772936D01*
X42235000Y-80227064D02*
X42235000Y-79772936D01*
%TO.C,R2*%
X80265000Y-72227064D02*
X80265000Y-71772936D01*
X81735000Y-72227064D02*
X81735000Y-71772936D01*
%TO.C,JP2*%
X69315000Y-56900000D02*
X69315000Y-55500000D01*
X70015000Y-54800000D02*
X70615000Y-54800000D01*
X70615000Y-57600000D02*
X70015000Y-57600000D01*
X71315000Y-55500000D02*
X71315000Y-56900000D01*
X69315000Y-55500000D02*
G75*
G02*
X70015000Y-54800000I699999J1D01*
G01*
X70015000Y-57600000D02*
G75*
G02*
X69315000Y-56900000I0J700000D01*
G01*
X70615000Y-54800000D02*
G75*
G02*
X71315000Y-55500000I1J-699999D01*
G01*
X71315000Y-56900000D02*
G75*
G02*
X70615000Y-57600000I-700000J0D01*
G01*
%TO.C,R8*%
X49765000Y-80227064D02*
X49765000Y-79772936D01*
X51235000Y-80227064D02*
X51235000Y-79772936D01*
%TO.C,U2*%
X67855000Y-60280000D02*
X67855000Y-80720000D01*
X67855000Y-80720000D02*
X73155000Y-80720000D01*
X69505000Y-60280000D02*
X67855000Y-60280000D01*
X73155000Y-60280000D02*
X71505000Y-60280000D01*
X73155000Y-80720000D02*
X73155000Y-60280000D01*
X71505000Y-60280000D02*
G75*
G02*
X69505000Y-60280000I-1000000J0D01*
G01*
%TO.C,R6*%
X66580000Y-51122936D02*
X66580000Y-51577064D01*
X68050000Y-51122936D02*
X68050000Y-51577064D01*
%TO.C,TP1*%
X78900000Y-50800000D02*
X83100000Y-50800000D01*
X83100000Y-53200000D01*
X78900000Y-53200000D01*
X78900000Y-50800000D01*
%TO.C,R5*%
X69730000Y-51122936D02*
X69730000Y-51577064D01*
X71200000Y-51122936D02*
X71200000Y-51577064D01*
%TO.C,J5*%
X44620000Y-59500000D02*
X46000000Y-59500000D01*
X44620000Y-60880000D02*
X44620000Y-59500000D01*
X44620000Y-62150000D02*
X44620000Y-80040000D01*
X44620000Y-62150000D02*
X47380000Y-62150000D01*
X44620000Y-80040000D02*
X47380000Y-80040000D01*
X47380000Y-62150000D02*
X47380000Y-80040000D01*
%TO.C,U3*%
X46345000Y-50405000D02*
X46345000Y-55605000D01*
X46345000Y-55605000D02*
X47995000Y-55605000D01*
X49995000Y-55605000D02*
X51645000Y-55605000D01*
X51645000Y-50405000D02*
X46345000Y-50405000D01*
X51645000Y-55605000D02*
X51645000Y-50405000D01*
X47995000Y-55605000D02*
G75*
G02*
X49995000Y-55605000I1000000J0D01*
G01*
%TO.C,TP2*%
X78900000Y-50800000D02*
X83100000Y-50800000D01*
X83100000Y-53200000D01*
X78900000Y-53200000D01*
X78900000Y-50800000D01*
%TO.C,R4*%
X72730000Y-51122936D02*
X72730000Y-51577064D01*
X74200000Y-51122936D02*
X74200000Y-51577064D01*
%TO.C,J3*%
X37775000Y-49950000D02*
X37775000Y-53000000D01*
X37775000Y-56050000D02*
X37775000Y-53000000D01*
X40725000Y-49200000D02*
X40725000Y-49950000D01*
X40725000Y-49950000D02*
X37775000Y-49950000D01*
X40725000Y-56050000D02*
X37775000Y-56050000D01*
X40725000Y-56800000D02*
X40725000Y-56050000D01*
X43275000Y-48900000D02*
X42025000Y-48900000D01*
X43275000Y-50150000D02*
X43275000Y-48900000D01*
X42225000Y-49200000D02*
X42975000Y-49200000D01*
X42975000Y-51000000D01*
X42225000Y-51000000D01*
X42225000Y-49200000D01*
X42225000Y-52500000D02*
X42975000Y-52500000D01*
X42975000Y-53500000D01*
X42225000Y-53500000D01*
X42225000Y-52500000D01*
X42225000Y-55000000D02*
X42975000Y-55000000D01*
X42975000Y-56800000D01*
X42225000Y-56800000D01*
X42225000Y-55000000D01*
X37015000Y-49190000D02*
X42985000Y-49190000D01*
X42985000Y-56810000D01*
X37015000Y-56810000D01*
X37015000Y-49190000D01*
%TO.C,JP3*%
X72315000Y-56900000D02*
X72315000Y-55500000D01*
X73015000Y-54800000D02*
X73615000Y-54800000D01*
X73615000Y-57600000D02*
X73015000Y-57600000D01*
X74315000Y-55500000D02*
X74315000Y-56900000D01*
X72315000Y-55500000D02*
G75*
G02*
X73015000Y-54800000I699999J1D01*
G01*
X73015000Y-57600000D02*
G75*
G02*
X72315000Y-56900000I0J700000D01*
G01*
X73615000Y-54800000D02*
G75*
G02*
X74315000Y-55500000I1J-699999D01*
G01*
X74315000Y-56900000D02*
G75*
G02*
X73615000Y-57600000I-700000J0D01*
G01*
%TO.C,J4*%
X77620000Y-79505000D02*
X77620000Y-76855000D01*
X80380000Y-76855000D02*
X77620000Y-76855000D01*
X80380000Y-79505000D02*
X77620000Y-79505000D01*
X80380000Y-79505000D02*
X80380000Y-76855000D01*
X80380000Y-80775000D02*
X80380000Y-82155000D01*
X80380000Y-82155000D02*
X79000000Y-82155000D01*
%TO.C,J2*%
X37750000Y-59200000D02*
X37750000Y-67250000D01*
X37750000Y-75300000D02*
X37750000Y-67250000D01*
X40700000Y-58450000D02*
X40700000Y-59200000D01*
X40700000Y-59200000D02*
X37750000Y-59200000D01*
X40700000Y-75300000D02*
X37750000Y-75300000D01*
X40700000Y-76050000D02*
X40700000Y-75300000D01*
X43250000Y-58150000D02*
X42000000Y-58150000D01*
X43250000Y-59400000D02*
X43250000Y-58150000D01*
X42200000Y-58450000D02*
X42950000Y-58450000D01*
X42950000Y-60250000D01*
X42200000Y-60250000D01*
X42200000Y-58450000D01*
X42200000Y-61750000D02*
X42950000Y-61750000D01*
X42950000Y-72750000D01*
X42200000Y-72750000D01*
X42200000Y-61750000D01*
X42200000Y-74250000D02*
X42950000Y-74250000D01*
X42950000Y-76050000D01*
X42200000Y-76050000D01*
X42200000Y-74250000D01*
X36990000Y-58440000D02*
X42960000Y-58440000D01*
X42960000Y-76060000D01*
X36990000Y-76060000D01*
X36990000Y-58440000D01*
%TO.C,R3*%
X76265000Y-72227064D02*
X76265000Y-71772936D01*
X77735000Y-72227064D02*
X77735000Y-71772936D01*
%TD*%
%LPC*%
%TO.C,JP1*%
G36*
X66565000Y-56050000D02*
G01*
X68065000Y-56050000D01*
X68065000Y-56350000D01*
X66565000Y-56350000D01*
X66565000Y-56050000D01*
G37*
%TO.C,JP2*%
G36*
X69565000Y-56050000D02*
G01*
X71065000Y-56050000D01*
X71065000Y-56350000D01*
X69565000Y-56350000D01*
X69565000Y-56050000D01*
G37*
%TO.C,JP3*%
G36*
X72565000Y-56050000D02*
G01*
X74065000Y-56050000D01*
X74065000Y-56350000D01*
X72565000Y-56350000D01*
X72565000Y-56050000D01*
G37*
%TD*%
D12*
%TO.C,JP1*%
X67315000Y-55550000D03*
D13*
X67315000Y-56850000D03*
%TD*%
D14*
%TO.C,R1*%
X57500000Y-54500000D03*
X55500000Y-54500000D03*
%TD*%
D15*
%TO.C,U1*%
X55190000Y-58070000D03*
D16*
X55190000Y-60610000D03*
X55190000Y-63150000D03*
X55190000Y-65690000D03*
X55190000Y-68230000D03*
X55190000Y-70770000D03*
X55190000Y-73310000D03*
X55190000Y-75850000D03*
X55190000Y-78390000D03*
X55190000Y-80930000D03*
X62810000Y-80930000D03*
X62810000Y-78390000D03*
X62810000Y-75850000D03*
X62810000Y-73310000D03*
X62810000Y-70770000D03*
X62810000Y-68230000D03*
X62810000Y-65690000D03*
X62810000Y-63150000D03*
X62810000Y-60610000D03*
X62810000Y-58070000D03*
%TD*%
D17*
%TO.C,RN1*%
X49500000Y-59960000D03*
D18*
X49500000Y-62500000D03*
X49500000Y-65040000D03*
X49500000Y-67580000D03*
X49500000Y-70120000D03*
X49500000Y-72660000D03*
X49500000Y-75200000D03*
%TD*%
D19*
%TO.C,J1*%
X80000000Y-59500000D03*
D20*
X80000000Y-62000000D03*
X80000000Y-64500000D03*
X80000000Y-67000000D03*
%TD*%
D21*
%TO.C,R7*%
X41500000Y-81000000D03*
X41500000Y-79000000D03*
%TD*%
%TO.C,R2*%
X81000000Y-73000000D03*
X81000000Y-71000000D03*
%TD*%
D12*
%TO.C,JP2*%
X70315000Y-55550000D03*
D13*
X70315000Y-56850000D03*
%TD*%
D21*
%TO.C,R8*%
X50500000Y-81000000D03*
X50500000Y-79000000D03*
%TD*%
D22*
%TO.C,U2*%
X66695000Y-61610000D03*
D18*
X66695000Y-64150000D03*
X66695000Y-66690000D03*
X66695000Y-69230000D03*
X66695000Y-71770000D03*
X66695000Y-74310000D03*
X66695000Y-76850000D03*
X66695000Y-79390000D03*
X74315000Y-79390000D03*
X74315000Y-76850000D03*
X74315000Y-74310000D03*
X74315000Y-71770000D03*
X74315000Y-69230000D03*
X74315000Y-66690000D03*
X74315000Y-64150000D03*
X74315000Y-61610000D03*
%TD*%
D23*
%TO.C,R6*%
X67315000Y-50350000D03*
X67315000Y-52350000D03*
%TD*%
D24*
%TO.C,TP1*%
X81000000Y-52000000D03*
%TD*%
D23*
%TO.C,R5*%
X70465000Y-50350000D03*
X70465000Y-52350000D03*
%TD*%
D25*
%TO.C,J5*%
X46000000Y-60880000D03*
D26*
X46000000Y-63420000D03*
X46000000Y-65960000D03*
X46000000Y-68500000D03*
X46000000Y-71040000D03*
X46000000Y-73580000D03*
X46000000Y-76120000D03*
X46000000Y-78660000D03*
%TD*%
D27*
%TO.C,U3*%
X52805000Y-54275000D03*
D18*
X52805000Y-51735000D03*
X45185000Y-51735000D03*
X45185000Y-54275000D03*
%TD*%
D24*
%TO.C,TP2*%
X81000000Y-52000000D03*
%TD*%
D23*
%TO.C,R4*%
X73465000Y-50350000D03*
X73465000Y-52350000D03*
%TD*%
D28*
%TO.C,J3*%
X40525000Y-51750000D03*
D29*
X40525000Y-54250000D03*
%TD*%
D12*
%TO.C,JP3*%
X73315000Y-55550000D03*
D13*
X73315000Y-56850000D03*
%TD*%
D25*
%TO.C,J4*%
X79000000Y-80775000D03*
D26*
X79000000Y-78235000D03*
%TD*%
D19*
%TO.C,J2*%
X40500000Y-61000000D03*
D20*
X40500000Y-63500000D03*
X40500000Y-66000000D03*
X40500000Y-68500000D03*
X40500000Y-71000000D03*
X40500000Y-73500000D03*
%TD*%
D21*
%TO.C,R3*%
X77000000Y-73000000D03*
X77000000Y-71000000D03*
%TD*%
%LPD*%
M02*
