%TF.GenerationSoftware,KiCad,Pcbnew,10.0.5*%
%TF.CreationDate,2026-08-24T16:18:58+02:00*%
%TF.ProjectId,Anzeige_Simon,416e7a65-6967-4655-9f53-696d6f6e2e6b,rev?*%
%TF.SameCoordinates,Original*%
%TF.FileFunction,Copper,L1,Top*%
%TF.FilePolarity,Positive*%
%FSLAX46Y46*%
G04 Gerber Fmt 4.6, Leading zero omitted, Abs format (unit mm)*
G04 Created by KiCad (PCBNEW 10.0.5) date 2026-08-24 16:18:58*
%MOMM*%
%LPD*%
G01*
G04 APERTURE LIST*
G04 Aperture macros list*
%AMRoundRect*
0 Rectangle with rounded corners*
0 $1 Rounding radius*
0 $2 $3 $4 $5 $6 $7 $8 $9 X,Y pos of 4 corners*
0 Add a 4 corners polygon primitive as box body*
4,1,4,$2,$3,$4,$5,$6,$7,$8,$9,$2,$3,0*
0 Add four circle primitives for the rounded corners*
1,1,$1+$1,$2,$3*
1,1,$1+$1,$4,$5*
1,1,$1+$1,$6,$7*
1,1,$1+$1,$8,$9*
0 Add four rect primitives between the rounded corners*
20,1,$1+$1,$2,$3,$4,$5,0*
20,1,$1+$1,$4,$5,$6,$7,0*
20,1,$1+$1,$6,$7,$8,$9,0*
20,1,$1+$1,$8,$9,$2,$3,0*%
%AMFreePoly0*
4,1,23,0.500000,-0.750000,0.000000,-0.750000,0.000000,-0.745722,-0.065263,-0.745722,-0.191342,-0.711940,-0.304381,-0.646677,-0.396677,-0.554381,-0.461940,-0.441342,-0.495722,-0.315263,-0.495722,-0.250000,-0.500000,-0.250000,-0.500000,0.250000,-0.495722,0.250000,-0.495722,0.315263,-0.461940,0.441342,-0.396677,0.554381,-0.304381,0.646677,-0.191342,0.711940,-0.065263,0.745722,0.000000,0.745722,
0.000000,0.750000,0.500000,0.750000,0.500000,-0.750000,0.500000,-0.750000,$1*%
%AMFreePoly1*
4,1,23,0.000000,0.745722,0.065263,0.745722,0.191342,0.711940,0.304381,0.646677,0.396677,0.554381,0.461940,0.441342,0.495722,0.315263,0.495722,0.250000,0.500000,0.250000,0.500000,-0.250000,0.495722,-0.250000,0.495722,-0.315263,0.461940,-0.441342,0.396677,-0.554381,0.304381,-0.646677,0.191342,-0.711940,0.065263,-0.745722,0.000000,-0.745722,0.000000,-0.750000,-0.500000,-0.750000,
-0.500000,0.750000,0.000000,0.750000,0.000000,0.745722,0.000000,0.745722,$1*%
G04 Aperture macros list end*
%TA.AperFunction,SMDPad,CuDef*%
%ADD10FreePoly0,270.000000*%
%TD*%
%TA.AperFunction,SMDPad,CuDef*%
%ADD11FreePoly1,270.000000*%
%TD*%
%TA.AperFunction,SMDPad,CuDef*%
%ADD12RoundRect,0.250000X0.350000X0.450000X-0.350000X0.450000X-0.350000X-0.450000X0.350000X-0.450000X0*%
%TD*%
%TA.AperFunction,ComponentPad*%
%ADD13RoundRect,0.250000X-0.950000X-0.550000X0.950000X-0.550000X0.950000X0.550000X-0.950000X0.550000X0*%
%TD*%
%TA.AperFunction,ComponentPad*%
%ADD14O,2.400000X1.600000*%
%TD*%
%TA.AperFunction,ComponentPad*%
%ADD15R,1.600000X1.600000*%
%TD*%
%TA.AperFunction,ComponentPad*%
%ADD16C,1.600000*%
%TD*%
%TA.AperFunction,ComponentPad*%
%ADD17RoundRect,0.250000X-0.725000X0.600000X-0.725000X-0.600000X0.725000X-0.600000X0.725000X0.600000X0*%
%TD*%
%TA.AperFunction,ComponentPad*%
%ADD18O,1.950000X1.700000*%
%TD*%
%TA.AperFunction,SMDPad,CuDef*%
%ADD19RoundRect,0.250000X0.450000X-0.350000X0.450000X0.350000X-0.450000X0.350000X-0.450000X-0.350000X0*%
%TD*%
%TA.AperFunction,ComponentPad*%
%ADD20RoundRect,0.250000X-0.550000X-0.550000X0.550000X-0.550000X0.550000X0.550000X-0.550000X0.550000X0*%
%TD*%
%TA.AperFunction,SMDPad,CuDef*%
%ADD21RoundRect,0.250000X-0.450000X0.350000X-0.450000X-0.350000X0.450000X-0.350000X0.450000X0.350000X0*%
%TD*%
%TA.AperFunction,SMDPad,CuDef*%
%ADD22RoundRect,0.250000X-1.650000X-0.750000X1.650000X-0.750000X1.650000X0.750000X-1.650000X0.750000X0*%
%TD*%
%TA.AperFunction,ComponentPad*%
%ADD23R,1.700000X1.700000*%
%TD*%
%TA.AperFunction,ComponentPad*%
%ADD24C,1.700000*%
%TD*%
%TA.AperFunction,ComponentPad*%
%ADD25RoundRect,0.250000X0.550000X0.550000X-0.550000X0.550000X-0.550000X-0.550000X0.550000X-0.550000X0*%
%TD*%
%TA.AperFunction,ComponentPad*%
%ADD26RoundRect,0.250000X-0.750000X0.600000X-0.750000X-0.600000X0.750000X-0.600000X0.750000X0.600000X0*%
%TD*%
%TA.AperFunction,ComponentPad*%
%ADD27O,2.000000X1.700000*%
%TD*%
%TA.AperFunction,ViaPad*%
%ADD28C,0.600000*%
%TD*%
%TA.AperFunction,Conductor*%
%ADD29C,0.200000*%
%TD*%
%ADD30C,0.300000*%
%ADD31C,0.350000*%
G04 APERTURE END LIST*
D10*
%TO.P,JP1,1,A_1*%
%TO.N,Net-(JP1-A)*%
X67315000Y-55550000D03*
D11*
%TO.P,JP1,2,B_2*%
%TO.N,Net-(JP1-B)*%
X67315000Y-56850000D03*
%TD*%
D12*
%TO.P,R1,1*%
%TO.N,Net-(U1-P=R)*%
X57500000Y-54500000D03*
%TO.P,R1,2*%
%TO.N,Net-(R1-Pad2)*%
X55500000Y-54500000D03*
%TD*%
D13*
%TO.P,U1,1,G_1*%
%TO.N,GND*%
X55190000Y-58070000D03*
D14*
%TO.P,U1,2,P0_2*%
%TO.N,Net-(U1-P0)*%
X55190000Y-60610000D03*
%TO.P,U1,3,R0_3*%
%TO.N,Net-(J2-Pin_1)*%
X55190000Y-63150000D03*
%TO.P,U1,4,P1_4*%
%TO.N,Net-(U1-P1)*%
X55190000Y-65690000D03*
%TO.P,U1,5,R1_5*%
%TO.N,Net-(J2-Pin_2)*%
X55190000Y-68230000D03*
%TO.P,U1,6,P2_6*%
%TO.N,Net-(U1-P2)*%
X55190000Y-70770000D03*
%TO.P,U1,7,R2_7*%
%TO.N,Net-(J2-Pin_3)*%
X55190000Y-73310000D03*
%TO.P,U1,8,P3_8*%
%TO.N,Net-(U1-P3)*%
X55190000Y-75850000D03*
%TO.P,U1,9,R3_9*%
%TO.N,Net-(J2-Pin_4)*%
X55190000Y-78390000D03*
%TO.P,U1,10,GND_10*%
%TO.N,GND*%
X55190000Y-80930000D03*
%TO.P,U1,11,P4_11*%
%TO.N,Net-(U1-P4)*%
X62810000Y-80930000D03*
%TO.P,U1,12,R4_12*%
%TO.N,Net-(J2-Pin_5)*%
X62810000Y-78390000D03*
%TO.P,U1,13,P5_13*%
%TO.N,Net-(U1-P5)*%
X62810000Y-75850000D03*
%TO.P,U1,14,R5_14*%
%TO.N,Net-(J2-Pin_6)*%
X62810000Y-73310000D03*
%TO.P,U1,15,P6_15*%
%TO.N,Net-(U1-P6)*%
X62810000Y-70770000D03*
%TO.P,U1,16,R6_16*%
%TO.N,Net-(J5-Pin_7)*%
X62810000Y-68230000D03*
%TO.P,U1,17,P7_17*%
%TO.N,Net-(U1-P7)*%
X62810000Y-65690000D03*
%TO.P,U1,18,R7_18*%
%TO.N,Net-(J5-Pin_8)*%
X62810000Y-63150000D03*
%TO.P,U1,19,P=R_19*%
%TO.N,Net-(U1-P=R)*%
X62810000Y-60610000D03*
%TO.P,U1,20,VCC_20*%
%TO.N,+5V*%
X62810000Y-58070000D03*
%TD*%
D15*
%TO.P,RN1,1,common_1*%
%TO.N,+5V*%
X49500000Y-59960000D03*
D16*
%TO.P,RN1,2,R1_2*%
%TO.N,Net-(J2-Pin_1)*%
X49500000Y-62500000D03*
%TO.P,RN1,3,R2_3*%
%TO.N,Net-(J2-Pin_2)*%
X49500000Y-65040000D03*
%TO.P,RN1,4,R3_4*%
%TO.N,Net-(J2-Pin_3)*%
X49500000Y-67580000D03*
%TO.P,RN1,5,R4_5*%
%TO.N,Net-(J2-Pin_4)*%
X49500000Y-70120000D03*
%TO.P,RN1,6,R5_6*%
%TO.N,Net-(J2-Pin_5)*%
X49500000Y-72660000D03*
%TO.P,RN1,7,R6_7*%
%TO.N,Net-(J2-Pin_6)*%
X49500000Y-75200000D03*
%TD*%
D17*
%TO.P,J1,1,Pin_1_1*%
%TO.N,GND*%
X80000000Y-59500000D03*
D18*
%TO.P,J1,2,Pin_2_2*%
%TO.N,+5V*%
X80000000Y-62000000D03*
%TO.P,J1,3,Pin_3_3*%
%TO.N,Net-(J1-Pin_3)*%
X80000000Y-64500000D03*
%TO.P,J1,4,Pin_4_4*%
%TO.N,Net-(J1-Pin_4)*%
X80000000Y-67000000D03*
%TD*%
D19*
%TO.P,R7,1*%
%TO.N,+5V*%
X41500000Y-81000000D03*
%TO.P,R7,2*%
%TO.N,Net-(J5-Pin_8)*%
X41500000Y-79000000D03*
%TD*%
%TO.P,R2,1*%
%TO.N,+5V*%
X81000000Y-73000000D03*
%TO.P,R2,2*%
%TO.N,Net-(J1-Pin_4)*%
X81000000Y-71000000D03*
%TD*%
D10*
%TO.P,JP2,1,A_1*%
%TO.N,Net-(JP2-A)*%
X70315000Y-55550000D03*
D11*
%TO.P,JP2,2,B_2*%
%TO.N,Net-(JP2-B)*%
X70315000Y-56850000D03*
%TD*%
D19*
%TO.P,R8,1*%
%TO.N,+5V*%
X50500000Y-81000000D03*
%TO.P,R8,2*%
%TO.N,Net-(J5-Pin_7)*%
X50500000Y-79000000D03*
%TD*%
D20*
%TO.P,U2,1,A0_1*%
%TO.N,Net-(JP1-B)*%
X66695000Y-61610000D03*
D16*
%TO.P,U2,2,A1_2*%
%TO.N,Net-(JP2-B)*%
X66695000Y-64150000D03*
%TO.P,U2,3,A2_3*%
%TO.N,Net-(JP3-B)*%
X66695000Y-66690000D03*
%TO.P,U2,4,P0_4*%
%TO.N,Net-(U1-P0)*%
X66695000Y-69230000D03*
%TO.P,U2,5,P1_5*%
%TO.N,Net-(U1-P1)*%
X66695000Y-71770000D03*
%TO.P,U2,6,P2_6*%
%TO.N,Net-(U1-P2)*%
X66695000Y-74310000D03*
%TO.P,U2,7,P3_7*%
%TO.N,Net-(U1-P3)*%
X66695000Y-76850000D03*
%TO.P,U2,8,GND_8*%
%TO.N,GND*%
X66695000Y-79390000D03*
%TO.P,U2,9,P4_9*%
%TO.N,Net-(U1-P4)*%
X74315000Y-79390000D03*
%TO.P,U2,10,P5_10*%
%TO.N,Net-(U1-P5)*%
X74315000Y-76850000D03*
%TO.P,U2,11,P6_11*%
%TO.N,Net-(U1-P6)*%
X74315000Y-74310000D03*
%TO.P,U2,12,P7_12*%
%TO.N,Net-(U1-P7)*%
X74315000Y-71770000D03*
%TO.P,U2,13,~{INT}_13*%
%TO.N,unconnected-(U2-~{INT}-Pad13)*%
X74315000Y-69230000D03*
%TO.P,U2,14,SCL_14*%
%TO.N,Net-(J1-Pin_4)*%
X74315000Y-66690000D03*
%TO.P,U2,15,SDA_15*%
%TO.N,Net-(J1-Pin_3)*%
X74315000Y-64150000D03*
%TO.P,U2,16,VDD_16*%
%TO.N,+5V*%
X74315000Y-61610000D03*
%TD*%
D21*
%TO.P,R6,1*%
%TO.N,+5V*%
X67315000Y-50350000D03*
%TO.P,R6,2*%
%TO.N,Net-(JP1-A)*%
X67315000Y-52350000D03*
%TD*%
D22*
%TO.P,TP1,1,1_1*%
%TO.N,GND*%
X81000000Y-52000000D03*
%TD*%
D21*
%TO.P,R5,1*%
%TO.N,+5V*%
X70465000Y-50350000D03*
%TO.P,R5,2*%
%TO.N,Net-(JP2-A)*%
X70465000Y-52350000D03*
%TD*%
D23*
%TO.P,J5,1,Pin_1_1*%
%TO.N,Net-(J2-Pin_1)*%
X46000000Y-60880000D03*
D24*
%TO.P,J5,2,Pin_2_2*%
%TO.N,Net-(J2-Pin_2)*%
X46000000Y-63420000D03*
%TO.P,J5,3,Pin_3_3*%
%TO.N,Net-(J2-Pin_3)*%
X46000000Y-65960000D03*
%TO.P,J5,4,Pin_4_4*%
%TO.N,Net-(J2-Pin_4)*%
X46000000Y-68500000D03*
%TO.P,J5,5,Pin_5_5*%
%TO.N,Net-(J2-Pin_5)*%
X46000000Y-71040000D03*
%TO.P,J5,6,Pin_6_6*%
%TO.N,Net-(J2-Pin_6)*%
X46000000Y-73580000D03*
%TO.P,J5,7,Pin_7_7*%
%TO.N,Net-(J5-Pin_7)*%
X46000000Y-76120000D03*
%TO.P,J5,8,Pin_8_8*%
%TO.N,Net-(J5-Pin_8)*%
X46000000Y-78660000D03*
%TD*%
D25*
%TO.P,U3,1*%
%TO.N,Net-(R1-Pad2)*%
X52805000Y-54275000D03*
D16*
%TO.P,U3,2*%
%TO.N,GND*%
X52805000Y-51735000D03*
%TO.P,U3,3*%
X45185000Y-51735000D03*
%TO.P,U3,4*%
%TO.N,Rel Mot*%
X45185000Y-54275000D03*
%TD*%
D22*
%TO.P,TP2,1,1_1*%
%TO.N,GND*%
X81000000Y-52000000D03*
%TD*%
D21*
%TO.P,R4,1*%
%TO.N,+5V*%
X73465000Y-50350000D03*
%TO.P,R4,2*%
%TO.N,Net-(JP3-A)*%
X73465000Y-52350000D03*
%TD*%
D26*
%TO.P,J3,1,Pin_1_1*%
%TO.N,GND*%
X40525000Y-51750000D03*
D27*
%TO.P,J3,2,Pin_2_2*%
%TO.N,Rel Mot*%
X40525000Y-54250000D03*
%TD*%
D10*
%TO.P,JP3,1,A_1*%
%TO.N,Net-(JP3-A)*%
X73315000Y-55550000D03*
D11*
%TO.P,JP3,2,B_2*%
%TO.N,Net-(JP3-B)*%
X73315000Y-56850000D03*
%TD*%
D23*
%TO.P,J4,1,Pin_1_1*%
%TO.N,GND*%
X79000000Y-80775000D03*
D24*
%TO.P,J4,2,Pin_2_2*%
%TO.N,+5V*%
X79000000Y-78235000D03*
%TD*%
D17*
%TO.P,J2,1,Pin_1_1*%
%TO.N,Net-(J2-Pin_1)*%
X40500000Y-61000000D03*
D18*
%TO.P,J2,2,Pin_2_2*%
%TO.N,Net-(J2-Pin_2)*%
X40500000Y-63500000D03*
%TO.P,J2,3,Pin_3_3*%
%TO.N,Net-(J2-Pin_3)*%
X40500000Y-66000000D03*
%TO.P,J2,4,Pin_4_4*%
%TO.N,Net-(J2-Pin_4)*%
X40500000Y-68500000D03*
%TO.P,J2,5,Pin_5_5*%
%TO.N,Net-(J2-Pin_5)*%
X40500000Y-71000000D03*
%TO.P,J2,6,Pin_6_6*%
%TO.N,Net-(J2-Pin_6)*%
X40500000Y-73500000D03*
%TD*%
D19*
%TO.P,R3,1*%
%TO.N,+5V*%
X77000000Y-73000000D03*
%TO.P,R3,2*%
%TO.N,Net-(J1-Pin_3)*%
X77000000Y-71000000D03*
%TD*%
D28*
%TO.N,GND*%
X43500000Y-65000000D03*
X58500000Y-69500000D03*
X57500000Y-64500000D03*
X71500000Y-66000000D03*
X43500000Y-72500000D03*
X43500000Y-67500000D03*
X48500000Y-80000000D03*
X79000000Y-72000000D03*
X43500000Y-62000000D03*
X53000000Y-69000000D03*
X51400000Y-70700000D03*
X70000000Y-71000000D03*
X71000000Y-75000000D03*
X59500000Y-63000000D03*
X69000000Y-61000000D03*
X60500000Y-76000000D03*
X52500000Y-63500000D03*
X57500000Y-73500000D03*
X64500000Y-54000000D03*
X43500000Y-70000000D03*
X59500000Y-78500000D03*
X60500000Y-73500000D03*
X52000000Y-61000000D03*
%TO.N,Net-(J5-Pin_7)*%
X59000000Y-76000000D03*
X59000000Y-74000000D03*
X50500000Y-79000000D03*
%TO.N,+5V*%
X41500000Y-81000000D03*
%TD*%
%TO.N,Net-(JP1-A)*%
D29*
X67315000Y-52350000D02*
X67315000Y-55550000D01*
%TO.N,Net-(JP1-B)*%
X67315000Y-56850000D02*
X66695000Y-57470000D01*
X66695000Y-57470000D02*
X66695000Y-61610000D01*
%TO.N,Net-(U1-P=R)*%
X57500000Y-55300000D02*
X62810000Y-60610000D01*
X57500000Y-54500000D02*
X57500000Y-55300000D01*
%TO.N,Net-(R1-Pad2)*%
X52805000Y-54275000D02*
X55275000Y-54275000D01*
X55275000Y-54275000D02*
X55500000Y-54500000D01*
%TO.N,Net-(U1-P0)*%
X55190000Y-60610000D02*
X61710000Y-67130000D01*
X64595000Y-67130000D02*
X66695000Y-69230000D01*
X61710000Y-67130000D02*
X64595000Y-67130000D01*
%TO.N,Net-(J2-Pin_1)*%
X48500000Y-61500000D02*
X49500000Y-62500000D01*
X45880000Y-61000000D02*
X46000000Y-60880000D01*
X47500000Y-61500000D02*
X48500000Y-61500000D01*
X40500000Y-61000000D02*
X45880000Y-61000000D01*
X46880000Y-60880000D02*
X47500000Y-61500000D01*
X46000000Y-60880000D02*
X46880000Y-60880000D01*
X49500000Y-62500000D02*
X54540000Y-62500000D01*
X54540000Y-62500000D02*
X55190000Y-63150000D01*
%TO.N,Net-(U1-P1)*%
X64425000Y-69500000D02*
X66695000Y-71770000D01*
X57690000Y-65690000D02*
X61500000Y-69500000D01*
X61500000Y-69500000D02*
X64425000Y-69500000D01*
X55190000Y-65690000D02*
X57690000Y-65690000D01*
%TO.N,Net-(J2-Pin_2)*%
X49500000Y-65040000D02*
X52000000Y-65040000D01*
X47920000Y-63420000D02*
X48500000Y-64000000D01*
X45920000Y-63500000D02*
X46000000Y-63420000D01*
X48500000Y-64040000D02*
X49500000Y-65040000D01*
X52000000Y-65040000D02*
X55190000Y-68230000D01*
X40500000Y-63500000D02*
X45920000Y-63500000D01*
X55190000Y-68190000D02*
X55190000Y-68230000D01*
X48500000Y-64000000D02*
X48500000Y-64040000D01*
X46000000Y-63420000D02*
X47920000Y-63420000D01*
%TO.N,Net-(U1-P2)*%
X56630000Y-72210000D02*
X64595000Y-72210000D01*
X64595000Y-72210000D02*
X66695000Y-74310000D01*
X55190000Y-70770000D02*
X56630000Y-72210000D01*
%TO.N,Net-(J2-Pin_3)*%
X47920000Y-66000000D02*
X49500000Y-67580000D01*
X46040000Y-66000000D02*
X47920000Y-66000000D01*
X45960000Y-66000000D02*
X46000000Y-65960000D01*
X46000000Y-65960000D02*
X46040000Y-66000000D01*
X40500000Y-66000000D02*
X45960000Y-66000000D01*
X49500000Y-67580000D02*
X55190000Y-73270000D01*
X55190000Y-73270000D02*
X55190000Y-73310000D01*
%TO.N,Net-(U1-P3)*%
X66595000Y-76950000D02*
X66695000Y-76850000D01*
X55190000Y-75850000D02*
X56290000Y-76950000D01*
X56290000Y-76950000D02*
X66595000Y-76950000D01*
%TO.N,Net-(J2-Pin_4)*%
X47880000Y-68500000D02*
X49500000Y-70120000D01*
X46000000Y-68500000D02*
X47880000Y-68500000D01*
X53690000Y-74310000D02*
X53690000Y-76890000D01*
X40500000Y-68500000D02*
X46000000Y-68500000D01*
X53690000Y-76890000D02*
X55190000Y-78390000D01*
X49500000Y-70120000D02*
X53690000Y-74310000D01*
%TO.N,Net-(U1-P4)*%
X62810000Y-80930000D02*
X72775000Y-80930000D01*
X72775000Y-80930000D02*
X74315000Y-79390000D01*
%TO.N,Net-(J2-Pin_5)*%
X49160000Y-72660000D02*
X49500000Y-72660000D01*
X53500000Y-78655635D02*
X54334365Y-79490000D01*
X53290000Y-74500000D02*
X53290000Y-77055686D01*
X49500000Y-72660000D02*
X47880000Y-71040000D01*
X40500000Y-71000000D02*
X45960000Y-71000000D01*
X53290000Y-77055686D02*
X53500000Y-77265685D01*
X54334365Y-79490000D02*
X61710000Y-79490000D01*
X49500000Y-72660000D02*
X51450000Y-72660000D01*
X53500000Y-77265685D02*
X53500000Y-78655635D01*
X49500000Y-72660000D02*
X49500000Y-73265685D01*
X47880000Y-71040000D02*
X46000000Y-71040000D01*
X51450000Y-72660000D02*
X53290000Y-74500000D01*
X61710000Y-79490000D02*
X62810000Y-78390000D01*
X45960000Y-71000000D02*
X46000000Y-71040000D01*
%TO.N,Net-(U1-P5)*%
X62810000Y-75850000D02*
X63160000Y-75500000D01*
X63160000Y-75500000D02*
X69000000Y-75500000D01*
X70350000Y-76850000D02*
X74315000Y-76850000D01*
X69000000Y-75500000D02*
X70350000Y-76850000D01*
%TO.N,Net-(J2-Pin_6)*%
X47580000Y-73580000D02*
X49200000Y-75200000D01*
X45920000Y-73500000D02*
X46000000Y-73580000D01*
X49200000Y-75200000D02*
X49500000Y-75200000D01*
X46000000Y-73580000D02*
X47580000Y-73580000D01*
X40500000Y-73500000D02*
X45920000Y-73500000D01*
%TO.N,Net-(U1-P6)*%
X63799365Y-70770000D02*
X66239365Y-73210000D01*
X66239365Y-73210000D02*
X73215000Y-73210000D01*
X62810000Y-70770000D02*
X63799365Y-70770000D01*
X73215000Y-73210000D02*
X74315000Y-74310000D01*
%TO.N,Net-(J5-Pin_7)*%
X50500000Y-79000000D02*
X48880000Y-79000000D01*
X46000000Y-76120000D02*
X46620000Y-76120000D01*
X59000000Y-74000000D02*
X59000000Y-76000000D01*
X48880000Y-79000000D02*
X46000000Y-76120000D01*
%TO.N,Net-(U1-P7)*%
X65000000Y-66000000D02*
X65000000Y-66550635D01*
X65000000Y-66550635D02*
X66579365Y-68130000D01*
X64690000Y-65690000D02*
X65000000Y-66000000D01*
X66579365Y-68130000D02*
X70675000Y-68130000D01*
X62810000Y-65690000D02*
X64690000Y-65690000D01*
X70675000Y-68130000D02*
X74315000Y-71770000D01*
%TO.N,Net-(J5-Pin_8)*%
X45660000Y-79000000D02*
X46000000Y-78660000D01*
X41500000Y-79000000D02*
X45660000Y-79000000D01*
%TO.N,+5V*%
X64310000Y-61065635D02*
X63665635Y-61710000D01*
X77000000Y-73000000D02*
X81000000Y-73000000D01*
X75500000Y-60425000D02*
X75500000Y-52385000D01*
X64650000Y-50350000D02*
X62810000Y-52190000D01*
X49500000Y-59960000D02*
X49950000Y-59510000D01*
X64310000Y-59570000D02*
X64310000Y-61065635D01*
X41500000Y-81000000D02*
X50500000Y-81000000D01*
X77000000Y-76235000D02*
X79000000Y-78235000D01*
X63665635Y-61710000D02*
X58245635Y-61710000D01*
X70465000Y-50350000D02*
X73465000Y-50350000D01*
X62810000Y-52190000D02*
X62810000Y-58070000D01*
X75500000Y-52385000D02*
X73465000Y-50350000D01*
X74475000Y-61770000D02*
X74315000Y-61610000D01*
X67315000Y-50350000D02*
X64650000Y-50350000D01*
X49950000Y-59510000D02*
X56045635Y-59510000D01*
X74315000Y-61610000D02*
X73805256Y-61610000D01*
X74315000Y-61610000D02*
X75500000Y-60425000D01*
X77000000Y-73000000D02*
X77000000Y-76235000D01*
X67315000Y-50350000D02*
X70465000Y-50350000D01*
X62810000Y-58070000D02*
X64310000Y-59570000D01*
X58245635Y-61710000D02*
X56045635Y-59510000D01*
%TO.N,Net-(J1-Pin_3)*%
X77000000Y-67500000D02*
X77000000Y-71000000D01*
X80000000Y-64500000D02*
X77000000Y-67500000D01*
%TO.N,Net-(J1-Pin_4)*%
X80000000Y-70000000D02*
X81000000Y-71000000D01*
X80000000Y-67000000D02*
X80000000Y-70000000D01*
%TO.N,Net-(JP2-A)*%
X70465000Y-55400000D02*
X70315000Y-55550000D01*
X70465000Y-52350000D02*
X70465000Y-55400000D01*
%TO.N,Net-(JP2-B)*%
X70315000Y-56850000D02*
X70315000Y-62185000D01*
X70315000Y-62185000D02*
X68350000Y-64150000D01*
X68350000Y-64150000D02*
X66695000Y-64150000D01*
%TO.N,Net-(JP3-B)*%
X67310000Y-66690000D02*
X66695000Y-66690000D01*
X71500000Y-58665000D02*
X71500000Y-62500000D01*
X71500000Y-62500000D02*
X67310000Y-66690000D01*
X73315000Y-56850000D02*
X71500000Y-58665000D01*
%TO.N,Rel Mot*%
X40550000Y-54275000D02*
X40525000Y-54250000D01*
X45185000Y-54275000D02*
X40550000Y-54275000D01*
%TO.N,Net-(JP3-A)*%
X73465000Y-52350000D02*
X73465000Y-55400000D01*
X73465000Y-55400000D02*
X73315000Y-55550000D01*
%TD*%
%TA.AperFunction,Conductor*%
%TO.N,GND*%
G36*
X47555703Y-78525384D02*
G01*
X47562181Y-78531416D01*
X48395139Y-79364374D01*
X48395149Y-79364385D01*
X48399479Y-79368715D01*
X48399480Y-79368716D01*
X48511284Y-79480520D01*
X48566815Y-79512580D01*
X48598095Y-79530639D01*
X48598097Y-79530641D01*
X48621918Y-79544394D01*
X48648215Y-79559577D01*
X48800943Y-79600500D01*
X48959057Y-79600500D01*
X49254092Y-79600500D01*
X49321131Y-79620185D01*
X49359636Y-79664271D01*
X49361395Y-79663187D01*
X49365185Y-79669331D01*
X49365186Y-79669334D01*
X49456708Y-79817715D01*
X49457289Y-79818657D01*
X49550951Y-79912319D01*
X49584436Y-79973642D01*
X49579452Y-80043334D01*
X49550951Y-80087681D01*
X49457289Y-80181342D01*
X49457288Y-80181344D01*
X49365906Y-80329500D01*
X49361395Y-80336813D01*
X49359600Y-80335706D01*
X49320313Y-80380337D01*
X49254092Y-80399500D01*
X42745908Y-80399500D01*
X42678869Y-80379815D01*
X42640363Y-80335728D01*
X42638605Y-80336813D01*
X42634812Y-80330663D01*
X42542712Y-80181344D01*
X42449049Y-80087681D01*
X42415564Y-80026358D01*
X42420548Y-79956666D01*
X42449049Y-79912319D01*
X42484213Y-79877155D01*
X42542712Y-79818656D01*
X42634814Y-79669334D01*
X42634815Y-79669331D01*
X42638605Y-79663187D01*
X42640399Y-79664293D01*
X42679687Y-79619663D01*
X42745908Y-79600500D01*
X44979242Y-79600500D01*
X45046281Y-79620185D01*
X45066923Y-79636819D01*
X45120213Y-79690109D01*
X45292179Y-79815048D01*
X45292181Y-79815049D01*
X45292184Y-79815051D01*
X45481588Y-79911557D01*
X45683757Y-79977246D01*
X45893713Y-80010500D01*
X45893714Y-80010500D01*
X46106286Y-80010500D01*
X46106287Y-80010500D01*
X46316243Y-79977246D01*
X46518412Y-79911557D01*
X46707816Y-79815051D01*
X46779815Y-79762741D01*
X46879786Y-79690109D01*
X46879788Y-79690106D01*
X46879792Y-79690104D01*
X47030104Y-79539792D01*
X47030106Y-79539788D01*
X47030109Y-79539786D01*
X47155048Y-79367820D01*
X47155047Y-79367820D01*
X47155051Y-79367816D01*
X47251557Y-79178412D01*
X47317246Y-78976243D01*
X47350500Y-78766287D01*
X47350500Y-78619097D01*
X47370185Y-78552058D01*
X47422989Y-78506303D01*
X47492147Y-78496359D01*
X47555703Y-78525384D01*
G37*
%TD.AperFunction*%
%TA.AperFunction,Conductor*%
G36*
X65600295Y-77570185D02*
G01*
X65633575Y-77601616D01*
X65703030Y-77697215D01*
X65847786Y-77841971D01*
X66013385Y-77962284D01*
X66013387Y-77962285D01*
X66013390Y-77962287D01*
X66019078Y-77965185D01*
X66106630Y-78009795D01*
X66157426Y-78057770D01*
X66174221Y-78125591D01*
X66151684Y-78191725D01*
X66106630Y-78230765D01*
X66013644Y-78278143D01*
X65969077Y-78310523D01*
X65969077Y-78310524D01*
X66648554Y-78990000D01*
X66642339Y-78990000D01*
X66540606Y-79017259D01*
X66449394Y-79069920D01*
X66374920Y-79144394D01*
X66322259Y-79235606D01*
X66295000Y-79337339D01*
X66295000Y-79343553D01*
X65615524Y-78664077D01*
X65615523Y-78664077D01*
X65583143Y-78708644D01*
X65490244Y-78890968D01*
X65427009Y-79085582D01*
X65395000Y-79287682D01*
X65395000Y-79492317D01*
X65427009Y-79694417D01*
X65490244Y-79889031D01*
X65583140Y-80071349D01*
X65627652Y-80132614D01*
X65651132Y-80198421D01*
X65635307Y-80266475D01*
X65585201Y-80315169D01*
X65527334Y-80329500D01*
X64439602Y-80329500D01*
X64372563Y-80309815D01*
X64329117Y-80261795D01*
X64322287Y-80248390D01*
X64322285Y-80248387D01*
X64322284Y-80248385D01*
X64201971Y-80082786D01*
X64057213Y-79938028D01*
X63891614Y-79817715D01*
X63837220Y-79790000D01*
X63798917Y-79770483D01*
X63748123Y-79722511D01*
X63731328Y-79654690D01*
X63753865Y-79588555D01*
X63798917Y-79549516D01*
X63891610Y-79502287D01*
X63973679Y-79442661D01*
X64057213Y-79381971D01*
X64057215Y-79381968D01*
X64057219Y-79381966D01*
X64201966Y-79237219D01*
X64201968Y-79237215D01*
X64201971Y-79237213D01*
X64275392Y-79136156D01*
X64322287Y-79071610D01*
X64415220Y-78889219D01*
X64478477Y-78694534D01*
X64510500Y-78492352D01*
X64510500Y-78287648D01*
X64505949Y-78258913D01*
X64478477Y-78085465D01*
X64421465Y-77910001D01*
X64415220Y-77890781D01*
X64415218Y-77890778D01*
X64415218Y-77890776D01*
X64333703Y-77730795D01*
X64320807Y-77662126D01*
X64347083Y-77597385D01*
X64404190Y-77557128D01*
X64444188Y-77550500D01*
X65533256Y-77550500D01*
X65600295Y-77570185D01*
G37*
%TD.AperFunction*%
%TA.AperFunction,Conductor*%
G36*
X68766942Y-76120185D02*
G01*
X68787584Y-76136819D01*
X69865139Y-77214374D01*
X69865149Y-77214385D01*
X69869479Y-77218715D01*
X69869480Y-77218716D01*
X69981284Y-77330520D01*
X69981286Y-77330521D01*
X69981290Y-77330524D01*
X70050562Y-77370518D01*
X70050566Y-77370519D01*
X70050567Y-77370520D01*
X70084307Y-77390000D01*
X70118212Y-77409576D01*
X70118214Y-77409576D01*
X70118215Y-77409577D01*
X70270942Y-77450500D01*
X70270943Y-77450500D01*
X73085398Y-77450500D01*
X73152437Y-77470185D01*
X73195883Y-77518205D01*
X73202715Y-77531614D01*
X73323028Y-77697213D01*
X73467786Y-77841971D01*
X73619477Y-77952179D01*
X73633390Y-77962287D01*
X73724840Y-78008883D01*
X73726080Y-78009515D01*
X73776876Y-78057490D01*
X73793671Y-78125311D01*
X73771134Y-78191446D01*
X73726080Y-78230485D01*
X73633386Y-78277715D01*
X73467786Y-78398028D01*
X73323028Y-78542786D01*
X73202715Y-78708386D01*
X73109781Y-78890776D01*
X73046522Y-79085465D01*
X73022488Y-79237213D01*
X73014500Y-79287648D01*
X73014500Y-79492352D01*
X73041558Y-79663187D01*
X73046523Y-79694534D01*
X73051172Y-79708843D01*
X73053167Y-79778684D01*
X73020922Y-79834842D01*
X72562584Y-80293181D01*
X72501261Y-80326666D01*
X72474903Y-80329500D01*
X67862666Y-80329500D01*
X67795627Y-80309815D01*
X67749872Y-80257011D01*
X67739928Y-80187853D01*
X67762348Y-80132614D01*
X67806859Y-80071349D01*
X67899755Y-79889031D01*
X67962990Y-79694417D01*
X67995000Y-79492317D01*
X67995000Y-79287682D01*
X67962990Y-79085582D01*
X67899755Y-78890968D01*
X67806859Y-78708650D01*
X67774474Y-78664077D01*
X67774474Y-78664076D01*
X67095000Y-79343551D01*
X67095000Y-79337339D01*
X67067741Y-79235606D01*
X67015080Y-79144394D01*
X66940606Y-79069920D01*
X66849394Y-79017259D01*
X66747661Y-78990000D01*
X66741446Y-78990000D01*
X67420922Y-78310524D01*
X67420921Y-78310523D01*
X67376359Y-78278147D01*
X67376350Y-78278141D01*
X67283369Y-78230765D01*
X67232573Y-78182790D01*
X67215778Y-78114969D01*
X67238315Y-78048835D01*
X67283370Y-78009795D01*
X67370918Y-77965187D01*
X67376610Y-77962287D01*
X67448576Y-77910001D01*
X67542213Y-77841971D01*
X67542215Y-77841968D01*
X67542219Y-77841966D01*
X67686966Y-77697219D01*
X67686968Y-77697215D01*
X67686971Y-77697213D01*
X67759499Y-77597385D01*
X67807287Y-77531610D01*
X67900220Y-77349219D01*
X67963477Y-77154534D01*
X67995500Y-76952352D01*
X67995500Y-76747648D01*
X67978199Y-76638414D01*
X67963477Y-76545465D01*
X67917908Y-76405220D01*
X67900220Y-76350781D01*
X67900218Y-76350778D01*
X67900218Y-76350776D01*
X67877091Y-76305388D01*
X67864559Y-76280794D01*
X67851664Y-76212126D01*
X67877940Y-76147386D01*
X67935046Y-76107128D01*
X67975045Y-76100500D01*
X68699903Y-76100500D01*
X68766942Y-76120185D01*
G37*
%TD.AperFunction*%
%TA.AperFunction,Conductor*%
G36*
X61242851Y-77570185D02*
G01*
X61288606Y-77622989D01*
X61298550Y-77692147D01*
X61286297Y-77730795D01*
X61204781Y-77890776D01*
X61141522Y-78085465D01*
X61109500Y-78287648D01*
X61109500Y-78492351D01*
X61141523Y-78694535D01*
X61141524Y-78694542D01*
X61152130Y-78727183D01*
X61154125Y-78797024D01*
X61118044Y-78856857D01*
X61055343Y-78887684D01*
X61034199Y-78889500D01*
X56965801Y-78889500D01*
X56898762Y-78869815D01*
X56853007Y-78817011D01*
X56843063Y-78747853D01*
X56847870Y-78727183D01*
X56858475Y-78694542D01*
X56858475Y-78694538D01*
X56858477Y-78694534D01*
X56890500Y-78492352D01*
X56890500Y-78287648D01*
X56885949Y-78258913D01*
X56858477Y-78085465D01*
X56801465Y-77910001D01*
X56795220Y-77890781D01*
X56795218Y-77890778D01*
X56795218Y-77890776D01*
X56713703Y-77730795D01*
X56700807Y-77662126D01*
X56727083Y-77597385D01*
X56784190Y-77557128D01*
X56824188Y-77550500D01*
X61175812Y-77550500D01*
X61242851Y-77570185D01*
G37*
%TD.AperFunction*%
%TA.AperFunction,Conductor*%
G36*
X61101238Y-72830185D02*
G01*
X61146993Y-72882989D01*
X61156937Y-72952147D01*
X61152130Y-72972817D01*
X61141524Y-73005457D01*
X61141523Y-73005464D01*
X61109500Y-73207648D01*
X61109500Y-73412351D01*
X61141522Y-73614534D01*
X61204781Y-73809223D01*
X61265545Y-73928477D01*
X61297481Y-73991155D01*
X61297715Y-73991613D01*
X61418028Y-74157213D01*
X61562786Y-74301971D01*
X61717749Y-74414556D01*
X61728390Y-74422287D01*
X61801986Y-74459786D01*
X61821080Y-74469515D01*
X61871876Y-74517490D01*
X61888671Y-74585311D01*
X61866134Y-74651446D01*
X61821080Y-74690485D01*
X61728386Y-74737715D01*
X61562786Y-74858028D01*
X61418028Y-75002786D01*
X61297715Y-75168386D01*
X61204781Y-75350776D01*
X61141522Y-75545465D01*
X61109500Y-75747648D01*
X61109500Y-75952351D01*
X61141523Y-76154535D01*
X61141524Y-76154542D01*
X61152130Y-76187183D01*
X61154125Y-76257024D01*
X61118044Y-76316857D01*
X61055343Y-76347684D01*
X61034199Y-76349500D01*
X59897757Y-76349500D01*
X59830718Y-76329815D01*
X59784963Y-76277011D01*
X59775019Y-76207853D01*
X59776140Y-76201308D01*
X59800500Y-76078844D01*
X59800500Y-75921155D01*
X59800499Y-75921153D01*
X59787944Y-75858034D01*
X59769737Y-75766503D01*
X59741869Y-75699223D01*
X59709397Y-75620827D01*
X59709390Y-75620814D01*
X59621398Y-75489125D01*
X59600520Y-75422447D01*
X59600500Y-75420234D01*
X59600500Y-74579765D01*
X59620185Y-74512726D01*
X59621398Y-74510874D01*
X59709390Y-74379185D01*
X59709390Y-74379184D01*
X59709394Y-74379179D01*
X59769737Y-74233497D01*
X59800500Y-74078842D01*
X59800500Y-73921158D01*
X59800500Y-73921155D01*
X59800499Y-73921153D01*
X59789373Y-73865220D01*
X59769737Y-73766503D01*
X59769735Y-73766498D01*
X59709397Y-73620827D01*
X59709390Y-73620814D01*
X59621789Y-73489711D01*
X59621786Y-73489707D01*
X59510292Y-73378213D01*
X59510288Y-73378210D01*
X59379185Y-73290609D01*
X59379172Y-73290602D01*
X59233501Y-73230264D01*
X59233489Y-73230261D01*
X59078845Y-73199500D01*
X59078842Y-73199500D01*
X58921158Y-73199500D01*
X58921155Y-73199500D01*
X58766510Y-73230261D01*
X58766498Y-73230264D01*
X58620827Y-73290602D01*
X58620814Y-73290609D01*
X58489711Y-73378210D01*
X58489707Y-73378213D01*
X58378213Y-73489707D01*
X58378210Y-73489711D01*
X58290609Y-73620814D01*
X58290602Y-73620827D01*
X58230264Y-73766498D01*
X58230261Y-73766510D01*
X58199500Y-73921153D01*
X58199500Y-74078846D01*
X58230261Y-74233489D01*
X58230264Y-74233501D01*
X58290602Y-74379172D01*
X58290609Y-74379185D01*
X58378602Y-74510874D01*
X58399480Y-74577551D01*
X58399500Y-74579765D01*
X58399500Y-75420234D01*
X58379815Y-75487273D01*
X58378602Y-75489125D01*
X58290609Y-75620814D01*
X58290602Y-75620827D01*
X58230264Y-75766498D01*
X58230261Y-75766510D01*
X58199500Y-75921153D01*
X58199500Y-75921158D01*
X58199500Y-76078842D01*
X58199500Y-76078844D01*
X58199499Y-76078844D01*
X58223860Y-76201308D01*
X58217633Y-76270900D01*
X58174770Y-76326077D01*
X58108880Y-76349322D01*
X58102243Y-76349500D01*
X56965801Y-76349500D01*
X56898762Y-76329815D01*
X56853007Y-76277011D01*
X56843063Y-76207853D01*
X56847870Y-76187183D01*
X56858475Y-76154542D01*
X56858475Y-76154538D01*
X56858477Y-76154534D01*
X56890500Y-75952352D01*
X56890500Y-75747648D01*
X56882830Y-75699223D01*
X56858477Y-75545465D01*
X56795218Y-75350776D01*
X56761503Y-75284607D01*
X56702287Y-75168390D01*
X56694167Y-75157213D01*
X56581971Y-75002786D01*
X56437213Y-74858028D01*
X56271614Y-74737715D01*
X56265006Y-74734348D01*
X56178917Y-74690483D01*
X56128123Y-74642511D01*
X56111328Y-74574690D01*
X56133865Y-74508555D01*
X56178917Y-74469516D01*
X56271610Y-74422287D01*
X56330108Y-74379786D01*
X56437213Y-74301971D01*
X56437215Y-74301968D01*
X56437219Y-74301966D01*
X56581966Y-74157219D01*
X56581968Y-74157215D01*
X56581971Y-74157213D01*
X56647146Y-74067506D01*
X56702287Y-73991610D01*
X56795220Y-73809219D01*
X56858477Y-73614534D01*
X56890500Y-73412352D01*
X56890500Y-73207648D01*
X56858477Y-73005466D01*
X56858475Y-73005462D01*
X56858475Y-73005457D01*
X56847870Y-72972817D01*
X56845875Y-72902976D01*
X56881956Y-72843143D01*
X56944657Y-72812316D01*
X56965801Y-72810500D01*
X61034199Y-72810500D01*
X61101238Y-72830185D01*
G37*
%TD.AperFunction*%
%TA.AperFunction,Conductor*%
G36*
X72981942Y-73830185D02*
G01*
X73002584Y-73846819D01*
X73020922Y-73865157D01*
X73054407Y-73926480D01*
X73051173Y-73991155D01*
X73046522Y-74005468D01*
X73014500Y-74207648D01*
X73014500Y-74412351D01*
X73046522Y-74614534D01*
X73109781Y-74809223D01*
X73162410Y-74912512D01*
X73186853Y-74960484D01*
X73202715Y-74991613D01*
X73323028Y-75157213D01*
X73467786Y-75301971D01*
X73619477Y-75412179D01*
X73633390Y-75422287D01*
X73723935Y-75468422D01*
X73726080Y-75469515D01*
X73776876Y-75517490D01*
X73793671Y-75585311D01*
X73771134Y-75651446D01*
X73726080Y-75690485D01*
X73633386Y-75737715D01*
X73467786Y-75858028D01*
X73323028Y-76002786D01*
X73202715Y-76168385D01*
X73195883Y-76181795D01*
X73147909Y-76232591D01*
X73085398Y-76249500D01*
X70650097Y-76249500D01*
X70583058Y-76229815D01*
X70562416Y-76213181D01*
X69487590Y-75138355D01*
X69487588Y-75138352D01*
X69368717Y-75019481D01*
X69368709Y-75019475D01*
X69274266Y-74964949D01*
X69274264Y-74964948D01*
X69231790Y-74940425D01*
X69231789Y-74940424D01*
X69219263Y-74937067D01*
X69079057Y-74899499D01*
X68920943Y-74899499D01*
X68913347Y-74899499D01*
X68913331Y-74899500D01*
X68041557Y-74899500D01*
X67974518Y-74879815D01*
X67928763Y-74827011D01*
X67918819Y-74757853D01*
X67923624Y-74737187D01*
X67963477Y-74614534D01*
X67995500Y-74412352D01*
X67995500Y-74207648D01*
X67963477Y-74005466D01*
X67963475Y-74005462D01*
X67963475Y-74005457D01*
X67952870Y-73972817D01*
X67950875Y-73902976D01*
X67986956Y-73843143D01*
X68049657Y-73812316D01*
X68070801Y-73810500D01*
X72914903Y-73810500D01*
X72981942Y-73830185D01*
G37*
%TD.AperFunction*%
%TA.AperFunction,Conductor*%
G36*
X51005703Y-69935384D02*
G01*
X51012181Y-69941416D01*
X53621246Y-72550481D01*
X53654731Y-72611804D01*
X53649747Y-72681496D01*
X53644050Y-72694457D01*
X53584781Y-72810776D01*
X53521524Y-73005461D01*
X53520376Y-73012709D01*
X53490444Y-73075842D01*
X53431131Y-73112771D01*
X53361268Y-73111771D01*
X53310222Y-73080987D01*
X50794077Y-70564842D01*
X50760592Y-70503519D01*
X50763828Y-70438841D01*
X50768477Y-70424534D01*
X50800500Y-70222352D01*
X50800500Y-70029097D01*
X50820185Y-69962058D01*
X50872989Y-69916303D01*
X50942147Y-69906359D01*
X51005703Y-69935384D01*
G37*
%TD.AperFunction*%
%TA.AperFunction,Conductor*%
G36*
X44760939Y-71620185D02*
G01*
X44804385Y-71668205D01*
X44808774Y-71676819D01*
X44844948Y-71747815D01*
X44844951Y-71747819D01*
X44969890Y-71919786D01*
X45120213Y-72070109D01*
X45292182Y-72195050D01*
X45300946Y-72199516D01*
X45351742Y-72247491D01*
X45368536Y-72315312D01*
X45345998Y-72381447D01*
X45300946Y-72420484D01*
X45292182Y-72424949D01*
X45120213Y-72549890D01*
X44969896Y-72700207D01*
X44969892Y-72700213D01*
X44862238Y-72848386D01*
X44806911Y-72891051D01*
X44761922Y-72899500D01*
X41910719Y-72899500D01*
X41843680Y-72879815D01*
X41800235Y-72831795D01*
X41780052Y-72792185D01*
X41780051Y-72792184D01*
X41655109Y-72620213D01*
X41504792Y-72469896D01*
X41436784Y-72420486D01*
X41340204Y-72350316D01*
X41297540Y-72294989D01*
X41291561Y-72225376D01*
X41324166Y-72163580D01*
X41340199Y-72149686D01*
X41504792Y-72030104D01*
X41655104Y-71879792D01*
X41655106Y-71879788D01*
X41655109Y-71879786D01*
X41750987Y-71747819D01*
X41780051Y-71707816D01*
X41780349Y-71707230D01*
X41800235Y-71668205D01*
X41848209Y-71617409D01*
X41910719Y-71600500D01*
X44693900Y-71600500D01*
X44760939Y-71620185D01*
G37*
%TD.AperFunction*%
%TA.AperFunction,Conductor*%
G36*
X70441942Y-68750185D02*
G01*
X70462584Y-68766819D01*
X73020922Y-71325157D01*
X73054407Y-71386480D01*
X73051173Y-71451155D01*
X73046522Y-71465468D01*
X73018800Y-71640500D01*
X73014500Y-71667648D01*
X73014500Y-71872352D01*
X73018878Y-71899995D01*
X73046522Y-72074534D01*
X73109781Y-72269223D01*
X73191297Y-72429205D01*
X73204193Y-72497874D01*
X73177917Y-72562615D01*
X73120810Y-72602872D01*
X73080812Y-72609500D01*
X67929188Y-72609500D01*
X67862149Y-72589815D01*
X67816394Y-72537011D01*
X67806450Y-72467853D01*
X67818703Y-72429205D01*
X67900218Y-72269223D01*
X67900218Y-72269222D01*
X67900220Y-72269219D01*
X67963477Y-72074534D01*
X67995500Y-71872352D01*
X67995500Y-71667648D01*
X67991200Y-71640500D01*
X67963477Y-71465465D01*
X67925119Y-71347413D01*
X67900220Y-71270781D01*
X67900218Y-71270778D01*
X67900218Y-71270776D01*
X67866503Y-71204607D01*
X67807287Y-71088390D01*
X67797220Y-71074534D01*
X67686971Y-70922786D01*
X67542213Y-70778028D01*
X67376614Y-70657715D01*
X67358990Y-70648735D01*
X67283917Y-70610483D01*
X67233123Y-70562511D01*
X67216328Y-70494690D01*
X67238865Y-70428555D01*
X67283917Y-70389516D01*
X67376610Y-70342287D01*
X67445570Y-70292185D01*
X67542213Y-70221971D01*
X67542215Y-70221968D01*
X67542219Y-70221966D01*
X67686966Y-70077219D01*
X67686968Y-70077215D01*
X67686971Y-70077213D01*
X67764940Y-69969896D01*
X67807287Y-69911610D01*
X67900220Y-69729219D01*
X67963477Y-69534534D01*
X67995500Y-69332352D01*
X67995500Y-69127648D01*
X67963477Y-68925466D01*
X67963475Y-68925462D01*
X67963475Y-68925457D01*
X67952870Y-68892817D01*
X67950875Y-68822976D01*
X67986956Y-68763143D01*
X68049657Y-68732316D01*
X68070801Y-68730500D01*
X70374903Y-68730500D01*
X70441942Y-68750185D01*
G37*
%TD.AperFunction*%
%TA.AperFunction,Conductor*%
G36*
X78444934Y-67006813D02*
G01*
X78500868Y-67048684D01*
X78524074Y-67103597D01*
X78555410Y-67301447D01*
X78557754Y-67316243D01*
X78618680Y-67503754D01*
X78623444Y-67518414D01*
X78719951Y-67707820D01*
X78844890Y-67879786D01*
X78995213Y-68030109D01*
X79167179Y-68155048D01*
X79167181Y-68155049D01*
X79167184Y-68155051D01*
X79331795Y-68238924D01*
X79382591Y-68286898D01*
X79399500Y-68349409D01*
X79399500Y-69913330D01*
X79399499Y-69913348D01*
X79399499Y-70079054D01*
X79399498Y-70079054D01*
X79440423Y-70231785D01*
X79458365Y-70262861D01*
X79458364Y-70262861D01*
X79458365Y-70262862D01*
X79519475Y-70368709D01*
X79519481Y-70368717D01*
X79638349Y-70487585D01*
X79638355Y-70487590D01*
X79763181Y-70612416D01*
X79796666Y-70673739D01*
X79799500Y-70700097D01*
X79799500Y-71400001D01*
X79799501Y-71400019D01*
X79810000Y-71502796D01*
X79810001Y-71502799D01*
X79865185Y-71669331D01*
X79865187Y-71669336D01*
X79957289Y-71818657D01*
X80050951Y-71912319D01*
X80084436Y-71973642D01*
X80079452Y-72043334D01*
X80050951Y-72087681D01*
X79957289Y-72181342D01*
X79946081Y-72199514D01*
X79866558Y-72328443D01*
X79861395Y-72336813D01*
X79859600Y-72335706D01*
X79820313Y-72380337D01*
X79754092Y-72399500D01*
X78245908Y-72399500D01*
X78178869Y-72379815D01*
X78140363Y-72335728D01*
X78138605Y-72336813D01*
X78134812Y-72330663D01*
X78042712Y-72181344D01*
X77949049Y-72087681D01*
X77915564Y-72026358D01*
X77920548Y-71956666D01*
X77949049Y-71912319D01*
X77989017Y-71872351D01*
X78042712Y-71818656D01*
X78134814Y-71669334D01*
X78189999Y-71502797D01*
X78200500Y-71400009D01*
X78200499Y-70599992D01*
X78197718Y-70572771D01*
X78189999Y-70497203D01*
X78189998Y-70497200D01*
X78179481Y-70465461D01*
X78134814Y-70330666D01*
X78042712Y-70181344D01*
X77918656Y-70057288D01*
X77776967Y-69969894D01*
X77769336Y-69965187D01*
X77769331Y-69965185D01*
X77759894Y-69962058D01*
X77685495Y-69937404D01*
X77628051Y-69897632D01*
X77601228Y-69833116D01*
X77600500Y-69819699D01*
X77600500Y-67800097D01*
X77620185Y-67733058D01*
X77636819Y-67712416D01*
X77966454Y-67382781D01*
X78313922Y-67035312D01*
X78375243Y-67001829D01*
X78444934Y-67006813D01*
G37*
%TD.AperFunction*%
%TA.AperFunction,Conductor*%
G36*
X57456942Y-66310185D02*
G01*
X57477583Y-66326818D01*
X61131284Y-69980520D01*
X61131286Y-69980521D01*
X61131290Y-69980524D01*
X61200444Y-70020450D01*
X61248660Y-70071016D01*
X61261884Y-70139623D01*
X61248930Y-70184132D01*
X61204781Y-70270776D01*
X61141522Y-70465465D01*
X61109500Y-70667648D01*
X61109500Y-70872351D01*
X61141522Y-71074534D01*
X61204781Y-71269223D01*
X61286297Y-71429205D01*
X61299193Y-71497874D01*
X61272917Y-71562615D01*
X61215810Y-71602872D01*
X61175812Y-71609500D01*
X56930098Y-71609500D01*
X56863059Y-71589815D01*
X56842417Y-71573181D01*
X56772255Y-71503019D01*
X56738770Y-71441696D01*
X56743754Y-71372004D01*
X56749452Y-71359042D01*
X56755378Y-71347413D01*
X56795220Y-71269219D01*
X56858477Y-71074534D01*
X56890500Y-70872352D01*
X56890500Y-70667648D01*
X56861981Y-70487590D01*
X56858477Y-70465465D01*
X56816519Y-70336332D01*
X56795220Y-70270781D01*
X56795218Y-70270778D01*
X56795218Y-70270776D01*
X56751070Y-70184132D01*
X56702287Y-70088390D01*
X56679690Y-70057288D01*
X56581971Y-69922786D01*
X56437213Y-69778028D01*
X56271614Y-69657715D01*
X56255846Y-69649681D01*
X56178917Y-69610483D01*
X56128123Y-69562511D01*
X56111328Y-69494690D01*
X56133865Y-69428555D01*
X56178917Y-69389516D01*
X56271610Y-69342287D01*
X56301043Y-69320903D01*
X56437213Y-69221971D01*
X56437215Y-69221968D01*
X56437219Y-69221966D01*
X56581966Y-69077219D01*
X56581968Y-69077215D01*
X56581971Y-69077213D01*
X56665623Y-68962074D01*
X56702287Y-68911610D01*
X56795220Y-68729219D01*
X56858477Y-68534534D01*
X56890500Y-68332352D01*
X56890500Y-68127648D01*
X56858477Y-67925466D01*
X56858476Y-67925464D01*
X56813751Y-67787814D01*
X56795220Y-67730781D01*
X56795218Y-67730778D01*
X56795218Y-67730776D01*
X56761503Y-67664607D01*
X56702287Y-67548390D01*
X56688562Y-67529499D01*
X56581971Y-67382786D01*
X56437213Y-67238028D01*
X56271614Y-67117715D01*
X56243906Y-67103597D01*
X56178917Y-67070483D01*
X56128123Y-67022511D01*
X56111328Y-66954690D01*
X56133865Y-66888555D01*
X56178917Y-66849516D01*
X56271610Y-66802287D01*
X56401634Y-66707820D01*
X56437213Y-66681971D01*
X56437215Y-66681968D01*
X56437219Y-66681966D01*
X56581966Y-66537219D01*
X56581968Y-66537215D01*
X56581971Y-66537213D01*
X56702284Y-66371614D01*
X56702283Y-66371614D01*
X56702287Y-66371610D01*
X56709117Y-66358204D01*
X56757091Y-66307409D01*
X56819602Y-66290500D01*
X57389903Y-66290500D01*
X57456942Y-66310185D01*
G37*
%TD.AperFunction*%
%TA.AperFunction,Conductor*%
G36*
X51766942Y-65660185D02*
G01*
X51787584Y-65676819D01*
X53607744Y-67496979D01*
X53641229Y-67558302D01*
X53636245Y-67627994D01*
X53630548Y-67640954D01*
X53584779Y-67730781D01*
X53584779Y-67730782D01*
X53521523Y-67925461D01*
X53521523Y-67925464D01*
X53489500Y-68127648D01*
X53489500Y-68332351D01*
X53521522Y-68534534D01*
X53584781Y-68729223D01*
X53645545Y-68848477D01*
X53677481Y-68911155D01*
X53677715Y-68911613D01*
X53798028Y-69077213D01*
X53942786Y-69221971D01*
X54097749Y-69334556D01*
X54108390Y-69342287D01*
X54181986Y-69379786D01*
X54201080Y-69389515D01*
X54251876Y-69437490D01*
X54268671Y-69505311D01*
X54246134Y-69571446D01*
X54201080Y-69610485D01*
X54108386Y-69657715D01*
X53942786Y-69778028D01*
X53798028Y-69922786D01*
X53677715Y-70088386D01*
X53584781Y-70270776D01*
X53521524Y-70465461D01*
X53520376Y-70472709D01*
X53490444Y-70535842D01*
X53431131Y-70572771D01*
X53361268Y-70571771D01*
X53310222Y-70540987D01*
X50794077Y-68024842D01*
X50760592Y-67963519D01*
X50763828Y-67898841D01*
X50764267Y-67897490D01*
X50768477Y-67884534D01*
X50800500Y-67682352D01*
X50800500Y-67477648D01*
X50785474Y-67382781D01*
X50768477Y-67275465D01*
X50717805Y-67119514D01*
X50705220Y-67080781D01*
X50705218Y-67080778D01*
X50705218Y-67080776D01*
X50659020Y-66990109D01*
X50612287Y-66898390D01*
X50571278Y-66841945D01*
X50491971Y-66732786D01*
X50347213Y-66588028D01*
X50181614Y-66467715D01*
X50175006Y-66464348D01*
X50088917Y-66420483D01*
X50038123Y-66372511D01*
X50021328Y-66304690D01*
X50043865Y-66238555D01*
X50088917Y-66199516D01*
X50181610Y-66152287D01*
X50202770Y-66136913D01*
X50347213Y-66031971D01*
X50347215Y-66031968D01*
X50347219Y-66031966D01*
X50491966Y-65887219D01*
X50491968Y-65887215D01*
X50491971Y-65887213D01*
X50612284Y-65721614D01*
X50612283Y-65721614D01*
X50612287Y-65721610D01*
X50619117Y-65708204D01*
X50667091Y-65657409D01*
X50729602Y-65640500D01*
X51699903Y-65640500D01*
X51766942Y-65660185D01*
G37*
%TD.AperFunction*%
%TA.AperFunction,Conductor*%
G36*
X44781320Y-69120185D02*
G01*
X44824765Y-69168205D01*
X44844947Y-69207814D01*
X44844948Y-69207815D01*
X44969890Y-69379786D01*
X45120213Y-69530109D01*
X45292182Y-69655050D01*
X45300946Y-69659516D01*
X45351742Y-69707491D01*
X45368536Y-69775312D01*
X45345998Y-69841447D01*
X45300946Y-69880484D01*
X45292182Y-69884949D01*
X45120213Y-70009890D01*
X44969890Y-70160213D01*
X44844956Y-70332173D01*
X44844950Y-70332181D01*
X44844949Y-70332184D01*
X44844947Y-70332186D01*
X44842408Y-70336332D01*
X44841428Y-70335731D01*
X44797176Y-70382589D01*
X44734663Y-70399500D01*
X41910719Y-70399500D01*
X41843680Y-70379815D01*
X41800235Y-70331795D01*
X41780052Y-70292185D01*
X41780051Y-70292184D01*
X41655109Y-70120213D01*
X41504792Y-69969896D01*
X41465592Y-69941416D01*
X41340204Y-69850316D01*
X41297540Y-69794989D01*
X41291561Y-69725376D01*
X41324166Y-69663580D01*
X41340199Y-69649686D01*
X41504792Y-69530104D01*
X41655104Y-69379792D01*
X41655106Y-69379788D01*
X41655109Y-69379786D01*
X41713661Y-69299193D01*
X41780051Y-69207816D01*
X41780349Y-69207230D01*
X41800235Y-69168205D01*
X41848209Y-69117409D01*
X41910719Y-69100500D01*
X44714281Y-69100500D01*
X44781320Y-69120185D01*
G37*
%TD.AperFunction*%
%TA.AperFunction,Conductor*%
G36*
X74818449Y-52765940D02*
G01*
X74874521Y-52807626D01*
X74899154Y-52873009D01*
X74899500Y-52882264D01*
X74899500Y-60124902D01*
X74879815Y-60191941D01*
X74863181Y-60212583D01*
X74759842Y-60315922D01*
X74698519Y-60349407D01*
X74633843Y-60346172D01*
X74619534Y-60341523D01*
X74527910Y-60327011D01*
X74417352Y-60309500D01*
X74212648Y-60309500D01*
X74188329Y-60313351D01*
X74010465Y-60341522D01*
X73815776Y-60404781D01*
X73633386Y-60497715D01*
X73467786Y-60618028D01*
X73323028Y-60762786D01*
X73202715Y-60928386D01*
X73109781Y-61110776D01*
X73046522Y-61305465D01*
X73014500Y-61507648D01*
X73014500Y-61712351D01*
X73046522Y-61914534D01*
X73109781Y-62109223D01*
X73168310Y-62224091D01*
X73200964Y-62288178D01*
X73202715Y-62291613D01*
X73323028Y-62457213D01*
X73467786Y-62601971D01*
X73598063Y-62696621D01*
X73633390Y-62722287D01*
X73719013Y-62765914D01*
X73726080Y-62769515D01*
X73776876Y-62817490D01*
X73793671Y-62885311D01*
X73771134Y-62951446D01*
X73726080Y-62990485D01*
X73633386Y-63037715D01*
X73467786Y-63158028D01*
X73323028Y-63302786D01*
X73202715Y-63468386D01*
X73109781Y-63650776D01*
X73046522Y-63845465D01*
X73014500Y-64047648D01*
X73014500Y-64252351D01*
X73046522Y-64454534D01*
X73109781Y-64649223D01*
X73161385Y-64750500D01*
X73198320Y-64822989D01*
X73202715Y-64831613D01*
X73323028Y-64997213D01*
X73467786Y-65141971D01*
X73619479Y-65252180D01*
X73633390Y-65262287D01*
X73724840Y-65308883D01*
X73726080Y-65309515D01*
X73776876Y-65357490D01*
X73793671Y-65425311D01*
X73771134Y-65491446D01*
X73726080Y-65530485D01*
X73633386Y-65577715D01*
X73467786Y-65698028D01*
X73323028Y-65842786D01*
X73202715Y-66008386D01*
X73109781Y-66190776D01*
X73046522Y-66385465D01*
X73014500Y-66587648D01*
X73014500Y-66792351D01*
X73046522Y-66994534D01*
X73109781Y-67189223D01*
X73166963Y-67301447D01*
X73186853Y-67340484D01*
X73202715Y-67371613D01*
X73323028Y-67537213D01*
X73467786Y-67681971D01*
X73586682Y-67768352D01*
X73633390Y-67802287D01*
X73724840Y-67848883D01*
X73726080Y-67849515D01*
X73776876Y-67897490D01*
X73793671Y-67965311D01*
X73771134Y-68031446D01*
X73726080Y-68070485D01*
X73633386Y-68117715D01*
X73467786Y-68238028D01*
X73323028Y-68382786D01*
X73202715Y-68548386D01*
X73109781Y-68730776D01*
X73046522Y-68925465D01*
X73014500Y-69127648D01*
X73014500Y-69320903D01*
X72994815Y-69387942D01*
X72942011Y-69433697D01*
X72872853Y-69443641D01*
X72809297Y-69414616D01*
X72802819Y-69408584D01*
X71162590Y-67768355D01*
X71162588Y-67768352D01*
X71043717Y-67649481D01*
X71043709Y-67649475D01*
X70921740Y-67579057D01*
X70921737Y-67579056D01*
X70906785Y-67570423D01*
X70754057Y-67529499D01*
X70595943Y-67529499D01*
X70588347Y-67529499D01*
X70588331Y-67529500D01*
X67929188Y-67529500D01*
X67862149Y-67509815D01*
X67816394Y-67457011D01*
X67806450Y-67387853D01*
X67818703Y-67349205D01*
X67900218Y-67189223D01*
X67900218Y-67189222D01*
X67900220Y-67189219D01*
X67963477Y-66994534D01*
X67977645Y-66905079D01*
X68007574Y-66841945D01*
X68012419Y-66836814D01*
X71858506Y-62990728D01*
X71858511Y-62990724D01*
X71868714Y-62980520D01*
X71868716Y-62980520D01*
X71980520Y-62868716D01*
X72030998Y-62781284D01*
X72059577Y-62731785D01*
X72100501Y-62579057D01*
X72100501Y-62420943D01*
X72100501Y-62413348D01*
X72100500Y-62413330D01*
X72100500Y-58965097D01*
X72120185Y-58898058D01*
X72136819Y-58877416D01*
X73122417Y-57891819D01*
X73183740Y-57858334D01*
X73210098Y-57855500D01*
X73630819Y-57855500D01*
X73630826Y-57855500D01*
X73761662Y-57838275D01*
X73888829Y-57804200D01*
X74010743Y-57753701D01*
X74124757Y-57687875D01*
X74229449Y-57607541D01*
X74322541Y-57514449D01*
X74402875Y-57409757D01*
X74468701Y-57295743D01*
X74519200Y-57173829D01*
X74553275Y-57046662D01*
X74570500Y-56915826D01*
X74570500Y-56350000D01*
X74565355Y-56278060D01*
X74554396Y-56240740D01*
X74550636Y-56188158D01*
X74570500Y-56050000D01*
X74570500Y-55484174D01*
X74553275Y-55353338D01*
X74519200Y-55226171D01*
X74468701Y-55104257D01*
X74468698Y-55104252D01*
X74468697Y-55104249D01*
X74468696Y-55104248D01*
X74402879Y-54990250D01*
X74402875Y-54990243D01*
X74393326Y-54977799D01*
X74333464Y-54899786D01*
X74322541Y-54885551D01*
X74229449Y-54792459D01*
X74205684Y-54774223D01*
X74124760Y-54712127D01*
X74121375Y-54709865D01*
X74122386Y-54708350D01*
X74079277Y-54663127D01*
X74065500Y-54606321D01*
X74065500Y-53530300D01*
X74085185Y-53463261D01*
X74137989Y-53417506D01*
X74150482Y-53412599D01*
X74234334Y-53384814D01*
X74383656Y-53292712D01*
X74507712Y-53168656D01*
X74599814Y-53019334D01*
X74654999Y-52852797D01*
X74654999Y-52852795D01*
X74657128Y-52846371D01*
X74659248Y-52847073D01*
X74687530Y-52794873D01*
X74748742Y-52761186D01*
X74818449Y-52765940D01*
G37*
%TD.AperFunction*%
%TA.AperFunction,Conductor*%
G36*
X57024193Y-63313695D02*
G01*
X57075246Y-63344481D01*
X61225139Y-67494374D01*
X61225160Y-67494397D01*
X61227743Y-67496980D01*
X61228076Y-67497590D01*
X61232717Y-67502672D01*
X61232727Y-67502684D01*
X61231442Y-67503754D01*
X61261228Y-67558303D01*
X61256244Y-67627995D01*
X61250547Y-67640955D01*
X61204779Y-67730780D01*
X61204779Y-67730781D01*
X61141523Y-67925461D01*
X61141523Y-67925464D01*
X61129438Y-68001765D01*
X61099509Y-68064900D01*
X61040197Y-68101831D01*
X60970334Y-68100833D01*
X60919284Y-68070048D01*
X58177590Y-65328355D01*
X58177588Y-65328352D01*
X58058717Y-65209481D01*
X58058709Y-65209475D01*
X57942447Y-65142352D01*
X57942447Y-65142351D01*
X57942442Y-65142350D01*
X57935233Y-65138187D01*
X57921786Y-65130423D01*
X57883603Y-65120192D01*
X57769057Y-65089499D01*
X57610943Y-65089499D01*
X57603347Y-65089499D01*
X57603331Y-65089500D01*
X56819602Y-65089500D01*
X56752563Y-65069815D01*
X56709117Y-65021795D01*
X56702287Y-65008390D01*
X56702285Y-65008387D01*
X56702284Y-65008385D01*
X56581971Y-64842786D01*
X56437213Y-64698028D01*
X56271614Y-64577715D01*
X56265006Y-64574348D01*
X56178917Y-64530483D01*
X56128123Y-64482511D01*
X56111328Y-64414690D01*
X56133865Y-64348555D01*
X56178917Y-64309516D01*
X56271610Y-64262287D01*
X56346585Y-64207815D01*
X56437213Y-64141971D01*
X56437215Y-64141968D01*
X56437219Y-64141966D01*
X56581966Y-63997219D01*
X56581968Y-63997215D01*
X56581971Y-63997213D01*
X56634732Y-63924590D01*
X56702287Y-63831610D01*
X56795220Y-63649219D01*
X56858477Y-63454534D01*
X56865093Y-63412761D01*
X56895020Y-63349631D01*
X56954330Y-63312699D01*
X57024193Y-63313695D01*
G37*
%TD.AperFunction*%
%TA.AperFunction,Conductor*%
G36*
X44801702Y-66620185D02*
G01*
X44841528Y-66664206D01*
X44842408Y-66663668D01*
X44844944Y-66667807D01*
X44844949Y-66667816D01*
X44844954Y-66667823D01*
X44844956Y-66667826D01*
X44969890Y-66839786D01*
X45120213Y-66990109D01*
X45292182Y-67115050D01*
X45300946Y-67119516D01*
X45351742Y-67167491D01*
X45368536Y-67235312D01*
X45345998Y-67301447D01*
X45300946Y-67340484D01*
X45292182Y-67344949D01*
X45120213Y-67469890D01*
X44969890Y-67620213D01*
X44844948Y-67792184D01*
X44844947Y-67792185D01*
X44824765Y-67831795D01*
X44776791Y-67882591D01*
X44714281Y-67899500D01*
X41910719Y-67899500D01*
X41843680Y-67879815D01*
X41800235Y-67831795D01*
X41780052Y-67792185D01*
X41780051Y-67792184D01*
X41655109Y-67620213D01*
X41504792Y-67469896D01*
X41437416Y-67420945D01*
X41340204Y-67350316D01*
X41297540Y-67294989D01*
X41291561Y-67225376D01*
X41324166Y-67163580D01*
X41340199Y-67149686D01*
X41504792Y-67030104D01*
X41655104Y-66879792D01*
X41655106Y-66879788D01*
X41655109Y-66879786D01*
X41761909Y-66732786D01*
X41780051Y-66707816D01*
X41780349Y-66707230D01*
X41800235Y-66668205D01*
X41848209Y-66617409D01*
X41910719Y-66600500D01*
X44734663Y-66600500D01*
X44801702Y-66620185D01*
G37*
%TD.AperFunction*%
%TA.AperFunction,Conductor*%
G36*
X66136131Y-50970185D02*
G01*
X66174636Y-51014271D01*
X66176395Y-51013187D01*
X66180185Y-51019332D01*
X66180186Y-51019334D01*
X66272288Y-51168656D01*
X66272289Y-51168657D01*
X66365951Y-51262319D01*
X66399436Y-51323642D01*
X66394452Y-51393334D01*
X66365951Y-51437681D01*
X66272289Y-51531342D01*
X66180187Y-51680663D01*
X66180185Y-51680668D01*
X66170638Y-51709480D01*
X66125001Y-51847203D01*
X66125001Y-51847204D01*
X66125000Y-51847204D01*
X66114500Y-51949983D01*
X66114500Y-52750001D01*
X66114501Y-52750019D01*
X66125000Y-52852796D01*
X66125001Y-52852799D01*
X66180185Y-53019331D01*
X66180187Y-53019336D01*
X66193048Y-53040187D01*
X66272288Y-53168656D01*
X66396344Y-53292712D01*
X66545666Y-53384814D01*
X66629505Y-53412595D01*
X66686948Y-53452366D01*
X66713772Y-53516882D01*
X66714500Y-53530300D01*
X66714500Y-54523993D01*
X66694815Y-54591032D01*
X66642011Y-54636787D01*
X66637958Y-54638552D01*
X66619258Y-54646298D01*
X66619246Y-54646304D01*
X66505250Y-54712120D01*
X66505232Y-54712132D01*
X66400555Y-54792455D01*
X66400545Y-54792464D01*
X66307464Y-54885545D01*
X66307455Y-54885555D01*
X66227132Y-54990232D01*
X66227120Y-54990250D01*
X66161303Y-55104248D01*
X66161302Y-55104249D01*
X66110800Y-55226170D01*
X66076724Y-55353341D01*
X66059500Y-55484166D01*
X66059500Y-56050002D01*
X66064644Y-56121939D01*
X66075603Y-56159262D01*
X66079363Y-56211841D01*
X66059500Y-56349998D01*
X66059500Y-56915833D01*
X66076724Y-57046658D01*
X66110802Y-57173836D01*
X66120118Y-57196327D01*
X66127587Y-57265797D01*
X66125332Y-57275872D01*
X66094499Y-57390943D01*
X66094499Y-57559046D01*
X66094500Y-57559059D01*
X66094500Y-60197837D01*
X66074815Y-60264876D01*
X66022011Y-60310631D01*
X65996459Y-60319089D01*
X65992207Y-60319999D01*
X65825668Y-60375185D01*
X65825663Y-60375187D01*
X65676342Y-60467289D01*
X65552289Y-60591342D01*
X65460187Y-60740663D01*
X65460185Y-60740668D01*
X65442484Y-60794087D01*
X65405001Y-60907203D01*
X65405001Y-60907204D01*
X65405000Y-60907204D01*
X65394500Y-61009983D01*
X65394500Y-62210001D01*
X65394501Y-62210018D01*
X65405000Y-62312796D01*
X65405001Y-62312799D01*
X65457059Y-62469896D01*
X65460186Y-62479334D01*
X65552288Y-62628656D01*
X65676344Y-62752712D01*
X65825666Y-62844814D01*
X65907570Y-62871954D01*
X65965015Y-62911727D01*
X65991838Y-62976243D01*
X65979523Y-63045018D01*
X65941451Y-63089978D01*
X65847787Y-63158028D01*
X65847782Y-63158032D01*
X65703028Y-63302786D01*
X65582715Y-63468386D01*
X65489781Y-63650776D01*
X65426522Y-63845465D01*
X65394500Y-64047648D01*
X65394500Y-64252351D01*
X65426522Y-64454534D01*
X65489781Y-64649223D01*
X65541385Y-64750500D01*
X65578320Y-64822989D01*
X65582715Y-64831613D01*
X65703028Y-64997213D01*
X65847786Y-65141971D01*
X65999479Y-65252180D01*
X66013390Y-65262287D01*
X66104840Y-65308883D01*
X66106080Y-65309515D01*
X66156876Y-65357490D01*
X66173671Y-65425311D01*
X66151134Y-65491446D01*
X66106080Y-65530485D01*
X66013386Y-65577715D01*
X65847788Y-65698027D01*
X65753647Y-65792168D01*
X65692323Y-65825652D01*
X65622632Y-65820668D01*
X65566699Y-65778796D01*
X65558579Y-65766486D01*
X65510236Y-65682754D01*
X65510235Y-65682753D01*
X65480521Y-65631286D01*
X65480520Y-65631284D01*
X65368716Y-65519480D01*
X65368715Y-65519479D01*
X65364385Y-65515149D01*
X65364374Y-65515139D01*
X65177590Y-65328355D01*
X65177588Y-65328352D01*
X65058717Y-65209481D01*
X65058709Y-65209475D01*
X64942447Y-65142352D01*
X64942447Y-65142351D01*
X64942442Y-65142350D01*
X64935233Y-65138187D01*
X64921786Y-65130423D01*
X64883603Y-65120192D01*
X64769057Y-65089499D01*
X64610943Y-65089499D01*
X64603347Y-65089499D01*
X64603331Y-65089500D01*
X64439602Y-65089500D01*
X64372563Y-65069815D01*
X64329117Y-65021795D01*
X64322287Y-65008390D01*
X64322285Y-65008387D01*
X64322284Y-65008385D01*
X64201971Y-64842786D01*
X64057213Y-64698028D01*
X63891614Y-64577715D01*
X63885006Y-64574348D01*
X63798917Y-64530483D01*
X63748123Y-64482511D01*
X63731328Y-64414690D01*
X63753865Y-64348555D01*
X63798917Y-64309516D01*
X63891610Y-64262287D01*
X63966585Y-64207815D01*
X64057213Y-64141971D01*
X64057215Y-64141968D01*
X64057219Y-64141966D01*
X64201966Y-63997219D01*
X64201968Y-63997215D01*
X64201971Y-63997213D01*
X64254732Y-63924590D01*
X64322287Y-63831610D01*
X64415220Y-63649219D01*
X64478477Y-63454534D01*
X64510500Y-63252352D01*
X64510500Y-63047648D01*
X64500037Y-62981588D01*
X64478477Y-62845465D01*
X64415218Y-62650776D01*
X64378673Y-62579054D01*
X64322287Y-62468390D01*
X64287255Y-62420172D01*
X64201971Y-62302786D01*
X64149709Y-62250524D01*
X64116224Y-62189201D01*
X64121208Y-62119509D01*
X64133240Y-62100786D01*
X64133136Y-62100734D01*
X64133139Y-62100728D01*
X64134423Y-62098945D01*
X64149709Y-62075162D01*
X64156359Y-62068511D01*
X64156362Y-62068506D01*
X64790520Y-61434351D01*
X64869577Y-61297419D01*
X64910501Y-61144692D01*
X64910501Y-60986577D01*
X64910501Y-60978982D01*
X64910500Y-60978964D01*
X64910500Y-59490945D01*
X64910500Y-59490943D01*
X64869577Y-59338216D01*
X64857130Y-59316657D01*
X64790524Y-59201290D01*
X64790521Y-59201286D01*
X64790520Y-59201284D01*
X64678716Y-59089480D01*
X64678715Y-59089479D01*
X64674385Y-59085149D01*
X64674374Y-59085139D01*
X64392255Y-58803020D01*
X64358770Y-58741697D01*
X64363754Y-58672005D01*
X64369452Y-58659043D01*
X64415217Y-58569225D01*
X64415217Y-58569224D01*
X64415220Y-58569219D01*
X64478477Y-58374534D01*
X64510500Y-58172352D01*
X64510500Y-57967648D01*
X64495284Y-57871578D01*
X64478477Y-57765465D01*
X64415218Y-57570776D01*
X64381503Y-57504607D01*
X64322287Y-57388390D01*
X64306966Y-57367302D01*
X64201971Y-57222786D01*
X64057213Y-57078028D01*
X63891613Y-56957715D01*
X63891612Y-56957714D01*
X63891610Y-56957713D01*
X63709219Y-56864780D01*
X63514534Y-56801523D01*
X63514531Y-56801522D01*
X63509794Y-56800385D01*
X63510070Y-56799233D01*
X63451950Y-56771667D01*
X63415030Y-56712349D01*
X63410500Y-56679139D01*
X63410500Y-52490097D01*
X63430185Y-52423058D01*
X63446819Y-52402416D01*
X64862416Y-50986819D01*
X64923739Y-50953334D01*
X64950097Y-50950500D01*
X66069092Y-50950500D01*
X66136131Y-50970185D01*
G37*
%TD.AperFunction*%
%TA.AperFunction,Conductor*%
G36*
X53432539Y-63120185D02*
G01*
X53478294Y-63172989D01*
X53489500Y-63224500D01*
X53489500Y-63252351D01*
X53521522Y-63454534D01*
X53584781Y-63649223D01*
X53645545Y-63768477D01*
X53657624Y-63792184D01*
X53677715Y-63831613D01*
X53798028Y-63997213D01*
X53942786Y-64141971D01*
X54097749Y-64254556D01*
X54108390Y-64262287D01*
X54199840Y-64308883D01*
X54201080Y-64309515D01*
X54251876Y-64357490D01*
X54268671Y-64425311D01*
X54246134Y-64491446D01*
X54201080Y-64530485D01*
X54108386Y-64577715D01*
X53942786Y-64698028D01*
X53798028Y-64842786D01*
X53677715Y-65008386D01*
X53584781Y-65190776D01*
X53521523Y-65385464D01*
X53514907Y-65427236D01*
X53484977Y-65490370D01*
X53425666Y-65527301D01*
X53355803Y-65526303D01*
X53304753Y-65495518D01*
X52487590Y-64678355D01*
X52487588Y-64678352D01*
X52368717Y-64559481D01*
X52368709Y-64559475D01*
X52239332Y-64484780D01*
X52239328Y-64484778D01*
X52231785Y-64480423D01*
X52079057Y-64439499D01*
X51920943Y-64439499D01*
X51913347Y-64439499D01*
X51913331Y-64439500D01*
X50729602Y-64439500D01*
X50662563Y-64419815D01*
X50619117Y-64371795D01*
X50612284Y-64358385D01*
X50491971Y-64192786D01*
X50347213Y-64048028D01*
X50181614Y-63927715D01*
X50175006Y-63924348D01*
X50088917Y-63880483D01*
X50038123Y-63832511D01*
X50021328Y-63764690D01*
X50043865Y-63698555D01*
X50088917Y-63659516D01*
X50181610Y-63612287D01*
X50268030Y-63549500D01*
X50347213Y-63491971D01*
X50347215Y-63491968D01*
X50347219Y-63491966D01*
X50491966Y-63347219D01*
X50491968Y-63347215D01*
X50491971Y-63347213D01*
X50612284Y-63181614D01*
X50612283Y-63181614D01*
X50612287Y-63181610D01*
X50619117Y-63168204D01*
X50667091Y-63117409D01*
X50729602Y-63100500D01*
X53365500Y-63100500D01*
X53432539Y-63120185D01*
G37*
%TD.AperFunction*%
%TA.AperFunction,Conductor*%
G36*
X58030500Y-62274038D02*
G01*
X58166578Y-62310501D01*
X58166581Y-62310501D01*
X58332288Y-62310501D01*
X58332304Y-62310500D01*
X61175812Y-62310500D01*
X61242851Y-62330185D01*
X61288606Y-62382989D01*
X61298550Y-62452147D01*
X61286297Y-62490795D01*
X61204781Y-62650776D01*
X61141522Y-62845465D01*
X61109500Y-63047648D01*
X61109500Y-63252351D01*
X61141522Y-63454534D01*
X61204781Y-63649223D01*
X61265545Y-63768477D01*
X61277624Y-63792184D01*
X61297715Y-63831613D01*
X61418028Y-63997213D01*
X61562786Y-64141971D01*
X61717749Y-64254556D01*
X61728390Y-64262287D01*
X61819840Y-64308883D01*
X61821080Y-64309515D01*
X61871876Y-64357490D01*
X61888671Y-64425311D01*
X61866134Y-64491446D01*
X61821080Y-64530485D01*
X61728386Y-64577715D01*
X61562786Y-64698028D01*
X61418028Y-64842786D01*
X61297715Y-65008386D01*
X61204781Y-65190776D01*
X61141523Y-65385464D01*
X61134907Y-65427236D01*
X61104977Y-65490370D01*
X61045666Y-65527301D01*
X60975803Y-65526303D01*
X60924753Y-65495518D01*
X57910730Y-62481495D01*
X57877245Y-62420172D01*
X57882229Y-62350480D01*
X57924101Y-62294547D01*
X57989565Y-62270130D01*
X58030500Y-62274038D01*
G37*
%TD.AperFunction*%
%TA.AperFunction,Conductor*%
G36*
X44828961Y-64120185D02*
G01*
X44862237Y-64151611D01*
X44969892Y-64299786D01*
X44969896Y-64299792D01*
X45120213Y-64450109D01*
X45292182Y-64575050D01*
X45300946Y-64579516D01*
X45351742Y-64627491D01*
X45368536Y-64695312D01*
X45345998Y-64761447D01*
X45300946Y-64800484D01*
X45292182Y-64804949D01*
X45120213Y-64929890D01*
X44969890Y-65080213D01*
X44844951Y-65252180D01*
X44804385Y-65331795D01*
X44756410Y-65382591D01*
X44693900Y-65399500D01*
X41910719Y-65399500D01*
X41843680Y-65379815D01*
X41800235Y-65331795D01*
X41780052Y-65292185D01*
X41780051Y-65292184D01*
X41655109Y-65120213D01*
X41504792Y-64969896D01*
X41449728Y-64929890D01*
X41340204Y-64850316D01*
X41297540Y-64794989D01*
X41291561Y-64725376D01*
X41324166Y-64663580D01*
X41340199Y-64649686D01*
X41504792Y-64530104D01*
X41655104Y-64379792D01*
X41655106Y-64379788D01*
X41655109Y-64379786D01*
X41713661Y-64299193D01*
X41780051Y-64207816D01*
X41780349Y-64207230D01*
X41800235Y-64168205D01*
X41848209Y-64117409D01*
X41910719Y-64100500D01*
X44761922Y-64100500D01*
X44828961Y-64120185D01*
G37*
%TD.AperFunction*%
%TA.AperFunction,Conductor*%
G36*
X69286131Y-50970185D02*
G01*
X69324636Y-51014271D01*
X69326395Y-51013187D01*
X69330185Y-51019332D01*
X69330186Y-51019334D01*
X69422288Y-51168656D01*
X69422289Y-51168657D01*
X69515951Y-51262319D01*
X69549436Y-51323642D01*
X69544452Y-51393334D01*
X69515951Y-51437681D01*
X69422289Y-51531342D01*
X69330187Y-51680663D01*
X69330185Y-51680668D01*
X69320638Y-51709480D01*
X69275001Y-51847203D01*
X69275001Y-51847204D01*
X69275000Y-51847204D01*
X69264500Y-51949983D01*
X69264500Y-52750001D01*
X69264501Y-52750019D01*
X69275000Y-52852796D01*
X69275001Y-52852799D01*
X69330185Y-53019331D01*
X69330187Y-53019336D01*
X69343048Y-53040187D01*
X69422288Y-53168656D01*
X69546344Y-53292712D01*
X69695666Y-53384814D01*
X69779505Y-53412595D01*
X69836948Y-53452366D01*
X69863772Y-53516882D01*
X69864500Y-53530300D01*
X69864500Y-54467605D01*
X69844815Y-54534644D01*
X69792011Y-54580399D01*
X69772595Y-54587379D01*
X69741177Y-54595797D01*
X69741175Y-54595798D01*
X69619249Y-54646302D01*
X69619248Y-54646303D01*
X69505250Y-54712120D01*
X69505232Y-54712132D01*
X69400555Y-54792455D01*
X69400545Y-54792464D01*
X69307464Y-54885545D01*
X69307455Y-54885555D01*
X69227132Y-54990232D01*
X69227120Y-54990250D01*
X69161303Y-55104248D01*
X69161302Y-55104249D01*
X69110800Y-55226170D01*
X69076724Y-55353341D01*
X69059500Y-55484166D01*
X69059500Y-56050002D01*
X69064644Y-56121939D01*
X69075603Y-56159262D01*
X69079363Y-56211841D01*
X69059500Y-56349998D01*
X69059500Y-56915833D01*
X69076724Y-57046658D01*
X69076725Y-57046662D01*
X69110800Y-57173829D01*
X69136614Y-57236150D01*
X69161302Y-57295750D01*
X69161303Y-57295751D01*
X69227120Y-57409749D01*
X69227132Y-57409767D01*
X69273373Y-57470028D01*
X69307459Y-57514449D01*
X69400551Y-57607541D01*
X69400555Y-57607544D01*
X69505232Y-57687867D01*
X69505236Y-57687869D01*
X69505243Y-57687875D01*
X69505250Y-57687879D01*
X69619249Y-57753697D01*
X69619257Y-57753701D01*
X69637951Y-57761444D01*
X69692355Y-57805284D01*
X69714421Y-57871578D01*
X69714500Y-57876006D01*
X69714500Y-61884902D01*
X69694815Y-61951941D01*
X69678181Y-61972583D01*
X68137584Y-63513181D01*
X68076261Y-63546666D01*
X68049903Y-63549500D01*
X67924602Y-63549500D01*
X67857563Y-63529815D01*
X67814117Y-63481795D01*
X67807284Y-63468385D01*
X67686971Y-63302786D01*
X67542219Y-63158034D01*
X67486303Y-63117409D01*
X67448547Y-63089978D01*
X67405882Y-63034649D01*
X67399903Y-62965036D01*
X67432508Y-62903240D01*
X67482426Y-62871955D01*
X67564334Y-62844814D01*
X67713656Y-62752712D01*
X67837712Y-62628656D01*
X67929814Y-62479334D01*
X67984999Y-62312797D01*
X67995500Y-62210009D01*
X67995499Y-61009992D01*
X67994716Y-61002331D01*
X67984999Y-60907203D01*
X67984998Y-60907200D01*
X67971837Y-60867482D01*
X67929814Y-60740666D01*
X67837712Y-60591344D01*
X67713656Y-60467288D01*
X67564334Y-60375186D01*
X67488277Y-60349983D01*
X67397795Y-60320000D01*
X67393533Y-60319088D01*
X67332102Y-60285801D01*
X67298419Y-60224586D01*
X67295500Y-60197837D01*
X67295500Y-57979500D01*
X67315185Y-57912461D01*
X67367989Y-57866706D01*
X67419500Y-57855500D01*
X67630819Y-57855500D01*
X67630826Y-57855500D01*
X67761662Y-57838275D01*
X67888829Y-57804200D01*
X68010743Y-57753701D01*
X68124757Y-57687875D01*
X68229449Y-57607541D01*
X68322541Y-57514449D01*
X68402875Y-57409757D01*
X68468701Y-57295743D01*
X68519200Y-57173829D01*
X68553275Y-57046662D01*
X68570500Y-56915826D01*
X68570500Y-56350000D01*
X68565355Y-56278060D01*
X68554396Y-56240740D01*
X68550636Y-56188158D01*
X68570500Y-56050000D01*
X68570500Y-55484174D01*
X68553275Y-55353338D01*
X68519200Y-55226171D01*
X68468701Y-55104257D01*
X68468698Y-55104252D01*
X68468697Y-55104249D01*
X68468696Y-55104248D01*
X68402879Y-54990250D01*
X68402875Y-54990243D01*
X68393326Y-54977799D01*
X68333464Y-54899786D01*
X68322541Y-54885551D01*
X68229449Y-54792459D01*
X68205684Y-54774223D01*
X68124767Y-54712132D01*
X68124760Y-54712127D01*
X68124757Y-54712125D01*
X68124753Y-54712122D01*
X68124749Y-54712120D01*
X68010753Y-54646304D01*
X68010741Y-54646298D01*
X67992042Y-54638552D01*
X67937641Y-54594709D01*
X67915579Y-54528413D01*
X67915500Y-54523993D01*
X67915500Y-53530300D01*
X67935185Y-53463261D01*
X67987989Y-53417506D01*
X68000482Y-53412599D01*
X68084334Y-53384814D01*
X68233656Y-53292712D01*
X68357712Y-53168656D01*
X68449814Y-53019334D01*
X68504999Y-52852797D01*
X68515500Y-52750009D01*
X68515499Y-51949992D01*
X68504999Y-51847203D01*
X68449814Y-51680666D01*
X68357712Y-51531344D01*
X68264049Y-51437681D01*
X68230564Y-51376358D01*
X68235548Y-51306666D01*
X68264049Y-51262319D01*
X68290400Y-51235968D01*
X68357712Y-51168656D01*
X68449814Y-51019334D01*
X68449814Y-51019332D01*
X68453605Y-51013187D01*
X68455399Y-51014293D01*
X68494687Y-50969663D01*
X68560908Y-50950500D01*
X69219092Y-50950500D01*
X69286131Y-50970185D01*
G37*
%TD.AperFunction*%
%TA.AperFunction,Conductor*%
G36*
X44592540Y-61620185D02*
G01*
X44638295Y-61672989D01*
X44649501Y-61724500D01*
X44649501Y-61777876D01*
X44655908Y-61837483D01*
X44706202Y-61972328D01*
X44706206Y-61972335D01*
X44792452Y-62087544D01*
X44792454Y-62087546D01*
X44907664Y-62173793D01*
X44907671Y-62173797D01*
X45039082Y-62222810D01*
X45095016Y-62264681D01*
X45119433Y-62330145D01*
X45104582Y-62398418D01*
X45083431Y-62426673D01*
X44969889Y-62540215D01*
X44844951Y-62712180D01*
X44784004Y-62831795D01*
X44736029Y-62882591D01*
X44673519Y-62899500D01*
X41910719Y-62899500D01*
X41843680Y-62879815D01*
X41800235Y-62831795D01*
X41780052Y-62792185D01*
X41780051Y-62792184D01*
X41655109Y-62620213D01*
X41516294Y-62481398D01*
X41482809Y-62420075D01*
X41487793Y-62350383D01*
X41529665Y-62294450D01*
X41538879Y-62288178D01*
X41544331Y-62284814D01*
X41544334Y-62284814D01*
X41693656Y-62192712D01*
X41817712Y-62068656D01*
X41909814Y-61919334D01*
X41964999Y-61752797D01*
X41969177Y-61711896D01*
X41995573Y-61647207D01*
X42052753Y-61607055D01*
X42092535Y-61600500D01*
X44525501Y-61600500D01*
X44592540Y-61620185D01*
G37*
%TD.AperFunction*%
%TA.AperFunction,Conductor*%
G36*
X53481238Y-60130185D02*
G01*
X53526993Y-60182989D01*
X53536937Y-60252147D01*
X53532130Y-60272817D01*
X53521524Y-60305457D01*
X53521523Y-60305464D01*
X53489500Y-60507648D01*
X53489500Y-60712351D01*
X53521522Y-60914534D01*
X53584781Y-61109223D01*
X53602853Y-61144690D01*
X53660618Y-61258060D01*
X53677715Y-61291613D01*
X53798028Y-61457213D01*
X53798034Y-61457219D01*
X53942781Y-61601966D01*
X54040537Y-61672989D01*
X54043554Y-61675181D01*
X54086220Y-61730511D01*
X54092199Y-61800125D01*
X54059594Y-61861920D01*
X53998755Y-61896277D01*
X53970669Y-61899500D01*
X50729602Y-61899500D01*
X50662563Y-61879815D01*
X50619117Y-61831795D01*
X50612284Y-61818385D01*
X50491971Y-61652786D01*
X50347219Y-61508034D01*
X50310930Y-61481669D01*
X50268264Y-61426339D01*
X50262285Y-61356726D01*
X50294890Y-61294931D01*
X50355728Y-61260573D01*
X50370562Y-61258060D01*
X50407483Y-61254091D01*
X50542328Y-61203797D01*
X50542327Y-61203797D01*
X50542331Y-61203796D01*
X50657546Y-61117546D01*
X50743796Y-61002331D01*
X50794091Y-60867483D01*
X50800500Y-60807873D01*
X50800500Y-60234500D01*
X50820185Y-60167461D01*
X50872989Y-60121706D01*
X50924500Y-60110500D01*
X53414199Y-60110500D01*
X53481238Y-60130185D01*
G37*
%TD.AperFunction*%
%TA.AperFunction,Conductor*%
G36*
X83942539Y-48020185D02*
G01*
X83988294Y-48072989D01*
X83999500Y-48124500D01*
X83999500Y-83875500D01*
X83979815Y-83942539D01*
X83927011Y-83988294D01*
X83875500Y-83999500D01*
X35124500Y-83999500D01*
X35057461Y-83979815D01*
X35011706Y-83927011D01*
X35000500Y-83875500D01*
X35000500Y-60349983D01*
X39024500Y-60349983D01*
X39024500Y-61650001D01*
X39024501Y-61650018D01*
X39035000Y-61752796D01*
X39035001Y-61752799D01*
X39078776Y-61884902D01*
X39090186Y-61919334D01*
X39182192Y-62068501D01*
X39182289Y-62068657D01*
X39306344Y-62192712D01*
X39461120Y-62288178D01*
X39507845Y-62340126D01*
X39519068Y-62409088D01*
X39491224Y-62473171D01*
X39483706Y-62481398D01*
X39344889Y-62620215D01*
X39219951Y-62792179D01*
X39123444Y-62981585D01*
X39123443Y-62981587D01*
X39123443Y-62981588D01*
X39106202Y-63034649D01*
X39057753Y-63183760D01*
X39024500Y-63393713D01*
X39024500Y-63606286D01*
X39057753Y-63816239D01*
X39123444Y-64018414D01*
X39219951Y-64207820D01*
X39344890Y-64379786D01*
X39495209Y-64530105D01*
X39495214Y-64530109D01*
X39659793Y-64649682D01*
X39702459Y-64705011D01*
X39708438Y-64774625D01*
X39675833Y-64836420D01*
X39659793Y-64850318D01*
X39495214Y-64969890D01*
X39495209Y-64969894D01*
X39344890Y-65120213D01*
X39219951Y-65292179D01*
X39123444Y-65481585D01*
X39057753Y-65683760D01*
X39024500Y-65893713D01*
X39024500Y-66106286D01*
X39056794Y-66310185D01*
X39057754Y-66316243D01*
X39108224Y-66471574D01*
X39123444Y-66518414D01*
X39219951Y-66707820D01*
X39344890Y-66879786D01*
X39495209Y-67030105D01*
X39495214Y-67030109D01*
X39659793Y-67149682D01*
X39702459Y-67205011D01*
X39708438Y-67274625D01*
X39675833Y-67336420D01*
X39659793Y-67350318D01*
X39495214Y-67469890D01*
X39495209Y-67469894D01*
X39344890Y-67620213D01*
X39219951Y-67792179D01*
X39123444Y-67981585D01*
X39123443Y-67981587D01*
X39123443Y-67981588D01*
X39107243Y-68031446D01*
X39057753Y-68183760D01*
X39024500Y-68393713D01*
X39024500Y-68606286D01*
X39053882Y-68791801D01*
X39057754Y-68816243D01*
X39105137Y-68962073D01*
X39123444Y-69018414D01*
X39219951Y-69207820D01*
X39344890Y-69379786D01*
X39495209Y-69530105D01*
X39495214Y-69530109D01*
X39659793Y-69649682D01*
X39702459Y-69705011D01*
X39708438Y-69774625D01*
X39675833Y-69836420D01*
X39659793Y-69850318D01*
X39495214Y-69969890D01*
X39495209Y-69969894D01*
X39344890Y-70120213D01*
X39219951Y-70292179D01*
X39123444Y-70481585D01*
X39057753Y-70683760D01*
X39024500Y-70893713D01*
X39024500Y-71106286D01*
X39050552Y-71270776D01*
X39057754Y-71316243D01*
X39118441Y-71503019D01*
X39123444Y-71518414D01*
X39219951Y-71707820D01*
X39344890Y-71879786D01*
X39495209Y-72030105D01*
X39495214Y-72030109D01*
X39659793Y-72149682D01*
X39702459Y-72205011D01*
X39708438Y-72274625D01*
X39675833Y-72336420D01*
X39659793Y-72350318D01*
X39495214Y-72469890D01*
X39495209Y-72469894D01*
X39344890Y-72620213D01*
X39219951Y-72792179D01*
X39123444Y-72981585D01*
X39057753Y-73183760D01*
X39024500Y-73393713D01*
X39024500Y-73606286D01*
X39050791Y-73772284D01*
X39057754Y-73816243D01*
X39119237Y-74005468D01*
X39123444Y-74018414D01*
X39219951Y-74207820D01*
X39344890Y-74379786D01*
X39495213Y-74530109D01*
X39667179Y-74655048D01*
X39667181Y-74655049D01*
X39667184Y-74655051D01*
X39856588Y-74751557D01*
X40058757Y-74817246D01*
X40268713Y-74850500D01*
X40268714Y-74850500D01*
X40731286Y-74850500D01*
X40731287Y-74850500D01*
X40941243Y-74817246D01*
X41143412Y-74751557D01*
X41332816Y-74655051D01*
X41428806Y-74585311D01*
X41504786Y-74530109D01*
X41504788Y-74530106D01*
X41504792Y-74530104D01*
X41655104Y-74379792D01*
X41655106Y-74379788D01*
X41655109Y-74379786D01*
X41721928Y-74287816D01*
X41780051Y-74207816D01*
X41780466Y-74207002D01*
X41800235Y-74168205D01*
X41848209Y-74117409D01*
X41910719Y-74100500D01*
X44673519Y-74100500D01*
X44740558Y-74120185D01*
X44784004Y-74168205D01*
X44844951Y-74287819D01*
X44969890Y-74459786D01*
X45120213Y-74610109D01*
X45292182Y-74735050D01*
X45300946Y-74739516D01*
X45351742Y-74787491D01*
X45368536Y-74855312D01*
X45345998Y-74921447D01*
X45300946Y-74960484D01*
X45292182Y-74964949D01*
X45120213Y-75089890D01*
X44969890Y-75240213D01*
X44844951Y-75412179D01*
X44748444Y-75601585D01*
X44682753Y-75803760D01*
X44664160Y-75921153D01*
X44649500Y-76013713D01*
X44649500Y-76226287D01*
X44650642Y-76233497D01*
X44682753Y-76436239D01*
X44682753Y-76436241D01*
X44682754Y-76436243D01*
X44737431Y-76604522D01*
X44748444Y-76638414D01*
X44844951Y-76827820D01*
X44969890Y-76999786D01*
X45120213Y-77150109D01*
X45292182Y-77275050D01*
X45300946Y-77279516D01*
X45351742Y-77327491D01*
X45368536Y-77395312D01*
X45345998Y-77461447D01*
X45300946Y-77500484D01*
X45292182Y-77504949D01*
X45120213Y-77629890D01*
X44969890Y-77780213D01*
X44844951Y-77952179D01*
X44748444Y-78141585D01*
X44748443Y-78141587D01*
X44748443Y-78141588D01*
X44693553Y-78310523D01*
X44692482Y-78313818D01*
X44653044Y-78371494D01*
X44588686Y-78398692D01*
X44574551Y-78399500D01*
X42745908Y-78399500D01*
X42678869Y-78379815D01*
X42640363Y-78335728D01*
X42638605Y-78336813D01*
X42622390Y-78310524D01*
X42542712Y-78181344D01*
X42418656Y-78057288D01*
X42269334Y-77965186D01*
X42102797Y-77910001D01*
X42102795Y-77910000D01*
X42000010Y-77899500D01*
X40999998Y-77899500D01*
X40999980Y-77899501D01*
X40897203Y-77910000D01*
X40897200Y-77910001D01*
X40730668Y-77965185D01*
X40730663Y-77965187D01*
X40581342Y-78057289D01*
X40457289Y-78181342D01*
X40365187Y-78330663D01*
X40365185Y-78330668D01*
X40310001Y-78497203D01*
X40299500Y-78599983D01*
X40299500Y-79400001D01*
X40299501Y-79400019D01*
X40310000Y-79502796D01*
X40310001Y-79502799D01*
X40365185Y-79669331D01*
X40365187Y-79669336D01*
X40377997Y-79690104D01*
X40456706Y-79817713D01*
X40457289Y-79818657D01*
X40550951Y-79912319D01*
X40584436Y-79973642D01*
X40579452Y-80043334D01*
X40550951Y-80087681D01*
X40457289Y-80181342D01*
X40365187Y-80330663D01*
X40365185Y-80330668D01*
X40348187Y-80381966D01*
X40310001Y-80497203D01*
X40310001Y-80497204D01*
X40310000Y-80497204D01*
X40299500Y-80599983D01*
X40299500Y-81400001D01*
X40299501Y-81400019D01*
X40310000Y-81502796D01*
X40310001Y-81502799D01*
X40363149Y-81663187D01*
X40365186Y-81669334D01*
X40457288Y-81818656D01*
X40581344Y-81942712D01*
X40730666Y-82034814D01*
X40897203Y-82089999D01*
X40999991Y-82100500D01*
X42000008Y-82100499D01*
X42000016Y-82100498D01*
X42000019Y-82100498D01*
X42056302Y-82094748D01*
X42102797Y-82089999D01*
X42269334Y-82034814D01*
X42418656Y-81942712D01*
X42542712Y-81818656D01*
X42634814Y-81669334D01*
X42634815Y-81669331D01*
X42638605Y-81663187D01*
X42640399Y-81664293D01*
X42679687Y-81619663D01*
X42745908Y-81600500D01*
X49254092Y-81600500D01*
X49321131Y-81620185D01*
X49359636Y-81664271D01*
X49361395Y-81663187D01*
X49365185Y-81669331D01*
X49365186Y-81669334D01*
X49457288Y-81818656D01*
X49581344Y-81942712D01*
X49730666Y-82034814D01*
X49897203Y-82089999D01*
X49999991Y-82100500D01*
X51000008Y-82100499D01*
X51000016Y-82100498D01*
X51000019Y-82100498D01*
X51056302Y-82094748D01*
X51102797Y-82089999D01*
X51269334Y-82034814D01*
X51418656Y-81942712D01*
X51542712Y-81818656D01*
X51634814Y-81669334D01*
X51689999Y-81502797D01*
X51700500Y-81400009D01*
X51700499Y-80982661D01*
X51700499Y-80599998D01*
X51700498Y-80599980D01*
X51689999Y-80497203D01*
X51689998Y-80497200D01*
X51680320Y-80467993D01*
X51634814Y-80330666D01*
X51542712Y-80181344D01*
X51449049Y-80087681D01*
X51415564Y-80026358D01*
X51420548Y-79956666D01*
X51449049Y-79912319D01*
X51484213Y-79877155D01*
X51542712Y-79818656D01*
X51634814Y-79669334D01*
X51689999Y-79502797D01*
X51700500Y-79400009D01*
X51700499Y-78599992D01*
X51697331Y-78568983D01*
X51689999Y-78497203D01*
X51689998Y-78497200D01*
X51657623Y-78399500D01*
X51634814Y-78330666D01*
X51542712Y-78181344D01*
X51418656Y-78057288D01*
X51269334Y-77965186D01*
X51102797Y-77910001D01*
X51102795Y-77910000D01*
X51000010Y-77899500D01*
X49999998Y-77899500D01*
X49999980Y-77899501D01*
X49897203Y-77910000D01*
X49897200Y-77910001D01*
X49730668Y-77965185D01*
X49730663Y-77965187D01*
X49581342Y-78057289D01*
X49457289Y-78181342D01*
X49451057Y-78191446D01*
X49377611Y-78310523D01*
X49361395Y-78336813D01*
X49359600Y-78335706D01*
X49320313Y-78380337D01*
X49254092Y-78399500D01*
X49180097Y-78399500D01*
X49113058Y-78379815D01*
X49092416Y-78363181D01*
X47333757Y-76604522D01*
X47300272Y-76543199D01*
X47303507Y-76478523D01*
X47317246Y-76436243D01*
X47350500Y-76226287D01*
X47350500Y-76013713D01*
X47317246Y-75803757D01*
X47251557Y-75601588D01*
X47155051Y-75412184D01*
X47155049Y-75412181D01*
X47155048Y-75412179D01*
X47030109Y-75240213D01*
X46879786Y-75089890D01*
X46707820Y-74964951D01*
X46707115Y-74964591D01*
X46699054Y-74960485D01*
X46648259Y-74912512D01*
X46631463Y-74844692D01*
X46653999Y-74778556D01*
X46699054Y-74739515D01*
X46707816Y-74735051D01*
X46769156Y-74690485D01*
X46879786Y-74610109D01*
X46879788Y-74610106D01*
X46879792Y-74610104D01*
X47030104Y-74459792D01*
X47030106Y-74459788D01*
X47030109Y-74459786D01*
X47155048Y-74287820D01*
X47155049Y-74287819D01*
X47155051Y-74287816D01*
X47173271Y-74252056D01*
X47221242Y-74201262D01*
X47289063Y-74184466D01*
X47355199Y-74207002D01*
X47371436Y-74220671D01*
X48163181Y-75012416D01*
X48196666Y-75073739D01*
X48199500Y-75100097D01*
X48199500Y-75302351D01*
X48231522Y-75504534D01*
X48294781Y-75699223D01*
X48348045Y-75803757D01*
X48375700Y-75858034D01*
X48387715Y-75881613D01*
X48508028Y-76047213D01*
X48652786Y-76191971D01*
X48775101Y-76280836D01*
X48818390Y-76312287D01*
X48891425Y-76349500D01*
X49000776Y-76405218D01*
X49000778Y-76405218D01*
X49000781Y-76405220D01*
X49096248Y-76436239D01*
X49195465Y-76468477D01*
X49258880Y-76478521D01*
X49397648Y-76500500D01*
X49397649Y-76500500D01*
X49602351Y-76500500D01*
X49602352Y-76500500D01*
X49804534Y-76468477D01*
X49999219Y-76405220D01*
X50181610Y-76312287D01*
X50319471Y-76212126D01*
X50347213Y-76191971D01*
X50347215Y-76191968D01*
X50347219Y-76191966D01*
X50491966Y-76047219D01*
X50491968Y-76047215D01*
X50491971Y-76047213D01*
X50560891Y-75952351D01*
X50612287Y-75881610D01*
X50705220Y-75699219D01*
X50768477Y-75504534D01*
X50800500Y-75302352D01*
X50800500Y-75097648D01*
X50785474Y-75002781D01*
X50768477Y-74895465D01*
X50717805Y-74739514D01*
X50705220Y-74700781D01*
X50705218Y-74700778D01*
X50705218Y-74700776D01*
X50659020Y-74610109D01*
X50612287Y-74518390D01*
X50576778Y-74469515D01*
X50491971Y-74352786D01*
X50347213Y-74208028D01*
X50181614Y-74087715D01*
X50175006Y-74084348D01*
X50088917Y-74040483D01*
X50038123Y-73992511D01*
X50021328Y-73924690D01*
X50043865Y-73858555D01*
X50088917Y-73819516D01*
X50181610Y-73772287D01*
X50202770Y-73756913D01*
X50347213Y-73651971D01*
X50347215Y-73651968D01*
X50347219Y-73651966D01*
X50491966Y-73507219D01*
X50491968Y-73507215D01*
X50491971Y-73507213D01*
X50612284Y-73341614D01*
X50612283Y-73341614D01*
X50612287Y-73341610D01*
X50619117Y-73328204D01*
X50667091Y-73277409D01*
X50729602Y-73260500D01*
X51149903Y-73260500D01*
X51216942Y-73280185D01*
X51237584Y-73296819D01*
X52653181Y-74712416D01*
X52686666Y-74773739D01*
X52689500Y-74800097D01*
X52689500Y-76969018D01*
X52689499Y-76969036D01*
X52689499Y-77134742D01*
X52689499Y-77134743D01*
X52689500Y-77134745D01*
X52693617Y-77150109D01*
X52708296Y-77204895D01*
X52730421Y-77287465D01*
X52730426Y-77287476D01*
X52809475Y-77424395D01*
X52809481Y-77424403D01*
X52863181Y-77478103D01*
X52896666Y-77539426D01*
X52899500Y-77565784D01*
X52899500Y-78568965D01*
X52899499Y-78568983D01*
X52899499Y-78734691D01*
X52940421Y-78887415D01*
X52940422Y-78887417D01*
X52940423Y-78887420D01*
X52942936Y-78891772D01*
X52942940Y-78891786D01*
X52942943Y-78891785D01*
X53019475Y-79024344D01*
X53019481Y-79024352D01*
X53138349Y-79143220D01*
X53138355Y-79143225D01*
X53849504Y-79854374D01*
X53849525Y-79854397D01*
X53850643Y-79855515D01*
X53850787Y-79855779D01*
X53857082Y-79862672D01*
X53857092Y-79862684D01*
X53855350Y-79864135D01*
X53884128Y-79916838D01*
X53879144Y-79986530D01*
X53850645Y-80030876D01*
X53798415Y-80083107D01*
X53678140Y-80248650D01*
X53585244Y-80430970D01*
X53522009Y-80625586D01*
X53513391Y-80680000D01*
X54874314Y-80680000D01*
X54869920Y-80684394D01*
X54817259Y-80775606D01*
X54790000Y-80877339D01*
X54790000Y-80982661D01*
X54817259Y-81084394D01*
X54869920Y-81175606D01*
X54874314Y-81180000D01*
X53513391Y-81180000D01*
X53522009Y-81234413D01*
X53585244Y-81429029D01*
X53678140Y-81611349D01*
X53798417Y-81776894D01*
X53798417Y-81776895D01*
X53943104Y-81921582D01*
X54108650Y-82041859D01*
X54290968Y-82134755D01*
X54485582Y-82197990D01*
X54687683Y-82230000D01*
X54940000Y-82230000D01*
X54940000Y-81245686D01*
X54944394Y-81250080D01*
X55035606Y-81302741D01*
X55137339Y-81330000D01*
X55242661Y-81330000D01*
X55344394Y-81302741D01*
X55435606Y-81250080D01*
X55440000Y-81245686D01*
X55440000Y-82230000D01*
X55692317Y-82230000D01*
X55894417Y-82197990D01*
X56089031Y-82134755D01*
X56271349Y-82041859D01*
X56436894Y-81921582D01*
X56436895Y-81921582D01*
X56581582Y-81776895D01*
X56581582Y-81776894D01*
X56701859Y-81611349D01*
X56794755Y-81429029D01*
X56857990Y-81234413D01*
X56866609Y-81180000D01*
X55505686Y-81180000D01*
X55510080Y-81175606D01*
X55562741Y-81084394D01*
X55590000Y-80982661D01*
X55590000Y-80877339D01*
X55562741Y-80775606D01*
X55510080Y-80684394D01*
X55505686Y-80680000D01*
X56866609Y-80680000D01*
X56857990Y-80625586D01*
X56794754Y-80430967D01*
X56713143Y-80270794D01*
X56700247Y-80202125D01*
X56726524Y-80137385D01*
X56783630Y-80097128D01*
X56823628Y-80090500D01*
X61175812Y-80090500D01*
X61242851Y-80110185D01*
X61288606Y-80162989D01*
X61298550Y-80232147D01*
X61286297Y-80270795D01*
X61204781Y-80430776D01*
X61141522Y-80625465D01*
X61109500Y-80827648D01*
X61109500Y-81032351D01*
X61141522Y-81234534D01*
X61204781Y-81429223D01*
X61242271Y-81502799D01*
X61292052Y-81600500D01*
X61297715Y-81611613D01*
X61418028Y-81777213D01*
X61562786Y-81921971D01*
X61717749Y-82034556D01*
X61728390Y-82042287D01*
X61822028Y-82089998D01*
X61910776Y-82135218D01*
X61910778Y-82135218D01*
X61910781Y-82135220D01*
X62015137Y-82169127D01*
X62105465Y-82198477D01*
X62206557Y-82214488D01*
X62307648Y-82230500D01*
X62307649Y-82230500D01*
X63312351Y-82230500D01*
X63312352Y-82230500D01*
X63514534Y-82198477D01*
X63709219Y-82135220D01*
X63891610Y-82042287D01*
X63984590Y-81974732D01*
X64057213Y-81921971D01*
X64057215Y-81921968D01*
X64057219Y-81921966D01*
X64201966Y-81777219D01*
X64201968Y-81777215D01*
X64201971Y-81777213D01*
X64322284Y-81611614D01*
X64322285Y-81611613D01*
X64322287Y-81611610D01*
X64329117Y-81598204D01*
X64377091Y-81547409D01*
X64439602Y-81530500D01*
X72688331Y-81530500D01*
X72688347Y-81530501D01*
X72695943Y-81530501D01*
X72854054Y-81530501D01*
X72854057Y-81530501D01*
X73006785Y-81489577D01*
X73056904Y-81460639D01*
X73143716Y-81410520D01*
X73255520Y-81298716D01*
X73255520Y-81298714D01*
X73265728Y-81288507D01*
X73265730Y-81288504D01*
X73870158Y-80684075D01*
X73931479Y-80650592D01*
X73996151Y-80653825D01*
X74010466Y-80658477D01*
X74212648Y-80690500D01*
X74212649Y-80690500D01*
X74417351Y-80690500D01*
X74417352Y-80690500D01*
X74619534Y-80658477D01*
X74814219Y-80595220D01*
X74996610Y-80502287D01*
X75095037Y-80430776D01*
X75162213Y-80381971D01*
X75162215Y-80381968D01*
X75162219Y-80381966D01*
X75306966Y-80237219D01*
X75306968Y-80237215D01*
X75306971Y-80237213D01*
X75382965Y-80132614D01*
X75427287Y-80071610D01*
X75520220Y-79889219D01*
X75583477Y-79694534D01*
X75615500Y-79492352D01*
X75615500Y-79287648D01*
X75606166Y-79228714D01*
X75583477Y-79085465D01*
X75537127Y-78942816D01*
X75520220Y-78890781D01*
X75520218Y-78890778D01*
X75520218Y-78890776D01*
X75456787Y-78766287D01*
X75427287Y-78708390D01*
X75395092Y-78664077D01*
X75306971Y-78542786D01*
X75162213Y-78398028D01*
X74996614Y-78277715D01*
X74959713Y-78258913D01*
X74903917Y-78230483D01*
X74853123Y-78182511D01*
X74836328Y-78114690D01*
X74858865Y-78048555D01*
X74903917Y-78009516D01*
X74996610Y-77962287D01*
X75017770Y-77946913D01*
X75162213Y-77841971D01*
X75162215Y-77841968D01*
X75162219Y-77841966D01*
X75306966Y-77697219D01*
X75306968Y-77697215D01*
X75306971Y-77697213D01*
X75379499Y-77597385D01*
X75427287Y-77531610D01*
X75520220Y-77349219D01*
X75583477Y-77154534D01*
X75615500Y-76952352D01*
X75615500Y-76747648D01*
X75598199Y-76638414D01*
X75583477Y-76545465D01*
X75537908Y-76405220D01*
X75520220Y-76350781D01*
X75520218Y-76350778D01*
X75520218Y-76350776D01*
X75482632Y-76277011D01*
X75427287Y-76168390D01*
X75398358Y-76128572D01*
X75306971Y-76002786D01*
X75162213Y-75858028D01*
X74996614Y-75737715D01*
X74990006Y-75734348D01*
X74903917Y-75690483D01*
X74853123Y-75642511D01*
X74836328Y-75574690D01*
X74858865Y-75508555D01*
X74903917Y-75469516D01*
X74996610Y-75422287D01*
X75017770Y-75406913D01*
X75162213Y-75301971D01*
X75162215Y-75301968D01*
X75162219Y-75301966D01*
X75306966Y-75157219D01*
X75306968Y-75157215D01*
X75306971Y-75157213D01*
X75380925Y-75055422D01*
X75427287Y-74991610D01*
X75520220Y-74809219D01*
X75583477Y-74614534D01*
X75615500Y-74412352D01*
X75615500Y-74207648D01*
X75596504Y-74087713D01*
X75583477Y-74005465D01*
X75530735Y-73843143D01*
X75520220Y-73810781D01*
X75520218Y-73810778D01*
X75520218Y-73810776D01*
X75486503Y-73744607D01*
X75427287Y-73628390D01*
X75407024Y-73600500D01*
X75306971Y-73462786D01*
X75162213Y-73318028D01*
X74996614Y-73197715D01*
X74921061Y-73159219D01*
X74903917Y-73150483D01*
X74853123Y-73102511D01*
X74836328Y-73034690D01*
X74858865Y-72968555D01*
X74903917Y-72929516D01*
X74996610Y-72882287D01*
X75017770Y-72866913D01*
X75162213Y-72761971D01*
X75162215Y-72761968D01*
X75162219Y-72761966D01*
X75306966Y-72617219D01*
X75306968Y-72617215D01*
X75306971Y-72617213D01*
X75365240Y-72537011D01*
X75427287Y-72451610D01*
X75520220Y-72269219D01*
X75583477Y-72074534D01*
X75615500Y-71872352D01*
X75615500Y-71684254D01*
X75635185Y-71617215D01*
X75687989Y-71571460D01*
X75757147Y-71561516D01*
X75820703Y-71590541D01*
X75857206Y-71645251D01*
X75865184Y-71669329D01*
X75865187Y-71669336D01*
X75957289Y-71818657D01*
X76050951Y-71912319D01*
X76084436Y-71973642D01*
X76079452Y-72043334D01*
X76050951Y-72087681D01*
X75957289Y-72181342D01*
X75865187Y-72330663D01*
X75865185Y-72330668D01*
X75848359Y-72381447D01*
X75810001Y-72497203D01*
X75810001Y-72497204D01*
X75810000Y-72497204D01*
X75799500Y-72599983D01*
X75799500Y-73400001D01*
X75799501Y-73400019D01*
X75810000Y-73502796D01*
X75810001Y-73502799D01*
X75849108Y-73620814D01*
X75865186Y-73669334D01*
X75957288Y-73818656D01*
X76081344Y-73942712D01*
X76230666Y-74034814D01*
X76314505Y-74062595D01*
X76371948Y-74102366D01*
X76398772Y-74166882D01*
X76399500Y-74180300D01*
X76399500Y-76148330D01*
X76399499Y-76148348D01*
X76399499Y-76314054D01*
X76399498Y-76314054D01*
X76440423Y-76466785D01*
X76457354Y-76496110D01*
X76457353Y-76496110D01*
X76457354Y-76496111D01*
X76519475Y-76603709D01*
X76519481Y-76603717D01*
X76638349Y-76722585D01*
X76638355Y-76722590D01*
X77666241Y-77750476D01*
X77699726Y-77811799D01*
X77696492Y-77876473D01*
X77682753Y-77918757D01*
X77649500Y-78128713D01*
X77649500Y-78341286D01*
X77681414Y-78542786D01*
X77682754Y-78551243D01*
X77742360Y-78734692D01*
X77748444Y-78753414D01*
X77844951Y-78942820D01*
X77969890Y-79114786D01*
X78083818Y-79228714D01*
X78117303Y-79290037D01*
X78112319Y-79359729D01*
X78070447Y-79415662D01*
X78039471Y-79432577D01*
X77907912Y-79481646D01*
X77907906Y-79481649D01*
X77792812Y-79567809D01*
X77792809Y-79567812D01*
X77706649Y-79682906D01*
X77706645Y-79682913D01*
X77656403Y-79817620D01*
X77656401Y-79817627D01*
X77650000Y-79877155D01*
X77650000Y-80525000D01*
X78566988Y-80525000D01*
X78534075Y-80582007D01*
X78500000Y-80709174D01*
X78500000Y-80840826D01*
X78534075Y-80967993D01*
X78566988Y-81025000D01*
X77650000Y-81025000D01*
X77650000Y-81672844D01*
X77656401Y-81732372D01*
X77656403Y-81732379D01*
X77706645Y-81867086D01*
X77706649Y-81867093D01*
X77792809Y-81982187D01*
X77792812Y-81982190D01*
X77907906Y-82068350D01*
X77907913Y-82068354D01*
X78042620Y-82118596D01*
X78042627Y-82118598D01*
X78102155Y-82124999D01*
X78102172Y-82125000D01*
X78750000Y-82125000D01*
X78750000Y-81208012D01*
X78807007Y-81240925D01*
X78934174Y-81275000D01*
X79065826Y-81275000D01*
X79192993Y-81240925D01*
X79250000Y-81208012D01*
X79250000Y-82125000D01*
X79897828Y-82125000D01*
X79897844Y-82124999D01*
X79957372Y-82118598D01*
X79957379Y-82118596D01*
X80092086Y-82068354D01*
X80092093Y-82068350D01*
X80207187Y-81982190D01*
X80207190Y-81982187D01*
X80293350Y-81867093D01*
X80293354Y-81867086D01*
X80343596Y-81732379D01*
X80343598Y-81732372D01*
X80349999Y-81672844D01*
X80350000Y-81672827D01*
X80350000Y-81025000D01*
X79433012Y-81025000D01*
X79465925Y-80967993D01*
X79500000Y-80840826D01*
X79500000Y-80709174D01*
X79465925Y-80582007D01*
X79433012Y-80525000D01*
X80350000Y-80525000D01*
X80350000Y-79877172D01*
X80349999Y-79877155D01*
X80343598Y-79817627D01*
X80343596Y-79817620D01*
X80293354Y-79682913D01*
X80293350Y-79682906D01*
X80207190Y-79567812D01*
X80207187Y-79567809D01*
X80092093Y-79481649D01*
X80092088Y-79481646D01*
X79960528Y-79432577D01*
X79904595Y-79390705D01*
X79880178Y-79325241D01*
X79895030Y-79256968D01*
X79916175Y-79228720D01*
X80030104Y-79114792D01*
X80051411Y-79085466D01*
X80155048Y-78942820D01*
X80155047Y-78942820D01*
X80155051Y-78942816D01*
X80251557Y-78753412D01*
X80317246Y-78551243D01*
X80350500Y-78341287D01*
X80350500Y-78128713D01*
X80317246Y-77918757D01*
X80251557Y-77716588D01*
X80155051Y-77527184D01*
X80155049Y-77527181D01*
X80155048Y-77527179D01*
X80030109Y-77355213D01*
X79879786Y-77204890D01*
X79707820Y-77079951D01*
X79518414Y-76983444D01*
X79518413Y-76983443D01*
X79518412Y-76983443D01*
X79316243Y-76917754D01*
X79316241Y-76917753D01*
X79316240Y-76917753D01*
X79154957Y-76892208D01*
X79106287Y-76884500D01*
X78893713Y-76884500D01*
X78865006Y-76889046D01*
X78683757Y-76917753D01*
X78641473Y-76931492D01*
X78571632Y-76933486D01*
X78515476Y-76901241D01*
X77636819Y-76022584D01*
X77603334Y-75961261D01*
X77600500Y-75934903D01*
X77600500Y-74180300D01*
X77620185Y-74113261D01*
X77672989Y-74067506D01*
X77685482Y-74062599D01*
X77769334Y-74034814D01*
X77918656Y-73942712D01*
X78042712Y-73818656D01*
X78134814Y-73669334D01*
X78134815Y-73669331D01*
X78138605Y-73663187D01*
X78140399Y-73664293D01*
X78179687Y-73619663D01*
X78245908Y-73600500D01*
X79754092Y-73600500D01*
X79821131Y-73620185D01*
X79859636Y-73664271D01*
X79861395Y-73663187D01*
X79865185Y-73669331D01*
X79865186Y-73669334D01*
X79957288Y-73818656D01*
X80081344Y-73942712D01*
X80230666Y-74034814D01*
X80397203Y-74089999D01*
X80499991Y-74100500D01*
X81500008Y-74100499D01*
X81500016Y-74100498D01*
X81500019Y-74100498D01*
X81556302Y-74094748D01*
X81602797Y-74089999D01*
X81769334Y-74034814D01*
X81918656Y-73942712D01*
X82042712Y-73818656D01*
X82134814Y-73669334D01*
X82189999Y-73502797D01*
X82200500Y-73400009D01*
X82200499Y-72599992D01*
X82199459Y-72589815D01*
X82189999Y-72497203D01*
X82189998Y-72497200D01*
X82174891Y-72451610D01*
X82134814Y-72330666D01*
X82042712Y-72181344D01*
X81949049Y-72087681D01*
X81915564Y-72026358D01*
X81920548Y-71956666D01*
X81949049Y-71912319D01*
X81989017Y-71872351D01*
X82042712Y-71818656D01*
X82134814Y-71669334D01*
X82189999Y-71502797D01*
X82200500Y-71400009D01*
X82200499Y-70599992D01*
X82197718Y-70572771D01*
X82189999Y-70497203D01*
X82189998Y-70497200D01*
X82179481Y-70465461D01*
X82134814Y-70330666D01*
X82042712Y-70181344D01*
X81918656Y-70057288D01*
X81776967Y-69969894D01*
X81769336Y-69965187D01*
X81769331Y-69965185D01*
X81759894Y-69962058D01*
X81602797Y-69910001D01*
X81602795Y-69910000D01*
X81500016Y-69899500D01*
X81500009Y-69899500D01*
X80800098Y-69899500D01*
X80733059Y-69879815D01*
X80712417Y-69863181D01*
X80636819Y-69787583D01*
X80603334Y-69726260D01*
X80600500Y-69699902D01*
X80600500Y-68349409D01*
X80620185Y-68282370D01*
X80668204Y-68238924D01*
X80832816Y-68155051D01*
X80906068Y-68101831D01*
X81004786Y-68030109D01*
X81004788Y-68030106D01*
X81004792Y-68030104D01*
X81155104Y-67879792D01*
X81155106Y-67879788D01*
X81155109Y-67879786D01*
X81280048Y-67707820D01*
X81280047Y-67707820D01*
X81280051Y-67707816D01*
X81376557Y-67518412D01*
X81442246Y-67316243D01*
X81475500Y-67106287D01*
X81475500Y-66893713D01*
X81442246Y-66683757D01*
X81376557Y-66481588D01*
X81280051Y-66292184D01*
X81280049Y-66292181D01*
X81280048Y-66292179D01*
X81155109Y-66120213D01*
X81004792Y-65969896D01*
X80840204Y-65850316D01*
X80797540Y-65794989D01*
X80791561Y-65725376D01*
X80824166Y-65663580D01*
X80840199Y-65649686D01*
X81004792Y-65530104D01*
X81155104Y-65379792D01*
X81155106Y-65379788D01*
X81155109Y-65379786D01*
X81280048Y-65207820D01*
X81280047Y-65207820D01*
X81280051Y-65207816D01*
X81376557Y-65018412D01*
X81442246Y-64816243D01*
X81475500Y-64606287D01*
X81475500Y-64393713D01*
X81442246Y-64183757D01*
X81376557Y-63981588D01*
X81280051Y-63792184D01*
X81280049Y-63792181D01*
X81280048Y-63792179D01*
X81155109Y-63620213D01*
X81004792Y-63469896D01*
X80983648Y-63454534D01*
X80840204Y-63350316D01*
X80797540Y-63294989D01*
X80791561Y-63225376D01*
X80824166Y-63163580D01*
X80840199Y-63149686D01*
X81004792Y-63030104D01*
X81155104Y-62879792D01*
X81155106Y-62879788D01*
X81155109Y-62879786D01*
X81280048Y-62707820D01*
X81280047Y-62707820D01*
X81280051Y-62707816D01*
X81376557Y-62518412D01*
X81442246Y-62316243D01*
X81475500Y-62106287D01*
X81475500Y-61893713D01*
X81442246Y-61683757D01*
X81376557Y-61481588D01*
X81280051Y-61292184D01*
X81280049Y-61292181D01*
X81280048Y-61292179D01*
X81155109Y-61120213D01*
X81015931Y-60981035D01*
X80982446Y-60919712D01*
X80987430Y-60850020D01*
X81029302Y-60794087D01*
X81038516Y-60787815D01*
X81193343Y-60692317D01*
X81317315Y-60568345D01*
X81409356Y-60419124D01*
X81409358Y-60419119D01*
X81464505Y-60252697D01*
X81464506Y-60252690D01*
X81474999Y-60149986D01*
X81475000Y-60149973D01*
X81475000Y-59750000D01*
X80404146Y-59750000D01*
X80442630Y-59683343D01*
X80475000Y-59562535D01*
X80475000Y-59437465D01*
X80442630Y-59316657D01*
X80404146Y-59250000D01*
X81474999Y-59250000D01*
X81474999Y-58850028D01*
X81474998Y-58850013D01*
X81464505Y-58747302D01*
X81409358Y-58580880D01*
X81409356Y-58580875D01*
X81317315Y-58431654D01*
X81193345Y-58307684D01*
X81044124Y-58215643D01*
X81044119Y-58215641D01*
X80877697Y-58160494D01*
X80877690Y-58160493D01*
X80774986Y-58150000D01*
X80250000Y-58150000D01*
X80250000Y-59095854D01*
X80183343Y-59057370D01*
X80062535Y-59025000D01*
X79937465Y-59025000D01*
X79816657Y-59057370D01*
X79750000Y-59095854D01*
X79750000Y-58150000D01*
X79225028Y-58150000D01*
X79225012Y-58150001D01*
X79122302Y-58160494D01*
X78955880Y-58215641D01*
X78955875Y-58215643D01*
X78806654Y-58307684D01*
X78682684Y-58431654D01*
X78590643Y-58580875D01*
X78590641Y-58580880D01*
X78535494Y-58747302D01*
X78535493Y-58747309D01*
X78525000Y-58850013D01*
X78525000Y-59250000D01*
X79595854Y-59250000D01*
X79557370Y-59316657D01*
X79525000Y-59437465D01*
X79525000Y-59562535D01*
X79557370Y-59683343D01*
X79595854Y-59750000D01*
X78525001Y-59750000D01*
X78525001Y-60149986D01*
X78535494Y-60252697D01*
X78590641Y-60419119D01*
X78590643Y-60419124D01*
X78682684Y-60568345D01*
X78806654Y-60692315D01*
X78961484Y-60787815D01*
X79008208Y-60839763D01*
X79019431Y-60908726D01*
X78991587Y-60972808D01*
X78984069Y-60981035D01*
X78844889Y-61120215D01*
X78719951Y-61292179D01*
X78623444Y-61481585D01*
X78557753Y-61683760D01*
X78526913Y-61878477D01*
X78524500Y-61893713D01*
X78524500Y-62106287D01*
X78524965Y-62109223D01*
X78557208Y-62312799D01*
X78557754Y-62316243D01*
X78611416Y-62481398D01*
X78623444Y-62518414D01*
X78719951Y-62707820D01*
X78844890Y-62879786D01*
X78995209Y-63030105D01*
X78995214Y-63030109D01*
X79159793Y-63149682D01*
X79202459Y-63205011D01*
X79208438Y-63274625D01*
X79175833Y-63336420D01*
X79159793Y-63350318D01*
X78995214Y-63469890D01*
X78995209Y-63469894D01*
X78844890Y-63620213D01*
X78719951Y-63792179D01*
X78623444Y-63981585D01*
X78557753Y-64183760D01*
X78524500Y-64393713D01*
X78524500Y-64606286D01*
X78557753Y-64816240D01*
X78602146Y-64952868D01*
X78604141Y-65022709D01*
X78571896Y-65078867D01*
X76634753Y-67016010D01*
X76634747Y-67016016D01*
X76631286Y-67019478D01*
X76631284Y-67019480D01*
X76519480Y-67131284D01*
X76489764Y-67182754D01*
X76484084Y-67192591D01*
X76484083Y-67192593D01*
X76457851Y-67238028D01*
X76440423Y-67268215D01*
X76399499Y-67420943D01*
X76399499Y-67420945D01*
X76399499Y-67589046D01*
X76399500Y-67589059D01*
X76399500Y-69819699D01*
X76379815Y-69886738D01*
X76327011Y-69932493D01*
X76314507Y-69937403D01*
X76302399Y-69941416D01*
X76230668Y-69965185D01*
X76230663Y-69965187D01*
X76081342Y-70057289D01*
X75957289Y-70181342D01*
X75865187Y-70330663D01*
X75865185Y-70330668D01*
X75847980Y-70382589D01*
X75810001Y-70497203D01*
X75810001Y-70497204D01*
X75810000Y-70497204D01*
X75799500Y-70599983D01*
X75799500Y-71347413D01*
X75779815Y-71414452D01*
X75727011Y-71460207D01*
X75657853Y-71470151D01*
X75594297Y-71441126D01*
X75557570Y-71385732D01*
X75520220Y-71270781D01*
X75427287Y-71088390D01*
X75417220Y-71074534D01*
X75306971Y-70922786D01*
X75162213Y-70778028D01*
X74996614Y-70657715D01*
X74978990Y-70648735D01*
X74903917Y-70610483D01*
X74853123Y-70562511D01*
X74836328Y-70494690D01*
X74858865Y-70428555D01*
X74903917Y-70389516D01*
X74996610Y-70342287D01*
X75065570Y-70292185D01*
X75162213Y-70221971D01*
X75162215Y-70221968D01*
X75162219Y-70221966D01*
X75306966Y-70077219D01*
X75306968Y-70077215D01*
X75306971Y-70077213D01*
X75384940Y-69969896D01*
X75427287Y-69911610D01*
X75520220Y-69729219D01*
X75583477Y-69534534D01*
X75615500Y-69332352D01*
X75615500Y-69127648D01*
X75598368Y-69019480D01*
X75583477Y-68925465D01*
X75542205Y-68798445D01*
X75520220Y-68730781D01*
X75520218Y-68730778D01*
X75520218Y-68730776D01*
X75456787Y-68606287D01*
X75427287Y-68548390D01*
X75417220Y-68534534D01*
X75306971Y-68382786D01*
X75162213Y-68238028D01*
X74996614Y-68117715D01*
X74925151Y-68081303D01*
X74903917Y-68070483D01*
X74853123Y-68022511D01*
X74836328Y-67954690D01*
X74858865Y-67888555D01*
X74903917Y-67849516D01*
X74996610Y-67802287D01*
X75043318Y-67768352D01*
X75162213Y-67681971D01*
X75162215Y-67681968D01*
X75162219Y-67681966D01*
X75306966Y-67537219D01*
X75306968Y-67537215D01*
X75306971Y-67537213D01*
X75391443Y-67420945D01*
X75427287Y-67371610D01*
X75520220Y-67189219D01*
X75583477Y-66994534D01*
X75615500Y-66792352D01*
X75615500Y-66587648D01*
X75604534Y-66518412D01*
X75583477Y-66385465D01*
X75552621Y-66290500D01*
X75520220Y-66190781D01*
X75520218Y-66190778D01*
X75520218Y-66190776D01*
X75477168Y-66106287D01*
X75427287Y-66008390D01*
X75363754Y-65920943D01*
X75306971Y-65842786D01*
X75162213Y-65698028D01*
X74996614Y-65577715D01*
X74990006Y-65574348D01*
X74903917Y-65530483D01*
X74853123Y-65482511D01*
X74836328Y-65414690D01*
X74858865Y-65348555D01*
X74903917Y-65309516D01*
X74996610Y-65262287D01*
X75069292Y-65209481D01*
X75162213Y-65141971D01*
X75162215Y-65141968D01*
X75162219Y-65141966D01*
X75306966Y-64997219D01*
X75306968Y-64997215D01*
X75306971Y-64997213D01*
X75359732Y-64924590D01*
X75427287Y-64831610D01*
X75520220Y-64649219D01*
X75583477Y-64454534D01*
X75615500Y-64252352D01*
X75615500Y-64047648D01*
X75605037Y-63981588D01*
X75583477Y-63845465D01*
X75520218Y-63650776D01*
X75486503Y-63584607D01*
X75427287Y-63468390D01*
X75417220Y-63454534D01*
X75306971Y-63302786D01*
X75162213Y-63158028D01*
X74996614Y-63037715D01*
X74981678Y-63030105D01*
X74903917Y-62990483D01*
X74853123Y-62942511D01*
X74836328Y-62874690D01*
X74858865Y-62808555D01*
X74903917Y-62769516D01*
X74996610Y-62722287D01*
X75031937Y-62696621D01*
X75162213Y-62601971D01*
X75162215Y-62601968D01*
X75162219Y-62601966D01*
X75306966Y-62457219D01*
X75306968Y-62457215D01*
X75306971Y-62457213D01*
X75373712Y-62365350D01*
X75427287Y-62291610D01*
X75520220Y-62109219D01*
X75583477Y-61914534D01*
X75615500Y-61712352D01*
X75615500Y-61507648D01*
X75583477Y-61305466D01*
X75578825Y-61291151D01*
X75576832Y-61221312D01*
X75609075Y-61165158D01*
X75858506Y-60915728D01*
X75858511Y-60915724D01*
X75868714Y-60905520D01*
X75868716Y-60905520D01*
X75980520Y-60793716D01*
X76036405Y-60696919D01*
X76059577Y-60656785D01*
X76100500Y-60504057D01*
X76100500Y-60345943D01*
X76100500Y-52799986D01*
X78600001Y-52799986D01*
X78610494Y-52902697D01*
X78665641Y-53069119D01*
X78665643Y-53069124D01*
X78757684Y-53218345D01*
X78881654Y-53342315D01*
X79030875Y-53434356D01*
X79030880Y-53434358D01*
X79197302Y-53489505D01*
X79197309Y-53489506D01*
X79300019Y-53499999D01*
X80749999Y-53499999D01*
X81250000Y-53499999D01*
X82699972Y-53499999D01*
X82699986Y-53499998D01*
X82802697Y-53489505D01*
X82969119Y-53434358D01*
X82969124Y-53434356D01*
X83118345Y-53342315D01*
X83242315Y-53218345D01*
X83334356Y-53069124D01*
X83334358Y-53069119D01*
X83389505Y-52902697D01*
X83389506Y-52902690D01*
X83399999Y-52799986D01*
X83400000Y-52799973D01*
X83400000Y-52250000D01*
X81250000Y-52250000D01*
X81250000Y-53499999D01*
X80749999Y-53499999D01*
X80750000Y-53499998D01*
X80750000Y-52250000D01*
X78600001Y-52250000D01*
X78600001Y-52799986D01*
X76100500Y-52799986D01*
X76100500Y-52474060D01*
X76100501Y-52474047D01*
X76100501Y-52305944D01*
X76100500Y-52305940D01*
X76093297Y-52279059D01*
X76059577Y-52153216D01*
X76022244Y-52088553D01*
X75980524Y-52016290D01*
X75980518Y-52016282D01*
X75164249Y-51200013D01*
X78600000Y-51200013D01*
X78600000Y-51750000D01*
X80750000Y-51750000D01*
X81250000Y-51750000D01*
X83399999Y-51750000D01*
X83399999Y-51200028D01*
X83399998Y-51200013D01*
X83389505Y-51097302D01*
X83334358Y-50930880D01*
X83334356Y-50930875D01*
X83242315Y-50781654D01*
X83118345Y-50657684D01*
X82969124Y-50565643D01*
X82969119Y-50565641D01*
X82802697Y-50510494D01*
X82802690Y-50510493D01*
X82699986Y-50500000D01*
X81250000Y-50500000D01*
X81250000Y-51750000D01*
X80750000Y-51750000D01*
X80750000Y-50500000D01*
X79300028Y-50500000D01*
X79300012Y-50500001D01*
X79197302Y-50510494D01*
X79030880Y-50565641D01*
X79030875Y-50565643D01*
X78881654Y-50657684D01*
X78757684Y-50781654D01*
X78665643Y-50930875D01*
X78665641Y-50930880D01*
X78610494Y-51097302D01*
X78610493Y-51097309D01*
X78600000Y-51200013D01*
X75164249Y-51200013D01*
X74701818Y-50737582D01*
X74668333Y-50676259D01*
X74665499Y-50649901D01*
X74665499Y-49949998D01*
X74665498Y-49949981D01*
X74654999Y-49847203D01*
X74654998Y-49847200D01*
X74645772Y-49819359D01*
X74599814Y-49680666D01*
X74507712Y-49531344D01*
X74383656Y-49407288D01*
X74234334Y-49315186D01*
X74067797Y-49260001D01*
X74067795Y-49260000D01*
X73965010Y-49249500D01*
X72964998Y-49249500D01*
X72964980Y-49249501D01*
X72862203Y-49260000D01*
X72862200Y-49260001D01*
X72695668Y-49315185D01*
X72695663Y-49315187D01*
X72546342Y-49407289D01*
X72422289Y-49531342D01*
X72326395Y-49686813D01*
X72324600Y-49685706D01*
X72285313Y-49730337D01*
X72219092Y-49749500D01*
X71710908Y-49749500D01*
X71643869Y-49729815D01*
X71605363Y-49685728D01*
X71603605Y-49686813D01*
X71599812Y-49680663D01*
X71507712Y-49531344D01*
X71383656Y-49407288D01*
X71234334Y-49315186D01*
X71067797Y-49260001D01*
X71067795Y-49260000D01*
X70965010Y-49249500D01*
X69964998Y-49249500D01*
X69964980Y-49249501D01*
X69862203Y-49260000D01*
X69862200Y-49260001D01*
X69695668Y-49315185D01*
X69695663Y-49315187D01*
X69546342Y-49407289D01*
X69422289Y-49531342D01*
X69326395Y-49686813D01*
X69324600Y-49685706D01*
X69285313Y-49730337D01*
X69219092Y-49749500D01*
X68560908Y-49749500D01*
X68493869Y-49729815D01*
X68455363Y-49685728D01*
X68453605Y-49686813D01*
X68449812Y-49680663D01*
X68357712Y-49531344D01*
X68233656Y-49407288D01*
X68084334Y-49315186D01*
X67917797Y-49260001D01*
X67917795Y-49260000D01*
X67815010Y-49249500D01*
X66814998Y-49249500D01*
X66814980Y-49249501D01*
X66712203Y-49260000D01*
X66712200Y-49260001D01*
X66545668Y-49315185D01*
X66545663Y-49315187D01*
X66396342Y-49407289D01*
X66272289Y-49531342D01*
X66176395Y-49686813D01*
X66174600Y-49685706D01*
X66135313Y-49730337D01*
X66069092Y-49749500D01*
X64736669Y-49749500D01*
X64736653Y-49749499D01*
X64729057Y-49749499D01*
X64570943Y-49749499D01*
X64463587Y-49778265D01*
X64418210Y-49790424D01*
X64418209Y-49790425D01*
X64368096Y-49819359D01*
X64368095Y-49819360D01*
X64324689Y-49844420D01*
X64281285Y-49869479D01*
X64281282Y-49869481D01*
X62329481Y-51821282D01*
X62329475Y-51821290D01*
X62281447Y-51904479D01*
X62281447Y-51904480D01*
X62250423Y-51958215D01*
X62209499Y-52110943D01*
X62209499Y-52110945D01*
X62209499Y-52279046D01*
X62209500Y-52279059D01*
X62209500Y-56679139D01*
X62189815Y-56746178D01*
X62137011Y-56791933D01*
X62110123Y-56800040D01*
X62110206Y-56800385D01*
X62105468Y-56801522D01*
X61910778Y-56864781D01*
X61728386Y-56957715D01*
X61562786Y-57078028D01*
X61418028Y-57222786D01*
X61297715Y-57388386D01*
X61204781Y-57570776D01*
X61141523Y-57765464D01*
X61134907Y-57807236D01*
X61104977Y-57870370D01*
X61045666Y-57907301D01*
X60975803Y-57906303D01*
X60924753Y-57875518D01*
X58521646Y-55472411D01*
X58488161Y-55411088D01*
X58493145Y-55341396D01*
X58503786Y-55319637D01*
X58534814Y-55269334D01*
X58589999Y-55102797D01*
X58600500Y-55000009D01*
X58600499Y-53999992D01*
X58589999Y-53897203D01*
X58534814Y-53730666D01*
X58442712Y-53581344D01*
X58318656Y-53457288D01*
X58201153Y-53384812D01*
X58169336Y-53365187D01*
X58169331Y-53365185D01*
X58167862Y-53364698D01*
X58002797Y-53310001D01*
X58002795Y-53310000D01*
X57900010Y-53299500D01*
X57099998Y-53299500D01*
X57099980Y-53299501D01*
X56997203Y-53310000D01*
X56997200Y-53310001D01*
X56830668Y-53365185D01*
X56830663Y-53365187D01*
X56681342Y-53457289D01*
X56587681Y-53550951D01*
X56526358Y-53584436D01*
X56456666Y-53579452D01*
X56412319Y-53550951D01*
X56318657Y-53457289D01*
X56318656Y-53457288D01*
X56201153Y-53384812D01*
X56169336Y-53365187D01*
X56169331Y-53365185D01*
X56167862Y-53364698D01*
X56002797Y-53310001D01*
X56002795Y-53310000D01*
X55900010Y-53299500D01*
X55099998Y-53299500D01*
X55099980Y-53299501D01*
X54997203Y-53310000D01*
X54997200Y-53310001D01*
X54830668Y-53365185D01*
X54830663Y-53365187D01*
X54681342Y-53457289D01*
X54557289Y-53581342D01*
X54536161Y-53615597D01*
X54484213Y-53662321D01*
X54430622Y-53674500D01*
X54217163Y-53674500D01*
X54150124Y-53654815D01*
X54104369Y-53602011D01*
X54095911Y-53576459D01*
X54095000Y-53572207D01*
X54094999Y-53572203D01*
X54039814Y-53405666D01*
X53947712Y-53256344D01*
X53823656Y-53132288D01*
X53674334Y-53040186D01*
X53591843Y-53012851D01*
X53534398Y-52973077D01*
X53507576Y-52908561D01*
X53519891Y-52839786D01*
X53529856Y-52828018D01*
X53530921Y-52814474D01*
X52851447Y-52135000D01*
X52857661Y-52135000D01*
X52959394Y-52107741D01*
X53050606Y-52055080D01*
X53125080Y-51980606D01*
X53177741Y-51889394D01*
X53205000Y-51787661D01*
X53205000Y-51781447D01*
X53884474Y-52460921D01*
X53916859Y-52416349D01*
X54009755Y-52234031D01*
X54072990Y-52039417D01*
X54105000Y-51837317D01*
X54105000Y-51632682D01*
X54072990Y-51430582D01*
X54009755Y-51235968D01*
X53916859Y-51053650D01*
X53884474Y-51009077D01*
X53884474Y-51009076D01*
X53205000Y-51688551D01*
X53205000Y-51682339D01*
X53177741Y-51580606D01*
X53125080Y-51489394D01*
X53050606Y-51414920D01*
X52959394Y-51362259D01*
X52857661Y-51335000D01*
X52851446Y-51335000D01*
X53530922Y-50655524D01*
X53530921Y-50655523D01*
X53486359Y-50623147D01*
X53486350Y-50623141D01*
X53304031Y-50530244D01*
X53109417Y-50467009D01*
X52907317Y-50435000D01*
X52702683Y-50435000D01*
X52500582Y-50467009D01*
X52305968Y-50530244D01*
X52123644Y-50623143D01*
X52079077Y-50655523D01*
X52079077Y-50655524D01*
X52758554Y-51335000D01*
X52752339Y-51335000D01*
X52650606Y-51362259D01*
X52559394Y-51414920D01*
X52484920Y-51489394D01*
X52432259Y-51580606D01*
X52405000Y-51682339D01*
X52405000Y-51688553D01*
X51725524Y-51009077D01*
X51725523Y-51009077D01*
X51693143Y-51053644D01*
X51600244Y-51235968D01*
X51537009Y-51430582D01*
X51505000Y-51632682D01*
X51505000Y-51837317D01*
X51537009Y-52039417D01*
X51600244Y-52234031D01*
X51693141Y-52416350D01*
X51693147Y-52416359D01*
X51725523Y-52460921D01*
X51725524Y-52460922D01*
X52405000Y-51781446D01*
X52405000Y-51787661D01*
X52432259Y-51889394D01*
X52484920Y-51980606D01*
X52559394Y-52055080D01*
X52650606Y-52107741D01*
X52752339Y-52135000D01*
X52758553Y-52135000D01*
X52079076Y-52814474D01*
X52080428Y-52831649D01*
X52094701Y-52850158D01*
X52100680Y-52919771D01*
X52068074Y-52981566D01*
X52018155Y-53012851D01*
X51998587Y-53019336D01*
X51935666Y-53040186D01*
X51935663Y-53040187D01*
X51786342Y-53132289D01*
X51662289Y-53256342D01*
X51570187Y-53405663D01*
X51570185Y-53405668D01*
X51554711Y-53452366D01*
X51515001Y-53572203D01*
X51515001Y-53572204D01*
X51515000Y-53572204D01*
X51504500Y-53674983D01*
X51504500Y-54875001D01*
X51504501Y-54875018D01*
X51515000Y-54977796D01*
X51515001Y-54977799D01*
X51556903Y-55104248D01*
X51570186Y-55144334D01*
X51662288Y-55293656D01*
X51786344Y-55417712D01*
X51935666Y-55509814D01*
X52102203Y-55564999D01*
X52204991Y-55575500D01*
X53405008Y-55575499D01*
X53507797Y-55564999D01*
X53674334Y-55509814D01*
X53823656Y-55417712D01*
X53947712Y-55293656D01*
X54039814Y-55144334D01*
X54094999Y-54977797D01*
X54094999Y-54977793D01*
X54095912Y-54973533D01*
X54129199Y-54912102D01*
X54190414Y-54878419D01*
X54217163Y-54875500D01*
X54275501Y-54875500D01*
X54342540Y-54895185D01*
X54388295Y-54947989D01*
X54398931Y-54996879D01*
X54399341Y-54996859D01*
X54399467Y-54999346D01*
X54399501Y-54999500D01*
X54399501Y-55000018D01*
X54410000Y-55102796D01*
X54410001Y-55102799D01*
X54450883Y-55226170D01*
X54465186Y-55269334D01*
X54557288Y-55418656D01*
X54681344Y-55542712D01*
X54830666Y-55634814D01*
X54997203Y-55689999D01*
X55099991Y-55700500D01*
X55900008Y-55700499D01*
X55900016Y-55700498D01*
X55900019Y-55700498D01*
X55956302Y-55694748D01*
X56002797Y-55689999D01*
X56169334Y-55634814D01*
X56318656Y-55542712D01*
X56412319Y-55449049D01*
X56473642Y-55415564D01*
X56543334Y-55420548D01*
X56587681Y-55449049D01*
X56681344Y-55542712D01*
X56830666Y-55634814D01*
X56997203Y-55689999D01*
X57001650Y-55690453D01*
X57001833Y-55690472D01*
X57066525Y-55716867D01*
X57076913Y-55726149D01*
X57138349Y-55787585D01*
X57138355Y-55787590D01*
X61227744Y-59876979D01*
X61261229Y-59938302D01*
X61256245Y-60007994D01*
X61250548Y-60020954D01*
X61204779Y-60110781D01*
X61204779Y-60110782D01*
X61141523Y-60305461D01*
X61141523Y-60305464D01*
X61109500Y-60507648D01*
X61109500Y-60712351D01*
X61141523Y-60914535D01*
X61141524Y-60914542D01*
X61152130Y-60947183D01*
X61154125Y-61017024D01*
X61118044Y-61076857D01*
X61055343Y-61107684D01*
X61034199Y-61109500D01*
X58545732Y-61109500D01*
X58478693Y-61089815D01*
X58458051Y-61073181D01*
X56690446Y-59305576D01*
X56656961Y-59244253D01*
X56661945Y-59174561D01*
X56690447Y-59130213D01*
X56732315Y-59088345D01*
X56824356Y-58939124D01*
X56824358Y-58939119D01*
X56879505Y-58772697D01*
X56879506Y-58772690D01*
X56889999Y-58669986D01*
X56890000Y-58669973D01*
X56890000Y-58320000D01*
X55505686Y-58320000D01*
X55510080Y-58315606D01*
X55562741Y-58224394D01*
X55590000Y-58122661D01*
X55590000Y-58017339D01*
X55562741Y-57915606D01*
X55510080Y-57824394D01*
X55505686Y-57820000D01*
X56889999Y-57820000D01*
X56889999Y-57470028D01*
X56889998Y-57470013D01*
X56879505Y-57367302D01*
X56824358Y-57200880D01*
X56824356Y-57200875D01*
X56732315Y-57051654D01*
X56608345Y-56927684D01*
X56459124Y-56835643D01*
X56459119Y-56835641D01*
X56292697Y-56780494D01*
X56292690Y-56780493D01*
X56189986Y-56770000D01*
X55440000Y-56770000D01*
X55440000Y-57754314D01*
X55435606Y-57749920D01*
X55344394Y-57697259D01*
X55242661Y-57670000D01*
X55137339Y-57670000D01*
X55035606Y-57697259D01*
X54944394Y-57749920D01*
X54940000Y-57754314D01*
X54940000Y-56770000D01*
X54190028Y-56770000D01*
X54190012Y-56770001D01*
X54087302Y-56780494D01*
X53920880Y-56835641D01*
X53920875Y-56835643D01*
X53771654Y-56927684D01*
X53647684Y-57051654D01*
X53555643Y-57200875D01*
X53555641Y-57200880D01*
X53500494Y-57367302D01*
X53500493Y-57367309D01*
X53490000Y-57470013D01*
X53490000Y-57820000D01*
X54874314Y-57820000D01*
X54869920Y-57824394D01*
X54817259Y-57915606D01*
X54790000Y-58017339D01*
X54790000Y-58122661D01*
X54817259Y-58224394D01*
X54869920Y-58315606D01*
X54874314Y-58320000D01*
X53490001Y-58320000D01*
X53490001Y-58669986D01*
X53500515Y-58772898D01*
X53487745Y-58841591D01*
X53439865Y-58892475D01*
X53377157Y-58909500D01*
X50799751Y-58909500D01*
X50732712Y-58889815D01*
X50700485Y-58859812D01*
X50669939Y-58819009D01*
X50657546Y-58802454D01*
X50657542Y-58802451D01*
X50542335Y-58716206D01*
X50542328Y-58716202D01*
X50407482Y-58665908D01*
X50407483Y-58665908D01*
X50347883Y-58659501D01*
X50347881Y-58659500D01*
X50347873Y-58659500D01*
X50347864Y-58659500D01*
X48652129Y-58659500D01*
X48652123Y-58659501D01*
X48592516Y-58665908D01*
X48457671Y-58716202D01*
X48457664Y-58716206D01*
X48342455Y-58802452D01*
X48342452Y-58802455D01*
X48256206Y-58917664D01*
X48256202Y-58917671D01*
X48205908Y-59052517D01*
X48199501Y-59112116D01*
X48199500Y-59112135D01*
X48199501Y-60775500D01*
X48179816Y-60842539D01*
X48127013Y-60888294D01*
X48075501Y-60899500D01*
X47800097Y-60899500D01*
X47733058Y-60879815D01*
X47712416Y-60863181D01*
X47386818Y-60537583D01*
X47353333Y-60476260D01*
X47350499Y-60449902D01*
X47350499Y-59982129D01*
X47350498Y-59982123D01*
X47350497Y-59982116D01*
X47344091Y-59922517D01*
X47327106Y-59876979D01*
X47293797Y-59787671D01*
X47293793Y-59787664D01*
X47207547Y-59672455D01*
X47207544Y-59672452D01*
X47092335Y-59586206D01*
X47092328Y-59586202D01*
X46957482Y-59535908D01*
X46957483Y-59535908D01*
X46897883Y-59529501D01*
X46897881Y-59529500D01*
X46897873Y-59529500D01*
X46897864Y-59529500D01*
X45102129Y-59529500D01*
X45102123Y-59529501D01*
X45042516Y-59535908D01*
X44907671Y-59586202D01*
X44907664Y-59586206D01*
X44792455Y-59672452D01*
X44792452Y-59672455D01*
X44706206Y-59787664D01*
X44706202Y-59787671D01*
X44655908Y-59922517D01*
X44650266Y-59975000D01*
X44649501Y-59982123D01*
X44649500Y-59982135D01*
X44649500Y-60275500D01*
X44629815Y-60342539D01*
X44577011Y-60388294D01*
X44525500Y-60399500D01*
X42092535Y-60399500D01*
X42025496Y-60379815D01*
X41979741Y-60327011D01*
X41969177Y-60288102D01*
X41968663Y-60283071D01*
X41964999Y-60247203D01*
X41909814Y-60080666D01*
X41817712Y-59931344D01*
X41693656Y-59807288D01*
X41544334Y-59715186D01*
X41377797Y-59660001D01*
X41377795Y-59660000D01*
X41275010Y-59649500D01*
X39724998Y-59649500D01*
X39724981Y-59649501D01*
X39622203Y-59660000D01*
X39622200Y-59660001D01*
X39455668Y-59715185D01*
X39455663Y-59715187D01*
X39306342Y-59807289D01*
X39182289Y-59931342D01*
X39090187Y-60080663D01*
X39090185Y-60080668D01*
X39073777Y-60130185D01*
X39035001Y-60247203D01*
X39035001Y-60247204D01*
X39035000Y-60247204D01*
X39024500Y-60349983D01*
X35000500Y-60349983D01*
X35000500Y-54143713D01*
X39024500Y-54143713D01*
X39024500Y-54356287D01*
X39057754Y-54566243D01*
X39105156Y-54712132D01*
X39123444Y-54768414D01*
X39219951Y-54957820D01*
X39344890Y-55129786D01*
X39495213Y-55280109D01*
X39667179Y-55405048D01*
X39667181Y-55405049D01*
X39667184Y-55405051D01*
X39856588Y-55501557D01*
X40058757Y-55567246D01*
X40268713Y-55600500D01*
X40268714Y-55600500D01*
X40781286Y-55600500D01*
X40781287Y-55600500D01*
X40991243Y-55567246D01*
X41193412Y-55501557D01*
X41382816Y-55405051D01*
X41453989Y-55353341D01*
X41554786Y-55280109D01*
X41554788Y-55280106D01*
X41554792Y-55280104D01*
X41705104Y-55129792D01*
X41705106Y-55129788D01*
X41705109Y-55129786D01*
X41830049Y-54957819D01*
X41837497Y-54943203D01*
X41885473Y-54892408D01*
X41947981Y-54875500D01*
X43955398Y-54875500D01*
X44022437Y-54895185D01*
X44065883Y-54943205D01*
X44072715Y-54956614D01*
X44193028Y-55122213D01*
X44337786Y-55266971D01*
X44456667Y-55353341D01*
X44503390Y-55387287D01*
X44619607Y-55446503D01*
X44685776Y-55480218D01*
X44685778Y-55480218D01*
X44685781Y-55480220D01*
X44751450Y-55501557D01*
X44880465Y-55543477D01*
X44981557Y-55559488D01*
X45082648Y-55575500D01*
X45082649Y-55575500D01*
X45287351Y-55575500D01*
X45287352Y-55575500D01*
X45489534Y-55543477D01*
X45684219Y-55480220D01*
X45866610Y-55387287D01*
X45995482Y-55293657D01*
X46032213Y-55266971D01*
X46032215Y-55266968D01*
X46032219Y-55266966D01*
X46176966Y-55122219D01*
X46176968Y-55122215D01*
X46176971Y-55122213D01*
X46265756Y-55000009D01*
X46297287Y-54956610D01*
X46390220Y-54774219D01*
X46453477Y-54579534D01*
X46485500Y-54377352D01*
X46485500Y-54172648D01*
X46480917Y-54143713D01*
X46453477Y-53970465D01*
X46390218Y-53775776D01*
X46338865Y-53674991D01*
X46297287Y-53593390D01*
X46260081Y-53542180D01*
X46176971Y-53427786D01*
X46032213Y-53283028D01*
X45866611Y-53162713D01*
X45773369Y-53115203D01*
X45722574Y-53067229D01*
X45705779Y-52999407D01*
X45728317Y-52933273D01*
X45773371Y-52894234D01*
X45866346Y-52846861D01*
X45866347Y-52846861D01*
X45910921Y-52814474D01*
X45231447Y-52135000D01*
X45237661Y-52135000D01*
X45339394Y-52107741D01*
X45430606Y-52055080D01*
X45505080Y-51980606D01*
X45557741Y-51889394D01*
X45585000Y-51787661D01*
X45585000Y-51781447D01*
X46264474Y-52460921D01*
X46296859Y-52416349D01*
X46389755Y-52234031D01*
X46452990Y-52039417D01*
X46485000Y-51837317D01*
X46485000Y-51632682D01*
X46452990Y-51430582D01*
X46389755Y-51235968D01*
X46296859Y-51053650D01*
X46264474Y-51009077D01*
X46264474Y-51009076D01*
X45585000Y-51688551D01*
X45585000Y-51682339D01*
X45557741Y-51580606D01*
X45505080Y-51489394D01*
X45430606Y-51414920D01*
X45339394Y-51362259D01*
X45237661Y-51335000D01*
X45231446Y-51335000D01*
X45910922Y-50655524D01*
X45910921Y-50655523D01*
X45866359Y-50623147D01*
X45866350Y-50623141D01*
X45684031Y-50530244D01*
X45489417Y-50467009D01*
X45287317Y-50435000D01*
X45082683Y-50435000D01*
X44880582Y-50467009D01*
X44685968Y-50530244D01*
X44503644Y-50623143D01*
X44459077Y-50655523D01*
X44459077Y-50655524D01*
X45138554Y-51335000D01*
X45132339Y-51335000D01*
X45030606Y-51362259D01*
X44939394Y-51414920D01*
X44864920Y-51489394D01*
X44812259Y-51580606D01*
X44785000Y-51682339D01*
X44785000Y-51688553D01*
X44105524Y-51009077D01*
X44105523Y-51009077D01*
X44073143Y-51053644D01*
X43980244Y-51235968D01*
X43917009Y-51430582D01*
X43885000Y-51632682D01*
X43885000Y-51837317D01*
X43917009Y-52039417D01*
X43980244Y-52234031D01*
X44073141Y-52416350D01*
X44073147Y-52416359D01*
X44105523Y-52460921D01*
X44105524Y-52460922D01*
X44785000Y-51781446D01*
X44785000Y-51787661D01*
X44812259Y-51889394D01*
X44864920Y-51980606D01*
X44939394Y-52055080D01*
X45030606Y-52107741D01*
X45132339Y-52135000D01*
X45138553Y-52135000D01*
X44459076Y-52814474D01*
X44503652Y-52846861D01*
X44596628Y-52894234D01*
X44647425Y-52942208D01*
X44664220Y-53010029D01*
X44641683Y-53076164D01*
X44596630Y-53115203D01*
X44503388Y-53162713D01*
X44337786Y-53283028D01*
X44193028Y-53427786D01*
X44072715Y-53593385D01*
X44065883Y-53606795D01*
X44017909Y-53657591D01*
X43955398Y-53674500D01*
X41973457Y-53674500D01*
X41906418Y-53654815D01*
X41862972Y-53606795D01*
X41845348Y-53572207D01*
X41830051Y-53542184D01*
X41799402Y-53499999D01*
X41705109Y-53370213D01*
X41565931Y-53231035D01*
X41532446Y-53169712D01*
X41537430Y-53100020D01*
X41579302Y-53044087D01*
X41588516Y-53037815D01*
X41743343Y-52942317D01*
X41867315Y-52818345D01*
X41959356Y-52669124D01*
X41959358Y-52669119D01*
X42014505Y-52502697D01*
X42014506Y-52502690D01*
X42024999Y-52399986D01*
X42025000Y-52399973D01*
X42025000Y-52000000D01*
X40958012Y-52000000D01*
X40990925Y-51942993D01*
X41025000Y-51815826D01*
X41025000Y-51684174D01*
X40990925Y-51557007D01*
X40958012Y-51500000D01*
X42024999Y-51500000D01*
X42024999Y-51100028D01*
X42024998Y-51100013D01*
X42014505Y-50997302D01*
X41959358Y-50830880D01*
X41959356Y-50830875D01*
X41920500Y-50767880D01*
X41867315Y-50681654D01*
X41743345Y-50557684D01*
X41594124Y-50465643D01*
X41594119Y-50465641D01*
X41427697Y-50410494D01*
X41427690Y-50410493D01*
X41324986Y-50400000D01*
X40775000Y-50400000D01*
X40775000Y-51316988D01*
X40717993Y-51284075D01*
X40590826Y-51250000D01*
X40459174Y-51250000D01*
X40332007Y-51284075D01*
X40275000Y-51316988D01*
X40275000Y-50400000D01*
X39725028Y-50400000D01*
X39725012Y-50400001D01*
X39622302Y-50410494D01*
X39455880Y-50465641D01*
X39455875Y-50465643D01*
X39306654Y-50557684D01*
X39182684Y-50681654D01*
X39090643Y-50830875D01*
X39090641Y-50830880D01*
X39035494Y-50997302D01*
X39035493Y-50997309D01*
X39025000Y-51100013D01*
X39025000Y-51500000D01*
X40091988Y-51500000D01*
X40059075Y-51557007D01*
X40025000Y-51684174D01*
X40025000Y-51815826D01*
X40059075Y-51942993D01*
X40091988Y-52000000D01*
X39025001Y-52000000D01*
X39025001Y-52399986D01*
X39035494Y-52502697D01*
X39090641Y-52669119D01*
X39090643Y-52669124D01*
X39182684Y-52818345D01*
X39306654Y-52942315D01*
X39461484Y-53037815D01*
X39508208Y-53089763D01*
X39519431Y-53158726D01*
X39491587Y-53222808D01*
X39484069Y-53231035D01*
X39344889Y-53370215D01*
X39219951Y-53542179D01*
X39123444Y-53731585D01*
X39057753Y-53933760D01*
X39047265Y-53999980D01*
X39024500Y-54143713D01*
X35000500Y-54143713D01*
X35000500Y-48124500D01*
X35020185Y-48057461D01*
X35072989Y-48011706D01*
X35124500Y-48000500D01*
X83875500Y-48000500D01*
X83942539Y-48020185D01*
G37*
%TD.AperFunction*%
%TD*%
D30*
X43500000Y-65000000D03*
X58500000Y-69500000D03*
X57500000Y-64500000D03*
X71500000Y-66000000D03*
X43500000Y-72500000D03*
X43500000Y-67500000D03*
X48500000Y-80000000D03*
X79000000Y-72000000D03*
X43500000Y-62000000D03*
X53000000Y-69000000D03*
X51400000Y-70700000D03*
X70000000Y-71000000D03*
X71000000Y-75000000D03*
X59500000Y-63000000D03*
X69000000Y-61000000D03*
X60500000Y-76000000D03*
X52500000Y-63500000D03*
X57500000Y-73500000D03*
X64500000Y-54000000D03*
X43500000Y-70000000D03*
X59500000Y-78500000D03*
X60500000Y-73500000D03*
X52000000Y-61000000D03*
X59000000Y-76000000D03*
X59000000Y-74000000D03*
X50500000Y-79000000D03*
X41500000Y-81000000D03*
D31*
X55190000Y-58070000D03*
X55190000Y-60610000D03*
X55190000Y-63150000D03*
X55190000Y-65690000D03*
X55190000Y-68230000D03*
X55190000Y-70770000D03*
X55190000Y-73310000D03*
X55190000Y-75850000D03*
X55190000Y-78390000D03*
X55190000Y-80930000D03*
X62810000Y-80930000D03*
X62810000Y-78390000D03*
X62810000Y-75850000D03*
X62810000Y-73310000D03*
X62810000Y-70770000D03*
X62810000Y-68230000D03*
X62810000Y-65690000D03*
X62810000Y-63150000D03*
X62810000Y-60610000D03*
X62810000Y-58070000D03*
X49500000Y-59960000D03*
X49500000Y-62500000D03*
X49500000Y-65040000D03*
X49500000Y-67580000D03*
X49500000Y-70120000D03*
X49500000Y-72660000D03*
X49500000Y-75200000D03*
X80000000Y-59500000D03*
X80000000Y-62000000D03*
X80000000Y-64500000D03*
X80000000Y-67000000D03*
X66695000Y-61610000D03*
X66695000Y-64150000D03*
X66695000Y-66690000D03*
X66695000Y-69230000D03*
X66695000Y-71770000D03*
X66695000Y-74310000D03*
X66695000Y-76850000D03*
X66695000Y-79390000D03*
X74315000Y-79390000D03*
X74315000Y-76850000D03*
X74315000Y-74310000D03*
X74315000Y-71770000D03*
X74315000Y-69230000D03*
X74315000Y-66690000D03*
X74315000Y-64150000D03*
X74315000Y-61610000D03*
X46000000Y-60880000D03*
X46000000Y-63420000D03*
X46000000Y-65960000D03*
X46000000Y-68500000D03*
X46000000Y-71040000D03*
X46000000Y-73580000D03*
X46000000Y-76120000D03*
X46000000Y-78660000D03*
X52805000Y-54275000D03*
X52805000Y-51735000D03*
X45185000Y-51735000D03*
X45185000Y-54275000D03*
X40525000Y-51750000D03*
X40525000Y-54250000D03*
X79000000Y-80775000D03*
X79000000Y-78235000D03*
X40500000Y-61000000D03*
X40500000Y-63500000D03*
X40500000Y-66000000D03*
X40500000Y-68500000D03*
X40500000Y-71000000D03*
X40500000Y-73500000D03*
M02*
