M48
; DRILL file KiCad 10.0.5 date 2026-08-24T16:18:58
; FORMAT={-:-/ absolute / metric / decimal}
; #@! TF.CreationDate,2026-08-24T16:18:58+02:00
; #@! TF.GenerationSoftware,Kicad,Pcbnew,10.0.5
; #@! TF.FileFunction,Plated,1,2,PTH
FMAT,2
METRIC
; #@! TA.AperFunction,Plated,PTH,ViaDrill
T1C0.300
; #@! TA.AperFunction,Plated,PTH,ComponentDrill
T2C0.800
; #@! TA.AperFunction,Plated,PTH,ComponentDrill
T3C0.950
; #@! TA.AperFunction,Plated,PTH,ComponentDrill
T4C1.000
%
G90
G05
T1
X41.5Y-81.0
X43.5Y-62.0
X43.5Y-65.0
X43.5Y-67.5
X43.5Y-70.0
X43.5Y-72.5
X48.5Y-80.0
X50.5Y-79.0
X51.4Y-70.7
X52.0Y-61.0
X52.5Y-63.5
X53.0Y-69.0
X57.5Y-64.5
X57.5Y-73.5
X58.5Y-69.5
X59.0Y-74.0
X59.0Y-76.0
X59.5Y-63.0
X59.5Y-78.5
X60.5Y-73.5
X60.5Y-76.0
X64.5Y-54.0
X69.0Y-61.0
X70.0Y-71.0
X71.0Y-75.0
X71.5Y-66.0
X79.0Y-72.0
T2
X45.185Y-51.735
X45.185Y-54.275
X49.5Y-59.96
X49.5Y-62.5
X49.5Y-65.04
X49.5Y-67.58
X49.5Y-70.12
X49.5Y-72.66
X49.5Y-75.2
X52.805Y-51.735
X52.805Y-54.275
X55.19Y-58.07
X55.19Y-60.61
X55.19Y-63.15
X55.19Y-65.69
X55.19Y-68.23
X55.19Y-70.77
X55.19Y-73.31
X55.19Y-75.85
X55.19Y-78.39
X55.19Y-80.93
X62.81Y-58.07
X62.81Y-60.61
X62.81Y-63.15
X62.81Y-65.69
X62.81Y-68.23
X62.81Y-70.77
X62.81Y-73.31
X62.81Y-75.85
X62.81Y-78.39
X62.81Y-80.93
X66.695Y-61.61
X66.695Y-64.15
X66.695Y-66.69
X66.695Y-69.23
X66.695Y-71.77
X66.695Y-74.31
X66.695Y-76.85
X66.695Y-79.39
X74.315Y-61.61
X74.315Y-64.15
X74.315Y-66.69
X74.315Y-69.23
X74.315Y-71.77
X74.315Y-74.31
X74.315Y-76.85
X74.315Y-79.39
T3
X40.5Y-61.0
X40.5Y-63.5
X40.5Y-66.0
X40.5Y-68.5
X40.5Y-71.0
X40.5Y-73.5
X80.0Y-59.5
X80.0Y-62.0
X80.0Y-64.5
X80.0Y-67.0
T4
X40.525Y-51.75
X40.525Y-54.25
X46.0Y-60.88
X46.0Y-63.42
X46.0Y-65.96
X46.0Y-68.5
X46.0Y-71.04
X46.0Y-73.58
X46.0Y-76.12
X46.0Y-78.66
X79.0Y-78.235
X79.0Y-80.775
M30
