%TF.GenerationSoftware,KiCad,Pcbnew,10.0.5*%
%TF.CreationDate,2026-08-24T16:18:58+02:00*%
%TF.ProjectId,Anzeige_Simon,416e7a65-6967-4655-9f53-696d6f6e2e6b,rev?*%
%TF.SameCoordinates,Original*%
%TF.FileFunction,Soldermask,Bot*%
%TF.FilePolarity,Negative*%
%FSLAX46Y46*%
G04 Gerber Fmt 4.6, Leading zero omitted, Abs format (unit mm)*
G04 Created by KiCad (PCBNEW 10.0.5) date 2026-08-24 16:18:58*
%MOMM*%
%LPD*%
G01*
G04 APERTURE LIST*
G04 Aperture macros list*
%AMRoundRect*
0 Rectangle with rounded corners*
0 $1 Rounding radius*
0 $2 $3 $4 $5 $6 $7 $8 $9 X,Y pos of 4 corners*
0 Add a 4 corners polygon primitive as box body*
4,1,4,$2,$3,$4,$5,$6,$7,$8,$9,$2,$3,0*
0 Add four circle primitives for the rounded corners*
1,1,$1+$1,$2,$3*
1,1,$1+$1,$4,$5*
1,1,$1+$1,$6,$7*
1,1,$1+$1,$8,$9*
0 Add four rect primitives between the rounded corners*
20,1,$1+$1,$2,$3,$4,$5,0*
20,1,$1+$1,$4,$5,$6,$7,0*
20,1,$1+$1,$6,$7,$8,$9,0*
20,1,$1+$1,$8,$9,$2,$3,0*%
G04 Aperture macros list end*
%ADD10RoundRect,0.250000X-0.950000X-0.550000X0.950000X-0.550000X0.950000X0.550000X-0.950000X0.550000X0*%
%ADD11O,2.400000X1.600000*%
%ADD12R,1.600000X1.600000*%
%ADD13C,1.600000*%
%ADD14RoundRect,0.250000X-0.725000X0.600000X-0.725000X-0.600000X0.725000X-0.600000X0.725000X0.600000X0*%
%ADD15O,1.950000X1.700000*%
%ADD16RoundRect,0.250000X-0.550000X-0.550000X0.550000X-0.550000X0.550000X0.550000X-0.550000X0.550000X0*%
%ADD17R,1.700000X1.700000*%
%ADD18C,1.700000*%
%ADD19RoundRect,0.250000X0.550000X0.550000X-0.550000X0.550000X-0.550000X-0.550000X0.550000X-0.550000X0*%
%ADD20RoundRect,0.250000X-0.750000X0.600000X-0.750000X-0.600000X0.750000X-0.600000X0.750000X0.600000X0*%
%ADD21O,2.000000X1.700000*%
%ADD22C,0.350000*%
G04 APERTURE END LIST*
D10*
%TO.C,U1*%
X55190000Y-58070000D03*
D11*
X55190000Y-60610000D03*
X55190000Y-63150000D03*
X55190000Y-65690000D03*
X55190000Y-68230000D03*
X55190000Y-70770000D03*
X55190000Y-73310000D03*
X55190000Y-75850000D03*
X55190000Y-78390000D03*
X55190000Y-80930000D03*
X62810000Y-80930000D03*
X62810000Y-78390000D03*
X62810000Y-75850000D03*
X62810000Y-73310000D03*
X62810000Y-70770000D03*
X62810000Y-68230000D03*
X62810000Y-65690000D03*
X62810000Y-63150000D03*
X62810000Y-60610000D03*
X62810000Y-58070000D03*
%TD*%
D12*
%TO.C,RN1*%
X49500000Y-59960000D03*
D13*
X49500000Y-62500000D03*
X49500000Y-65040000D03*
X49500000Y-67580000D03*
X49500000Y-70120000D03*
X49500000Y-72660000D03*
X49500000Y-75200000D03*
%TD*%
D14*
%TO.C,J1*%
X80000000Y-59500000D03*
D15*
X80000000Y-62000000D03*
X80000000Y-64500000D03*
X80000000Y-67000000D03*
%TD*%
D16*
%TO.C,U2*%
X66695000Y-61610000D03*
D13*
X66695000Y-64150000D03*
X66695000Y-66690000D03*
X66695000Y-69230000D03*
X66695000Y-71770000D03*
X66695000Y-74310000D03*
X66695000Y-76850000D03*
X66695000Y-79390000D03*
X74315000Y-79390000D03*
X74315000Y-76850000D03*
X74315000Y-74310000D03*
X74315000Y-71770000D03*
X74315000Y-69230000D03*
X74315000Y-66690000D03*
X74315000Y-64150000D03*
X74315000Y-61610000D03*
%TD*%
D17*
%TO.C,J5*%
X46000000Y-60880000D03*
D18*
X46000000Y-63420000D03*
X46000000Y-65960000D03*
X46000000Y-68500000D03*
X46000000Y-71040000D03*
X46000000Y-73580000D03*
X46000000Y-76120000D03*
X46000000Y-78660000D03*
%TD*%
D19*
%TO.C,U3*%
X52805000Y-54275000D03*
D13*
X52805000Y-51735000D03*
X45185000Y-51735000D03*
X45185000Y-54275000D03*
%TD*%
D20*
%TO.C,J3*%
X40525000Y-51750000D03*
D21*
X40525000Y-54250000D03*
%TD*%
D17*
%TO.C,J4*%
X79000000Y-80775000D03*
D18*
X79000000Y-78235000D03*
%TD*%
D14*
%TO.C,J2*%
X40500000Y-61000000D03*
D15*
X40500000Y-63500000D03*
X40500000Y-66000000D03*
X40500000Y-68500000D03*
X40500000Y-71000000D03*
X40500000Y-73500000D03*
%TD*%
D22*
X55190000Y-58070000D03*
X55190000Y-60610000D03*
X55190000Y-63150000D03*
X55190000Y-65690000D03*
X55190000Y-68230000D03*
X55190000Y-70770000D03*
X55190000Y-73310000D03*
X55190000Y-75850000D03*
X55190000Y-78390000D03*
X55190000Y-80930000D03*
X62810000Y-80930000D03*
X62810000Y-78390000D03*
X62810000Y-75850000D03*
X62810000Y-73310000D03*
X62810000Y-70770000D03*
X62810000Y-68230000D03*
X62810000Y-65690000D03*
X62810000Y-63150000D03*
X62810000Y-60610000D03*
X62810000Y-58070000D03*
X49500000Y-59960000D03*
X49500000Y-62500000D03*
X49500000Y-65040000D03*
X49500000Y-67580000D03*
X49500000Y-70120000D03*
X49500000Y-72660000D03*
X49500000Y-75200000D03*
X80000000Y-59500000D03*
X80000000Y-62000000D03*
X80000000Y-64500000D03*
X80000000Y-67000000D03*
X66695000Y-61610000D03*
X66695000Y-64150000D03*
X66695000Y-66690000D03*
X66695000Y-69230000D03*
X66695000Y-71770000D03*
X66695000Y-74310000D03*
X66695000Y-76850000D03*
X66695000Y-79390000D03*
X74315000Y-79390000D03*
X74315000Y-76850000D03*
X74315000Y-74310000D03*
X74315000Y-71770000D03*
X74315000Y-69230000D03*
X74315000Y-66690000D03*
X74315000Y-64150000D03*
X74315000Y-61610000D03*
X46000000Y-60880000D03*
X46000000Y-63420000D03*
X46000000Y-65960000D03*
X46000000Y-68500000D03*
X46000000Y-71040000D03*
X46000000Y-73580000D03*
X46000000Y-76120000D03*
X46000000Y-78660000D03*
X52805000Y-54275000D03*
X52805000Y-51735000D03*
X45185000Y-51735000D03*
X45185000Y-54275000D03*
X40525000Y-51750000D03*
X40525000Y-54250000D03*
X79000000Y-80775000D03*
X79000000Y-78235000D03*
X40500000Y-61000000D03*
X40500000Y-63500000D03*
X40500000Y-66000000D03*
X40500000Y-68500000D03*
X40500000Y-71000000D03*
X40500000Y-73500000D03*
M02*
